<svg version="1.1" xmlns="http://www.w3.org/2000/svg" viewBox="0 0 728.8562320448921 499.6527360315986" width="728.8562320448921" height="499.6527360315986">
  <!-- svg-source:excalidraw -->
  
  <defs>
    <style class="style-fonts">
      
    </style>
    
  </defs>
  <rect x="0" y="0" width="728.8562320448921" height="499.6527360315986" fill="transparent"></rect><g stroke-opacity="0.4" fill-opacity="0.4" transform="translate(10 60.887282841046726) rotate(0 0.00004999999998744897 0.00005000000010113581)" stroke="none"><path fill="#f08c00" d="M 1.57,-1.57 Q 1.57,-1.57 1.77,-1.27 1.98,-0.98 2.09,-0.64 2.20,-0.29 2.19,0.05 2.18,0.41 2.05,0.75 1.93,1.09 1.70,1.37 1.48,1.65 1.18,1.84 0.87,2.04 0.52,2.12 0.18,2.21 -0.17,2.18 -0.53,2.15 -0.86,2.01 -1.19,1.87 -1.46,1.63 -1.73,1.39 -1.90,1.07 -2.08,0.76 -2.15,0.41 -2.21,0.05 -2.17,-0.29 -2.12,-0.65 -1.96,-0.97 -1.80,-1.29 -1.54,-1.54 -1.29,-1.80 -0.97,-1.96 -0.65,-2.12 -0.29,-2.17 0.06,-2.21 0.41,-2.15 0.76,-2.08 1.07,-1.90 1.39,-1.73 1.63,-1.46 1.87,-1.19 2.01,-0.86 2.15,-0.53 2.18,-0.17 2.21,0.18 2.12,0.52 2.03,0.87 1.84,1.18 1.65,1.48 1.37,1.70 1.09,1.93 0.75,2.05 0.41,2.18 0.05,2.19 -0.30,2.20 -0.64,2.09 -0.98,1.98 -1.27,1.77 -1.57,1.56 -1.57,1.57 -1.57,1.57 -1.73,1.35 -1.90,1.14 -2.01,0.90 -2.12,0.66 -2.16,0.39 -2.21,0.13 -2.20,-0.13 -2.18,-0.40 -2.10,-0.65 -2.02,-0.91 -1.88,-1.14 -1.74,-1.36 -1.55,-1.55 -1.36,-1.74 -1.14,-1.88 -0.91,-2.02 -0.65,-2.10 -0.40,-2.18 -0.13,-2.20 0.13,-2.21 0.39,-2.16 0.66,-2.12 0.90,-2.01 1.14,-1.90 1.35,-1.73 1.57,-1.57 1.57,-1.57 L 1.57,-1.57 Z"></path></g><g stroke-linecap="round" transform="translate(24.89642307980398 389.3288653756854) rotate(0 47.315441520346894 47.31544152034712)"><path d="M8.15 20.33 C8.15 20.33, 8.15 20.33, 8.15 20.33 M8.15 20.33 C8.15 20.33, 8.15 20.33, 8.15 20.33 M5.26 29.75 C11.61 23.68, 16.83 17.76, 26.91 4.84 M5.26 29.75 C12.53 20, 22.01 10.56, 26.91 4.84 M2.37 39.16 C11.1 29.35, 21.98 15.43, 33.86 2.94 M2.37 39.16 C15.26 24.97, 27.7 11.83, 33.86 2.94 M0.8 47.07 C10.6 32.94, 25.09 22.45, 39.51 2.54 M0.8 47.07 C10.39 36.37, 18.23 28.43, 39.51 2.54 M1.85 51.96 C15.27 38.02, 24.74 22.84, 45.15 2.15 M1.85 51.96 C14.43 38.29, 26.47 24.16, 45.15 2.15 M2.9 56.85 C12.76 46.76, 24.91 34.78, 50.79 1.75 M2.9 56.85 C20.14 37, 38.14 16.68, 50.79 1.75 M4.61 60.98 C19.57 46.1, 31.08 29.01, 56.44 1.36 M4.61 60.98 C24.17 38.87, 45.4 14.07, 56.44 1.36 M5.66 65.87 C16.63 54.06, 27.58 41.86, 60.11 3.23 M5.66 65.87 C22.66 47.91, 37.31 29.4, 60.11 3.23 M7.37 70 C27.7 45.1, 48.7 20.64, 63.79 5.1 M7.37 70 C20.01 54.24, 32.78 39.57, 63.79 5.1 M9.07 74.14 C22.14 60.25, 34.97 43.99, 67.46 6.97 M9.07 74.14 C27.73 52.23, 45.48 31.34, 67.46 6.97 M12.09 76.76 C24.32 60, 39.3 45.8, 71.14 8.84 M12.09 76.76 C28.55 56.85, 45.32 38.99, 71.14 8.84 M15.11 79.39 C34.21 59.54, 48.4 39.19, 74.81 10.71 M15.11 79.39 C35.81 55.27, 58.16 28.74, 74.81 10.71 M18.13 82.01 C37.73 58.49, 58.82 36.18, 78.49 12.58 M18.13 82.01 C38.43 58.32, 57.77 35.09, 78.49 12.58 M21.15 84.63 C42.15 60.15, 61.89 35.97, 80.85 15.96 M21.15 84.63 C37.79 66.98, 52.6 46.63, 80.85 15.96 M24.17 87.26 C38.35 67.82, 56.91 52.22, 83.21 19.33 M24.17 87.26 C44.59 64.84, 64.81 40.58, 83.21 19.33 M26.53 90.64 C42.01 73.19, 52.39 58.47, 85.57 22.71 M26.53 90.64 C43 70.41, 60.05 51.6, 85.57 22.71 M30.86 91.75 C41.83 79.86, 55.12 66.79, 87.28 26.85 M30.86 91.75 C41.93 79.45, 54.37 66, 87.28 26.85 M35.85 92.11 C51.67 74.82, 65.29 56.94, 89.64 30.23 M35.85 92.11 C51.6 73.59, 67.12 56.04, 89.64 30.23 M40.18 93.23 C55.42 73.87, 70.9 56.12, 92.01 33.6 M40.18 93.23 C59.01 71.34, 79.04 48.5, 92.01 33.6 M45.17 93.59 C61.73 72.44, 80.67 51.14, 93.06 38.49 M45.17 93.59 C58.12 79.95, 69.37 66.35, 93.06 38.49 M49.5 94.7 C64.06 75.21, 82.5 58.85, 92.8 44.89 M49.5 94.7 C60.67 82.18, 70.62 69.52, 92.8 44.89 M55.14 94.31 C61.92 86.75, 73 75.25, 93.19 50.53 M55.14 94.31 C68.46 78.1, 82.15 62.26, 93.19 50.53 M64.06 90.14 C73.03 78.35, 83.88 65.36, 92.93 56.93 M64.06 90.14 C74.29 77.8, 84.72 66.65, 92.93 56.93 M72.99 85.97 C77.83 80.44, 83.21 74.58, 88.08 68.61 M72.99 85.97 C77.66 81.15, 80.78 76.82, 88.08 68.61 M27.13 90.73 C27.13 90.73, 27.13 90.73, 27.13 90.73 M27.13 90.73 C27.13 90.73, 27.13 90.73, 27.13 90.73 M34.28 91.65 C24.51 80.54, 12.39 74.59, 7.12 68.03 M34.28 91.65 C23.94 81.92, 12.05 73.41, 7.12 68.03 M41.44 92.56 C30.55 83.13, 19.8 72.62, 5.21 61.07 M41.44 92.56 C32.78 85.69, 24.76 76.89, 5.21 61.07 M49.34 94.14 C36.8 84.28, 22.41 71.93, 2.55 53.46 M49.34 94.14 C34.73 82.27, 20.33 70.17, 2.55 53.46 M54.99 93.74 C37.06 78.83, 15.7 58.23, 0.65 46.51 M54.99 93.74 C42.36 81.76, 27.97 70.44, 0.65 46.51 M58.37 91.38 C45.81 80.59, 33.53 69.78, 1.76 42.18 M58.37 91.38 C42.43 78.51, 28.41 64.66, 1.76 42.18 M62.5 89.67 C49.89 79.42, 36.93 66.83, 2.88 37.84 M62.5 89.67 C40.34 69.96, 16.32 50.02, 2.88 37.84 M66.63 87.97 C49.6 73.09, 32.42 56.68, 4.75 34.17 M66.63 87.97 C49.63 71.77, 31.36 57.06, 4.75 34.17 M70.77 86.26 C52.72 69.47, 34.65 54.93, 5.86 29.84 M70.77 86.26 C46.68 64.8, 21.49 41.28, 5.86 29.84 M74.9 84.55 C52.9 66.65, 31.69 47.43, 6.98 25.51 M74.9 84.55 C55.9 66.8, 36.22 51.14, 6.98 25.51 M78.28 82.19 C52.99 61.62, 28.38 39.14, 8.09 21.18 M78.28 82.19 C50.17 59.18, 23.33 34.1, 8.09 21.18 M80.15 78.51 C59.8 59.84, 41.28 45.05, 10.72 18.16 M80.15 78.51 C61.46 61.53, 43.15 46.6, 10.72 18.16 M82.77 75.5 C59.26 54.58, 38.95 38.07, 14.1 15.79 M82.77 75.5 C58.68 54.8, 34.04 32.66, 14.1 15.79 M85.4 72.48 C61.76 55.3, 43.62 35.44, 16.72 12.78 M85.4 72.48 C61.51 50.92, 36.64 28.84, 16.72 12.78 M87.27 68.8 C65.73 49.44, 45.13 31.83, 20.1 10.41 M87.27 68.8 C74.71 57.62, 59.61 45.21, 20.1 10.41 M89.89 65.78 C71.81 49.71, 50.51 31.96, 23.48 8.05 M89.89 65.78 C65.33 44.14, 39.38 22.81, 23.48 8.05 M91.76 62.11 C71.29 42.8, 49.03 25.02, 26.1 5.03 M91.76 62.11 C72.4 45.25, 52.48 27.71, 26.1 5.03 M92.88 57.78 C77.04 43.32, 59.35 28.52, 29.48 2.67 M92.88 57.78 C76.81 45.02, 61.53 30.03, 29.48 2.67 M93.24 52.79 C75.82 36.23, 54.53 20.2, 35.12 2.27 M93.24 52.79 C70.31 33.84, 49.13 14.67, 35.12 2.27 M92.84 47.15 C76.42 33.45, 59.09 16.52, 40.01 1.22 M92.84 47.15 C72.24 29.54, 50.09 10.36, 40.01 1.22 M92.45 41.5 C83.95 32.85, 73.52 23.99, 45.65 0.83 M92.45 41.5 C74.63 26.12, 55.76 9.5, 45.65 0.83 M92.81 36.52 C81.68 26.37, 71.73 17.75, 51.3 0.43 M92.81 36.52 C76.88 24.15, 62.58 11.06, 51.3 0.43 M87.88 26.94 C78.09 20.42, 69.98 12.6, 61.47 3.98 M87.88 26.94 C79.08 19.29, 70.25 12.32, 61.47 3.98 M81.45 16.05 C79.54 15.18, 78.36 13.2, 75.41 10.8 M81.45 16.05 C79.02 14.19, 77.14 12.32, 75.41 10.8" stroke="#12b886" stroke-width="0.5" fill="none"></path><path d="M54.28 0.58 C62.4 1.41, 72.95 6.98, 79.31 12.76 C85.68 18.55, 90.21 27.25, 92.47 35.28 C94.72 43.3, 95.37 52.91, 92.84 60.9 C90.32 68.89, 84.06 77.64, 77.33 83.23 C70.61 88.82, 60.89 93.22, 52.51 94.46 C44.13 95.7, 34.6 94.42, 27.06 90.67 C19.52 86.91, 11.73 79.21, 7.27 71.92 C2.8 64.63, 0.15 55.54, 0.29 46.95 C0.43 38.36, 3.36 27.67, 8.1 20.38 C12.84 13.09, 19.94 6.17, 28.73 3.22 C37.53 0.28, 54.73 2.3, 60.87 2.71 C67.02 3.12, 65.96 5.04, 65.6 5.68 M56.52 1.41 C64.54 2.1, 73.89 7.11, 79.93 12.89 C85.98 18.67, 90.72 27.87, 92.77 36.1 C94.82 44.34, 94.82 54.17, 92.22 62.31 C89.62 70.45, 83.76 79.8, 77.16 84.95 C70.55 90.11, 61.01 92.54, 52.6 93.26 C44.19 93.99, 34.32 93.04, 26.7 89.33 C19.09 85.61, 11.55 78.17, 6.89 70.99 C2.24 63.8, -1.54 54.85, -1.21 46.22 C-0.88 37.59, 3.59 26.47, 8.87 19.18 C14.15 11.89, 22.75 5.75, 30.48 2.49 C38.21 -0.78, 50.99 -0.1, 55.28 -0.41 C59.56 -0.73, 56.24 -0.35, 56.18 0.59" stroke="#000000" stroke-width="1" fill="none"></path></g><g stroke-linecap="round" transform="translate(153.65291172164302 366.46612732069116) rotate(0 15.77181384011567 15.771813840115556)"><path d="M4.12 4.91 C4.12 4.91, 4.12 4.91, 4.12 4.91 M4.12 4.91 C4.12 4.91, 4.12 4.91, 4.12 4.91 M0.58 15.08 C4.38 9.7, 9.3 4.08, 13.04 0.74 M0.58 15.08 C3.84 11.63, 6.83 8.21, 13.04 0.74 M1.63 19.97 C6.8 12.64, 14.1 5.71, 17.37 1.85 M1.63 19.97 C6.18 14.79, 11.26 8.59, 17.37 1.85 M3.34 24.1 C11.16 15.35, 18.77 7.78, 22.36 2.21 M3.34 24.1 C8.52 17.42, 14.88 11.65, 22.36 2.21 M5.7 27.48 C10.9 21.59, 14.64 18.36, 25.38 4.84 M5.7 27.48 C11.53 21.14, 16.37 14.5, 25.38 4.84 M9.37 29.35 C15.18 23.19, 20.47 16.84, 28.4 7.46 M9.37 29.35 C13.27 25.17, 17.76 20.51, 28.4 7.46 M12.39 31.97 C18.56 24.71, 25.66 16.94, 30.76 10.84 M12.39 31.97 C17.48 26.69, 21.74 20.83, 30.76 10.84 M18.69 30.82 C23.04 25.91, 28.86 18.86, 31.16 16.48 M18.69 30.82 C21.16 28.09, 23.67 25.31, 31.16 16.48 M3.31 25.15 C3.31 25.15, 3.31 25.15, 3.31 25.15 M3.31 25.15 C3.31 25.15, 3.31 25.15, 3.31 25.15 M15.75 30.66 C11.93 27.56, 7.64 25.22, 0.65 17.54 M15.75 30.66 C12.45 27.98, 9.06 24.73, 0.65 17.54 M20.63 29.61 C15.27 23.78, 8.95 18.35, 1.01 12.55 M20.63 29.61 C16.16 25.42, 12.35 21.85, 1.01 12.55 M24.77 27.9 C17.88 21.76, 11.76 17.71, 2.88 8.88 M24.77 27.9 C18.85 22.47, 11.69 16.84, 2.88 8.88 M27.39 24.89 C18.38 18.56, 10.68 9.91, 4.75 5.2 M27.39 24.89 C20 18.45, 12.97 12.11, 4.75 5.2 M30.02 21.87 C23.06 14.85, 15.19 8.29, 8.13 2.84 M30.02 21.87 C22.49 14.86, 14.62 8.17, 8.13 2.84 M31.13 17.54 C26.44 13.83, 19.93 7.67, 12.26 1.13 M31.13 17.54 C25.76 12.72, 21.46 8.97, 12.26 1.13 M31.49 12.55 C27.73 9.14, 23.68 4.22, 18.66 1.4 M31.49 12.55 C28.87 9.77, 25.14 7.41, 18.66 1.4" stroke="#7950f2" stroke-width="0.5" fill="none"></path><path d="M14.08 0.42 C17.26 -0.12, 21.34 1.05, 24.17 2.8 C27 4.55, 30.07 7.76, 31.06 10.92 C32.06 14.08, 31.54 18.61, 30.12 21.78 C28.7 24.95, 25.52 28.33, 22.55 29.95 C19.57 31.56, 15.48 32.28, 12.27 31.47 C9.05 30.66, 5.27 27.82, 3.25 25.1 C1.24 22.38, -0.01 18.55, 0.17 15.14 C0.34 11.74, 1.89 7.24, 4.33 4.66 C6.77 2.09, 12.96 0.35, 14.82 -0.31 C16.69 -0.97, 15.56 0.31, 15.51 0.69 M12.77 0.84 C15.87 0.01, 20.43 0.7, 23.36 2.21 C26.29 3.71, 29.18 6.8, 30.36 9.89 C31.53 12.97, 31.45 17.53, 30.4 20.69 C29.35 23.86, 26.85 27.09, 24.07 28.89 C21.3 30.69, 17.03 32.04, 13.76 31.49 C10.49 30.93, 6.62 28.12, 4.44 25.56 C2.26 23, 0.77 19.39, 0.67 16.13 C0.57 12.88, 1.94 8.53, 3.84 6.02 C5.74 3.5, 10.6 1.97, 12.08 1.03 C13.57 0.09, 12.55 0.32, 12.74 0.39" stroke="#000000" stroke-width="1" fill="none"></path></g><g stroke-linecap="round" transform="translate(466.5072106030418 326.24161001522316) rotate(0 31.543627680231225 31.54362768023111)"><path d="M11.13 7.03 C11.13 7.03, 11.13 7.03, 11.13 7.03 M11.13 7.03 C11.13 7.03, 11.13 7.03, 11.13 7.03 M1.68 23.99 C4.12 18.02, 9.22 13.92, 18.74 4.37 M1.68 23.99 C7.66 17.64, 14.33 9.31, 18.74 4.37 M1.42 30.39 C5.78 23.3, 12.82 17.42, 26.35 1.71 M1.42 30.39 C6.73 23.86, 13.16 15.04, 26.35 1.71 M2.47 35.28 C13.7 23.62, 20.47 14, 32 1.31 M2.47 35.28 C9.48 27.36, 13.74 21.61, 32 1.31 M3.52 40.16 C17.91 25.07, 29.44 9.06, 36.33 2.43 M3.52 40.16 C14.87 26.23, 27.78 11.76, 36.33 2.43 M4.58 45.05 C16.49 28.42, 28.56 16.92, 40.66 3.54 M4.58 45.05 C14.83 33.75, 24.13 21.53, 40.66 3.54 M6.28 49.19 C16.28 38, 22.49 30.29, 44.99 4.66 M6.28 49.19 C19.56 34.1, 34.32 16.13, 44.99 4.66 M9.3 51.81 C17.18 38.32, 27.88 27.76, 49.32 5.77 M9.3 51.81 C20.83 39.29, 30.77 26.26, 49.32 5.77 M12.32 54.43 C27.89 39.27, 43.97 18.8, 53 7.64 M12.32 54.43 C23.3 41.52, 35.25 30.07, 53 7.64 M15.34 57.06 C28.1 42.97, 38.57 31.41, 54.7 11.78 M15.34 57.06 C27.48 42.69, 40.25 29.1, 54.7 11.78 M19.01 58.93 C31.71 40.99, 47.99 26.53, 57.06 15.16 M19.01 58.93 C29.23 46.56, 39.32 34.72, 57.06 15.16 M22.03 61.55 C31.66 52.24, 39.04 43.54, 58.77 19.29 M22.03 61.55 C36.37 45.83, 51.42 28.44, 58.77 19.29 M27.02 61.91 C33.36 53.43, 42.83 45.35, 61.13 22.67 M27.02 61.91 C37.39 50.09, 47.66 37.89, 61.13 22.67 M32.66 61.52 C40.58 51.48, 53.08 37.55, 62.18 27.56 M32.66 61.52 C41.78 50.22, 52.11 39.08, 62.18 27.56 M37.65 61.88 C43.67 52.11, 54.33 42.53, 61.27 34.71 M37.65 61.88 C43.85 55.66, 49.21 48.8, 61.27 34.71 M43.29 61.48 C47.32 53.08, 55.81 49.15, 59.69 42.62 M43.29 61.48 C49.89 54.01, 56.43 47.71, 59.69 42.62 M4.56 48.11 C4.56 48.11, 4.56 48.11, 4.56 48.11 M4.56 48.11 C4.56 48.11, 4.56 48.11, 4.56 48.11 M25.3 60.83 C17.55 54.88, 10.37 48, 3.41 41.81 M25.3 60.83 C17.89 54.38, 10.29 47.93, 3.41 41.81 M31.69 61.09 C24.86 55.18, 16.18 47.52, 2.26 35.51 M31.69 61.09 C25.04 54.48, 17.04 47.26, 2.26 35.51 M37.34 60.7 C25.51 50.32, 9.81 36.94, 1.11 29.21 M37.34 60.7 C27.83 51.82, 19.29 45.23, 1.11 29.21 M43.73 60.96 C31.6 48.19, 16.97 35.72, 1.47 24.22 M43.73 60.96 C32.49 51.77, 22.06 43.05, 1.47 24.22 M46.36 57.94 C33.13 48.47, 22.05 36.1, 3.34 20.55 M46.36 57.94 C30.09 42.59, 13.43 28.61, 3.34 20.55 M49.74 55.58 C40.04 46.12, 29.21 35.72, 5.96 17.53 M49.74 55.58 C37.94 44.12, 24.98 33.07, 5.96 17.53 M52.36 52.56 C39.35 40.05, 28.45 31, 7.83 13.85 M52.36 52.56 C39.21 40.9, 27.23 31.91, 7.83 13.85 M54.99 49.54 C42.84 40.51, 32.85 32.96, 9.7 10.18 M54.99 49.54 C40.08 36.36, 26.24 24.92, 9.7 10.18 M58.36 47.18 C40.72 33.49, 22.64 14.32, 11.57 6.5 M58.36 47.18 C43.23 33.81, 25.73 17.78, 11.57 6.5 M59.48 42.85 C46.23 29.73, 29.03 18.09, 15.71 4.8 M59.48 42.85 C46.23 31.15, 33.8 20.54, 15.71 4.8 M60.59 38.52 C48.02 29.05, 39.71 19.62, 20.59 3.75 M60.59 38.52 C47.21 26.72, 33.41 15.03, 20.59 3.75 M60.95 33.53 C52.33 25.64, 40.79 15.15, 24.73 2.04 M60.95 33.53 C46.24 21.13, 34.68 9.37, 24.73 2.04 M62.07 29.2 C48.78 16.07, 35.2 6.21, 28.86 0.33 M62.07 29.2 C52.8 20.83, 43.72 13.3, 28.86 0.33 M62.43 24.21 C56.01 17.75, 51.48 16.37, 37.52 2.56 M62.43 24.21 C53.93 18.13, 46.91 11.33, 37.52 2.56 M56.75 13.98 C51.77 10.17, 47.65 7.39, 46.19 4.79 M56.75 13.98 C53.18 11.18, 50.04 8, 46.19 4.79" stroke="#228be6" stroke-width="0.5" fill="none"></path><path d="M30.51 0.45 C36.92 -0.27, 46.5 2.33, 51.78 6.44 C57.07 10.55, 61.1 18.34, 62.21 25.11 C63.33 31.87, 61.66 40.94, 58.47 47.03 C55.27 53.13, 49.21 59.33, 43.05 61.68 C36.89 64.03, 27.88 63.37, 21.5 61.14 C15.12 58.91, 8.29 54.16, 4.79 48.3 C1.29 42.45, -0.56 32.87, 0.5 25.99 C1.55 19.11, 5.69 11.24, 11.12 7.04 C16.54 2.84, 29.18 1.69, 33.06 0.78 C36.95 -0.13, 34.59 1.17, 34.43 1.58 M37.66 1.1 C43.98 1.72, 51.76 6.29, 55.9 11.42 C60.04 16.55, 62.54 25.2, 62.48 31.89 C62.42 38.59, 59.76 46.4, 55.54 51.59 C51.32 56.77, 43.71 62.03, 37.16 62.98 C30.61 63.94, 21.95 60.86, 16.25 57.32 C10.56 53.79, 5.24 47.92, 3.01 41.76 C0.78 35.61, 0.84 26.44, 2.86 20.37 C4.87 14.3, 9.31 8.71, 15.1 5.34 C20.9 1.97, 33.81 0.99, 37.63 0.17 C41.46 -0.65, 38.36 0.07, 38.06 0.44" stroke="#000000" stroke-width="1" fill="none"></path></g><g stroke-linecap="round" transform="translate(409.3930335805726 154.09392738102815) rotate(0 47.315441520346894 47.31544152034712)"><path d="M12.15 15.86 C12.15 15.86, 12.15 15.86, 12.15 15.86 M12.15 15.86 C12.15 15.86, 12.15 15.86, 12.15 15.86 M5.99 29.05 C9.66 21.81, 14.83 18.81, 23.7 8.68 M5.99 29.05 C10.2 24.42, 14.02 20.86, 23.7 8.68 M1.13 40.74 C6.63 33.6, 14.26 25.93, 34.59 2.24 M1.13 40.74 C14.09 26.11, 25.03 13.73, 34.59 2.24 M2.18 45.62 C17.94 30.67, 30.15 12.66, 40.23 1.85 M2.18 45.62 C15.34 30.18, 30.04 12.77, 40.23 1.85 M2.58 51.27 C10.36 41.72, 20.8 31.14, 45.22 2.21 M2.58 51.27 C14.71 38.62, 25.97 27.02, 45.22 2.21 M3.63 56.15 C19.79 36.27, 36.95 18.16, 50.86 1.82 M3.63 56.15 C21.75 37.65, 38.21 17.27, 50.86 1.82 M4.02 61.8 C14.36 45.83, 30.51 33.03, 55.85 2.18 M4.02 61.8 C15.11 49.09, 27.06 36.26, 55.85 2.18 M5.07 66.69 C25.22 44.06, 47.79 16.96, 61.49 1.78 M5.07 66.69 C22.96 43.67, 42.78 21.22, 61.49 1.78 M8.09 69.31 C26.3 49.07, 42.13 28.33, 65.17 3.65 M8.09 69.31 C30.06 44.43, 52.25 19.53, 65.17 3.65 M10.46 72.69 C28.56 55.23, 41.78 35.9, 68.19 6.27 M10.46 72.69 C23.62 57.78, 35.24 44.31, 68.19 6.27 M12.82 76.07 C27.14 58.43, 40.2 42.02, 71.21 8.9 M12.82 76.07 C34 52.89, 54.76 27.29, 71.21 8.9 M15.84 78.69 C32.58 56.92, 52.01 37.98, 74.88 10.77 M15.84 78.69 C30.6 62.27, 43.84 46.65, 74.88 10.77 M18.2 82.07 C35.65 62.33, 51.9 40.73, 77.9 13.39 M18.2 82.07 C28.92 68.29, 41.27 53.98, 77.9 13.39 M20.56 85.45 C34.01 70.28, 50.2 51.47, 81.58 15.26 M20.56 85.45 C32.94 70.08, 45.21 57, 81.58 15.26 M23.58 88.07 C43.94 65.39, 65.7 42.14, 84.59 17.89 M23.58 88.07 C37.36 74.48, 48.48 58.4, 84.59 17.89 M27.26 89.94 C47.29 69.1, 62.25 49.31, 86.3 22.02 M27.26 89.94 C43.01 71.61, 59.46 54.66, 86.3 22.02 M31.59 91.06 C52.31 65.19, 75.9 42.65, 88.01 26.15 M31.59 91.06 C49.35 70.78, 67.28 49.47, 88.01 26.15 M35.92 92.17 C54.62 70.37, 72.87 48.13, 89.72 30.29 M35.92 92.17 C51.25 73.15, 67.42 54.29, 89.72 30.29 M39.59 94.04 C56.25 74.11, 73.07 56.58, 91.42 34.42 M39.59 94.04 C54.88 74.66, 71.15 56.59, 91.42 34.42 M43.92 95.16 C53.96 85.13, 64.38 72.14, 93.13 38.56 M43.92 95.16 C61.07 74.64, 77.69 55.92, 93.13 38.56 M48.26 96.27 C64.29 78.01, 80.91 57.43, 94.84 42.69 M48.26 96.27 C59.64 82.27, 72.45 70.54, 94.84 42.69 M55.21 94.37 C66.55 81.14, 75.51 69.11, 93.92 49.84 M55.21 94.37 C63.56 84.47, 71.23 75.53, 93.92 49.84 M62.17 92.47 C68.56 84.41, 74.31 76.83, 93 56.99 M62.17 92.47 C75.18 79, 86.23 65.61, 93 56.99 M69.12 90.56 C73.79 86.64, 78.23 79.68, 92.08 64.15 M69.12 90.56 C73.4 85.88, 79.01 79.37, 92.08 64.15 M20.81 85.81 C20.81 85.81, 20.81 85.81, 20.81 85.81 M20.81 85.81 C20.81 85.81, 20.81 85.81, 20.81 85.81 M30.98 89.35 C19.31 81.51, 10.93 70.71, 6.07 67.7 M30.98 89.35 C22.37 81.13, 12.56 73.21, 6.07 67.7 M41.91 93.55 C32.47 84.76, 25.08 77.66, 3.42 60.09 M41.91 93.55 C33.68 87.08, 26.93 79.58, 3.42 60.09 M49.06 94.47 C33.28 80.25, 17.93 66.14, 3.02 54.45 M49.06 94.47 C30.72 79.75, 14.1 63.17, 3.02 54.45 M53.19 92.76 C41.66 85.99, 32.01 74.34, 1.87 48.15 M53.19 92.76 C38.81 79.57, 24.18 66.81, 1.87 48.15 M58.08 91.71 C42.11 75.98, 25.96 64.08, 1.48 42.5 M58.08 91.71 C44.48 79.04, 28.83 66.03, 1.48 42.5 M62.21 90 C48.43 78.66, 30.24 62.8, 1.84 37.52 M62.21 90 C48.84 77.53, 34.76 65.68, 1.84 37.52 M67.1 88.95 C50.39 76.73, 36.22 62.9, 3.71 33.84 M67.1 88.95 C42.8 68.16, 17.38 46.56, 3.71 33.84 M71.24 87.24 C52.82 73.96, 38.53 59.18, 5.58 30.17 M71.24 87.24 C57.71 75.01, 44.75 63.35, 5.58 30.17 M74.62 84.88 C55.56 70.35, 35.45 53.54, 7.45 26.49 M74.62 84.88 C51.29 64.57, 26.99 43.81, 7.45 26.49 M77.24 81.86 C62.21 67.72, 45.51 55.76, 9.32 22.82 M77.24 81.86 C58.21 65.04, 38.28 48.93, 9.32 22.82 M79.86 78.84 C57.79 60.35, 33.49 41.67, 11.19 19.14 M79.86 78.84 C54.61 56.29, 29.7 35.76, 11.19 19.14 M83.24 76.48 C57.45 55.59, 31.72 32.54, 13.05 15.47 M83.24 76.48 C66.97 60.42, 50.52 47.88, 13.05 15.47 M85.87 73.46 C61.86 54.44, 36.25 32.96, 16.43 13.1 M85.87 73.46 C70.51 60.84, 56.95 48.88, 16.43 13.1 M88.49 70.44 C63.16 50.1, 40.87 25.51, 19.81 10.74 M88.49 70.44 C64.37 50.37, 41.03 28.87, 19.81 10.74 M90.36 66.77 C67.14 46.63, 40.19 23.57, 23.19 8.38 M90.36 66.77 C69.38 48.63, 49.39 30.38, 23.19 8.38 M91.48 62.44 C72.76 46.57, 53.49 28.82, 26.57 6.02 M91.48 62.44 C77.86 51.86, 65.65 39.56, 26.57 6.02 M91.84 57.45 C77.97 43.89, 65.65 32.4, 30.7 4.31 M91.84 57.45 C75.92 45.39, 61.38 31.09, 30.7 4.31 M92.2 52.46 C70.63 33.5, 50.72 16.55, 34.08 1.95 M92.2 52.46 C75.53 38.45, 61.32 24.55, 34.08 1.95 M93.31 48.13 C79.05 37.22, 65.73 22.63, 38.97 0.9 M93.31 48.13 C79.77 35.98, 65.35 23.57, 38.97 0.9 M93.67 43.15 C77.47 30.55, 64.64 16.81, 45.37 1.16 M93.67 43.15 C77.09 27.86, 59.3 13.06, 45.37 1.16 M91.01 35.53 C82.27 27.35, 75.91 21.48, 51.77 1.42 M91.01 35.53 C77.26 22.64, 63.62 10.59, 51.77 1.42 M88.35 27.92 C80.28 20.17, 70.63 12.27, 57.41 1.02 M88.35 27.92 C78.27 18.77, 68.81 10.4, 57.41 1.02 M84.94 19.66 C79.63 14.86, 77.48 12.96, 70.6 7.19 M84.94 19.66 C80.54 15.32, 75.18 10.7, 70.6 7.19" stroke="#7950f2" stroke-width="0.5" fill="none"></path><path d="M62.16 1.67 C70.11 3.37, 78.3 10.1, 83.54 16.81 C88.79 23.53, 92.55 33.3, 93.64 41.95 C94.72 50.6, 93.64 61.13, 90.05 68.72 C86.47 76.32, 79.39 83.11, 72.12 87.52 C64.85 91.92, 54.96 95.41, 46.42 95.13 C37.87 94.85, 27.92 90.84, 20.86 85.85 C13.8 80.86, 7.42 72.81, 4.07 65.2 C0.71 57.58, -0.57 48.33, 0.73 40.16 C2.03 32, 6.25 22.63, 11.85 16.21 C17.45 9.79, 24.92 3.55, 34.34 1.66 C43.77 -0.24, 61.79 3.62, 68.41 4.82 C75.02 6.03, 74.38 8.21, 74.02 8.88 M41.41 -0.36 C49.59 -1.98, 60.45 1.2, 68.3 4.76 C76.14 8.33, 83.89 13.81, 88.5 21.01 C93.11 28.21, 96.13 39.18, 95.97 47.95 C95.81 56.72, 92.66 66.28, 87.53 73.63 C82.4 80.97, 73.12 88.7, 65.19 92.04 C57.27 95.37, 48.1 95.31, 39.97 93.63 C31.83 91.94, 22.97 87.73, 16.39 81.93 C9.81 76.12, 2.9 67.08, 0.48 58.8 C-1.94 50.51, -0.72 40.2, 1.87 32.21 C4.45 24.22, 9.52 16, 15.99 10.87 C22.47 5.74, 36.52 3.24, 40.72 1.43 C44.92 -0.39, 40.92 -0.55, 41.18 -0.02" stroke="#000000" stroke-width="1" fill="none"></path></g><g stroke-linecap="round" transform="translate(256.00376450419844 165.4362657934562) rotate(0 94.63088304069379 94.63088304069379)"><path d="M16.89 39.86 C16.89 39.86, 16.89 39.86, 16.89 39.86 M16.89 39.86 C16.89 39.86, 16.89 39.86, 16.89 39.86 M12.04 51.54 C19.85 39.67, 32.42 31.4, 44.19 14.56 M12.04 51.54 C20.15 42.49, 26.58 36.17, 44.19 14.56 M7.19 63.22 C20.97 48.87, 30.81 33.27, 51.8 11.9 M7.19 63.22 C20.13 49.14, 32.54 34.59, 51.8 11.9 M2.99 74.15 C14.67 61.99, 28.57 47.99, 59.41 9.24 M2.99 74.15 C23.41 50.66, 44.56 26.73, 59.41 9.24 M2.73 80.55 C21.17 61.68, 36.03 40.74, 67.68 5.83 M2.73 80.55 C27.37 52.67, 53.72 21.98, 67.68 5.83 M3.12 86.19 C17.83 70.28, 32.42 53.9, 75.29 3.17 M3.12 86.19 C25.43 62.27, 45.34 37.72, 75.29 3.17 M2.86 92.59 C31.24 58.32, 60.53 24.32, 80.93 2.78 M2.86 92.59 C20.42 70.79, 38.35 50.17, 80.93 2.78 M2.6 98.98 C21.23 78.58, 39.75 55.78, 86.57 2.38 M2.6 98.98 C29.13 67.76, 54.77 37.8, 86.57 2.38 M2.34 105.38 C21.1 80.98, 42.71 59.14, 91.56 2.74 M2.34 105.38 C27.61 75.69, 52.91 48.01, 91.56 2.74 M2.73 111.03 C31.87 79.46, 56.17 47.47, 97.2 2.35 M2.73 111.03 C35.9 72.36, 70.93 31.23, 97.2 2.35 M4.44 115.16 C36.15 77.33, 69.44 40.98, 102.19 2.71 M4.44 115.16 C37.15 77.25, 68.86 39.78, 102.19 2.71 M5.49 120.05 C41.12 78.89, 75.7 37.64, 107.83 2.31 M5.49 120.05 C33.71 89.23, 60.1 55.57, 107.83 2.31 M7.2 124.18 C33.58 90.71, 64.53 60.86, 112.82 2.67 M7.2 124.18 C43.21 83.74, 79.12 41.44, 112.82 2.67 M8.9 128.31 C35.89 97.03, 57.94 68.89, 117.81 3.03 M8.9 128.31 C39.27 91.54, 70.31 56.63, 117.81 3.03 M10.61 132.45 C32.28 107.84, 56.79 81.88, 121.48 4.9 M10.61 132.45 C33.2 107.84, 56.65 81.73, 121.48 4.9 M12.32 136.58 C45.2 99.37, 76.08 61.63, 125.16 6.77 M12.32 136.58 C45.35 98.33, 78.1 60.95, 125.16 6.77 M14.02 140.72 C49.05 98.81, 84.45 58.15, 128.83 8.64 M14.02 140.72 C56.45 91.45, 100.06 41.47, 128.83 8.64 M15.07 145.6 C56.92 95.27, 101.56 44.41, 132.51 10.51 M15.07 145.6 C46.13 111.84, 74.92 78.07, 132.51 10.51 M18.09 148.23 C60.79 96.78, 106.88 48.61, 136.18 12.38 M18.09 148.23 C48.05 114.56, 76.62 80.48, 136.18 12.38 M20.45 151.61 C44.43 124.17, 73.17 92.36, 140.51 13.5 M20.45 151.61 C63.7 101.67, 106.45 52.41, 140.51 13.5 M23.47 154.23 C63.8 105.9, 106.13 56.7, 144.19 15.36 M23.47 154.23 C67.63 102.96, 111.76 53.03, 144.19 15.36 M25.84 157.61 C61.93 116.47, 97.5 75.88, 147.86 17.23 M25.84 157.61 C56.89 123.8, 85.53 90.11, 147.86 17.23 M28.86 160.23 C56.5 131.23, 80.65 100.44, 150.88 19.86 M28.86 160.23 C56.58 131.16, 83.8 99.67, 150.88 19.86 M31.22 163.61 C68.2 118.33, 108.47 70.85, 153.9 22.48 M31.22 163.61 C77.15 108.87, 125.96 52.36, 153.9 22.48 M34.24 166.24 C80.23 115.09, 123.82 63.55, 156.26 25.86 M34.24 166.24 C63.67 133.27, 93.3 100.56, 156.26 25.86 M36.6 169.62 C61.62 140.96, 89.45 110.6, 159.28 28.49 M36.6 169.62 C79.49 119.87, 122.68 70.53, 159.28 28.49 M39.62 172.24 C85.94 118.64, 136.02 61.76, 162.3 31.11 M39.62 172.24 C64.88 143.18, 90.38 113.06, 162.3 31.11 M43.29 174.11 C79.01 134.19, 113.79 94.28, 164.66 34.49 M43.29 174.11 C79.06 132.9, 114.37 93.6, 164.66 34.49 M46.97 175.98 C81.83 139.51, 112.24 102.82, 167.68 37.11 M46.97 175.98 C77.27 141.15, 106.28 104.78, 167.68 37.11 M50.64 177.85 C78.99 147.21, 105.86 115.93, 170.7 39.74 M50.64 177.85 C79.17 145.76, 108.88 112.04, 170.7 39.74 M54.97 178.96 C101.25 125.34, 145.22 72.22, 173.06 43.12 M54.97 178.96 C83.51 145.42, 115.04 110.54, 173.06 43.12 M58.65 180.83 C81.99 152.73, 106.48 125.31, 175.43 46.5 M58.65 180.83 C91.54 143.24, 123.77 105.27, 175.43 46.5 M62.32 182.7 C103.53 134.69, 142.86 87.78, 177.13 50.63 M62.32 182.7 C89.3 150.89, 116.45 120.44, 177.13 50.63 M66 184.57 C97.97 147.14, 128.1 111.63, 178.84 54.76 M66 184.57 C103.48 141.84, 139.56 99.75, 178.84 54.76 M69.67 186.44 C108.33 139.48, 147.69 95.49, 180.55 58.9 M69.67 186.44 C110.16 139.32, 151.21 91.95, 180.55 58.9 M73.35 188.31 C100.14 157.33, 126.58 131.46, 182.25 63.03 M73.35 188.31 C111.06 145.14, 148.54 101.1, 182.25 63.03 M78.99 187.92 C98.85 163.12, 122.31 139.18, 183.96 67.16 M78.99 187.92 C118.1 145.14, 157.86 99.63, 183.96 67.16 M83.98 188.28 C119.57 149.43, 156.74 107.28, 185.67 71.3 M83.98 188.28 C120.9 146.17, 156.63 102.71, 185.67 71.3 M88.97 188.64 C117.21 155.35, 147.46 119.93, 187.37 75.43 M88.97 188.64 C117.66 155.47, 146.01 121.91, 187.37 75.43 M94.61 188.24 C112.15 166.16, 132.53 142.54, 188.43 80.32 M94.61 188.24 C116.8 163.05, 139.33 138.54, 188.43 80.32 M99.6 188.6 C120.38 164.83, 143.91 137.33, 188.16 86.72 M99.6 188.6 C129.96 150.86, 161.71 115.21, 188.16 86.72 M104.58 188.96 C125.51 163.54, 151.33 136.93, 188.56 92.36 M104.58 188.96 C125.61 164.1, 147.82 137.84, 188.56 92.36 M110.23 188.57 C131.96 167.27, 151.97 143.68, 188.3 98.76 M110.23 188.57 C133.7 161.3, 159.55 132.72, 188.3 98.76 M117.84 185.91 C143 156.22, 165.77 127.75, 188.04 105.16 M117.84 185.91 C131.67 167.88, 147.06 151.77, 188.04 105.16 M126.1 182.5 C147.88 155.75, 169.86 130.7, 187.77 111.55 M126.1 182.5 C143.33 162.56, 159.9 142.65, 187.77 111.55 M134.37 179.08 C151.42 158.44, 169.7 139.79, 186.2 119.46 M134.37 179.08 C147.53 162.46, 162.7 146.89, 186.2 119.46 M142.64 175.67 C156.06 161.58, 167.5 146.21, 180.03 132.65 M142.64 175.67 C154.09 163.36, 164.23 151.02, 180.03 132.65 M168.62 151.88 C170.25 149, 172.6 147.81, 173.87 145.84 M168.62 151.88 C169.92 149.66, 171.64 148.41, 173.87 145.84 M39.67 172.33 C39.67 172.33, 39.67 172.33, 39.67 172.33 M39.67 172.33 C39.67 172.33, 39.67 172.33, 39.67 172.33 M52.11 177.84 C40.06 164.95, 27.41 153.37, 16.64 147 M52.11 177.84 C38.38 165.86, 25.5 155.01, 16.64 147 M65.3 184.01 C47.01 169.34, 32.38 153.07, 13.22 138.74 M65.3 184.01 C47.55 167.88, 29.17 152.75, 13.22 138.74 M75.47 187.55 C53.25 169.8, 33.5 150.7, 10.56 131.13 M75.47 187.55 C54.31 168.34, 30.48 148.67, 10.56 131.13 M81.87 187.81 C63.6 171.44, 48.92 158.95, 7.15 122.86 M81.87 187.81 C56.35 166.09, 33.26 144.8, 7.15 122.86 M87.51 187.41 C63.11 165.18, 38.65 144.17, 4.49 115.25 M87.51 187.41 C59.23 164.49, 31.36 139.31, 4.49 115.25 M93.91 187.68 C58.56 157.44, 25.71 123.86, 2.59 108.29 M93.91 187.68 C72.48 169.32, 50.28 149.46, 2.59 108.29 M100.31 187.94 C72.61 163.92, 46.48 142.78, 2.19 102.65 M100.31 187.94 C72.11 162.64, 44.38 138.32, 2.19 102.65 M106.7 188.2 C67.37 151.39, 24.2 114.84, 2.55 97.66 M106.7 188.2 C79.05 163.64, 50.97 139.63, 2.55 97.66 M112.35 187.8 C88.96 168.43, 68.26 147.31, 2.16 92.02 M112.35 187.8 C85.06 163.14, 56.26 139.25, 2.16 92.02 M116.48 186.1 C83.5 155.85, 48.24 125.76, 2.52 87.03 M116.48 186.1 C71.6 146.91, 28.52 110.06, 2.52 87.03 M120.61 184.39 C76.78 144.98, 32.16 110.89, 2.88 82.05 M120.61 184.39 C74.89 144.16, 27.1 103.96, 2.88 82.05 M124.75 182.68 C80.78 145.2, 34.04 106.7, 2.49 76.4 M124.75 182.68 C76.88 143.63, 30.36 103.74, 2.49 76.4 M128.88 180.98 C102.38 158.23, 74.74 135.15, 3.6 72.07 M128.88 180.98 C84.52 141.73, 38.52 102.28, 3.6 72.07 M133.02 179.27 C89.7 142.94, 44.12 102.26, 5.47 68.4 M133.02 179.27 C101.98 154.23, 72.53 128.33, 5.47 68.4 M137.15 177.56 C97.05 142.58, 54.27 109.57, 6.58 64.07 M137.15 177.56 C95.67 141.92, 53.42 105.61, 6.58 64.07 M141.28 175.86 C112.89 149.43, 83.43 123.77, 8.45 60.39 M141.28 175.86 C97.55 136.78, 51.73 97.53, 8.45 60.39 M144.66 173.49 C90.82 127.26, 39.45 80.86, 10.32 56.72 M144.66 173.49 C100.03 134.43, 53.5 94.84, 10.32 56.72 M148.04 171.13 C117.58 145.04, 91.01 120.31, 11.44 52.38 M148.04 171.13 C108.45 137.5, 69.3 102.12, 11.44 52.38 M151.42 168.77 C105.63 129.22, 57.39 88, 13.31 48.71 M151.42 168.77 C99.29 122.76, 45.77 76.34, 13.31 48.71 M154.04 165.75 C98.24 117.2, 44.86 69.43, 15.18 45.03 M154.04 165.75 C115.99 133.42, 79.68 102.52, 15.18 45.03 M156.67 162.73 C105.88 118.84, 53.46 73.24, 17.05 41.36 M156.67 162.73 C109.02 123.8, 63.61 84.33, 17.05 41.36 M160.05 160.37 C117.91 125, 79.1 85.75, 18.92 37.69 M160.05 160.37 C120.13 125.12, 79.98 91.54, 18.92 37.69 M162.67 157.35 C125.53 126.75, 89.26 93.77, 22.3 35.32 M162.67 157.35 C116.03 116.18, 67.27 74.09, 22.3 35.32 M165.3 154.33 C124.89 120.35, 87.23 89.99, 24.92 32.3 M165.3 154.33 C119.54 113.05, 72.11 71.73, 24.92 32.3 M168.67 151.97 C126.43 113.34, 80.2 76.45, 27.54 29.28 M168.67 151.97 C127.44 115.35, 83.8 78.78, 27.54 29.28 M171.3 148.95 C124.14 107.06, 72.02 65.28, 30.92 26.92 M171.3 148.95 C140.8 119.58, 108.71 93.05, 30.92 26.92 M173.17 145.27 C143.23 120.66, 116.95 96.2, 33.55 23.9 M173.17 145.27 C119.63 96.79, 63.09 48.55, 33.55 23.9 M175.04 141.6 C120.3 96.79, 65.79 49.32, 36.93 21.54 M175.04 141.6 C125.4 97.23, 73.76 52.82, 36.93 21.54 M176.91 137.92 C131.76 97.76, 83.8 57.11, 39.55 18.52 M176.91 137.92 C134.8 102.81, 94.14 64.8, 39.55 18.52 M178.78 134.25 C141.93 96.96, 101.8 61.83, 42.93 16.16 M178.78 134.25 C129.88 92.9, 79.25 49.33, 42.93 16.16 M180.65 130.57 C145.04 95.79, 107.44 63.03, 46.31 13.8 M180.65 130.57 C151.9 105.38, 123.45 78.48, 46.31 13.8 M182.52 126.9 C152.6 100.62, 125.44 73.55, 50.44 12.09 M182.52 126.9 C151.06 99.9, 122.21 73.35, 50.44 12.09 M184.39 123.22 C144.19 86.05, 101.8 50.54, 54.58 10.38 M184.39 123.22 C156.64 97.96, 128.06 73.9, 54.58 10.38 M185.5 118.89 C138.97 76.48, 90.89 37.07, 58.71 8.68 M185.5 118.89 C137.14 76.19, 87.58 31.76, 58.71 8.68 M187.37 115.22 C147.27 79.94, 105.01 43.59, 62.84 6.97 M187.37 115.22 C150.76 82.78, 111.7 49.01, 62.84 6.97 M187.73 110.23 C160.6 87.21, 135.25 64.51, 67.73 5.92 M187.73 110.23 C156.25 83.79, 125 57.28, 67.73 5.92 M188.09 105.24 C156.03 78.38, 121.29 48.6, 71.86 4.21 M188.09 105.24 C143.05 67.79, 98.99 29.62, 71.86 4.21 M187.7 99.6 C162.05 75.93, 137.52 54.7, 76 2.5 M187.7 99.6 C159.29 76.22, 131.23 51.25, 76 2.5 M188.06 94.61 C149.29 63.19, 112.23 27.5, 80.89 1.45 M188.06 94.61 C164.44 72.16, 139.67 51, 80.89 1.45 M188.42 89.63 C156.11 59.42, 120.05 29.69, 87.28 1.72 M188.42 89.63 C167.48 71.06, 145.24 53.24, 87.28 1.72 M188.02 83.98 C168.38 64.54, 146.95 48.93, 93.68 1.98 M188.02 83.98 C153.08 52.77, 118.94 22.09, 93.68 1.98 M188.38 79 C155.11 51.2, 123.16 21.07, 99.33 1.58 M188.38 79 C157.21 50.09, 124.91 24.37, 99.33 1.58 M186.48 72.04 C161.96 51.56, 137.69 30.5, 105.72 1.84 M186.48 72.04 C154.41 44.21, 122.32 16.08, 105.72 1.84 M183.06 63.78 C157.3 41.22, 135.55 22.91, 111.37 1.45 M183.06 63.78 C161.26 43.72, 137.98 24.26, 111.37 1.45 M179.65 55.51 C169.22 43.82, 156.29 34.46, 119.27 3.02 M179.65 55.51 C166.56 43.36, 152.08 31.54, 119.27 3.02 M176.24 47.24 C162.49 33.55, 148.51 20.61, 132.46 9.19 M176.24 47.24 C160.79 33.89, 147.47 22.22, 132.46 9.19 M150.94 19.95 C149.62 19.07, 148.68 16.9, 145.65 15.35 M150.94 19.95 C149.23 19.06, 147.87 17.27, 145.65 15.35" stroke="#7950f2" stroke-width="0.5" fill="none"></path><path d="M115.1 1.89 C126.43 3.11, 138.53 10.34, 148.48 17.47 C158.43 24.61, 168.19 34.58, 174.8 44.71 C181.4 54.84, 186.03 66.39, 188.1 78.25 C190.17 90.12, 189.9 104.19, 187.24 115.91 C184.57 127.62, 179.05 138.86, 172.09 148.53 C165.14 158.19, 155.71 167.22, 145.5 173.9 C135.29 180.58, 122.87 186.32, 110.85 188.62 C98.83 190.92, 85.3 190.48, 73.38 187.72 C61.46 184.96, 49.06 179.11, 39.34 172.04 C29.62 164.97, 21.27 155.51, 15.06 145.29 C8.85 135.08, 4.18 122.68, 2.11 110.75 C0.04 98.82, 0.15 85.54, 2.64 73.7 C5.12 61.86, 10.16 49.53, 17.02 39.72 C23.88 29.91, 33.63 21.16, 43.79 14.86 C53.95 8.56, 65.1 3.68, 77.97 1.94 C90.83 0.2, 113.19 3.4, 120.98 4.42 C128.78 5.44, 125.18 6.6, 124.72 8.08 M103.25 -0.04 C115.09 -0.81, 128.71 4.63, 139.19 10.11 C149.67 15.59, 158.52 23.62, 166.12 32.82 C173.72 42.03, 181.14 53.66, 184.81 65.35 C188.48 77.05, 189.25 90.6, 188.11 102.99 C186.97 115.39, 183.47 129.23, 177.96 139.74 C172.45 150.25, 164.18 158.58, 155.05 166.05 C145.91 173.51, 134.46 180.61, 123.16 184.54 C111.87 188.46, 99.24 190.4, 87.27 189.59 C75.3 188.77, 62.21 185.54, 51.35 179.65 C40.49 173.76, 30.04 163.75, 22.11 154.24 C14.18 144.73, 7.63 134.12, 3.79 122.58 C-0.05 111.05, -2 97.09, -0.91 85.01 C0.17 72.93, 4.34 60.65, 10.32 50.1 C16.3 39.55, 25.44 29.38, 34.97 21.71 C44.49 14.05, 55.9 7.54, 67.46 4.12 C79.03 0.7, 98.6 1.67, 104.38 1.21 C110.16 0.75, 102.63 -0.27, 102.14 1.38" stroke="#000000" stroke-width="1" fill="none"></path></g><g stroke-linecap="round" transform="translate(310.4334023125125 289.9663858550466) rotate(0 63.087255360462564 63.08725536046268)"><path d="M18.69 17.57 C18.69 17.57, 18.69 17.57, 18.69 17.57 M18.69 17.57 C18.69 17.57, 18.69 17.57, 18.69 17.57 M7.93 36.04 C17.24 25.8, 21.86 19.43, 28.92 11.89 M7.93 36.04 C13.38 28.49, 19.9 21.93, 28.92 11.89 M5.05 45.46 C12.18 33.03, 23.54 26.03, 39.82 5.46 M5.05 45.46 C11.72 37.25, 18.03 29.75, 39.82 5.46 M4.78 51.86 C16.16 38.9, 26.59 26.73, 46.12 4.31 M4.78 51.86 C15.44 37.72, 28.8 24.6, 46.12 4.31 M4.52 58.26 C22.94 37.11, 39.34 16.37, 51.1 4.67 M4.52 58.26 C20.83 38.09, 38.75 20.48, 51.1 4.67 M4.26 64.65 C24.11 44.86, 38.21 22.73, 56.75 4.28 M4.26 64.65 C22.21 42.57, 41.82 20.73, 56.75 4.28 M4 71.05 C23.94 47.26, 42.92 26.49, 62.39 3.88 M4 71.05 C25.02 49.21, 43.01 25.3, 62.39 3.88 M4.39 76.7 C21.11 58.59, 40.81 36.16, 68.03 3.49 M4.39 76.7 C23.23 54.77, 42.88 32.68, 68.03 3.49 M6.1 80.83 C29.55 54.22, 54.55 28.59, 73.02 3.85 M6.1 80.83 C20.66 63.62, 37.21 45, 73.02 3.85 M7.81 84.96 C21.63 66.75, 36.55 49.83, 78.01 4.21 M7.81 84.96 C24.01 66.65, 40.08 49.31, 78.01 4.21 M9.51 89.1 C34.03 64.19, 55.15 35.59, 81.68 6.08 M9.51 89.1 C37.81 57.6, 66.23 25.3, 81.68 6.08 M11.22 93.23 C31.92 69.26, 51.98 46.17, 85.36 7.95 M11.22 93.23 C28.88 74.99, 44.34 55.41, 85.36 7.95 M13.58 96.61 C31.71 75.86, 50.07 55.5, 89.69 9.06 M13.58 96.61 C42.84 64.59, 71.47 30.51, 89.69 9.06 M13.98 102.25 C31.26 82.47, 47.63 63.55, 93.36 10.93 M13.98 102.25 C39.53 72.1, 68.14 41.55, 93.36 10.93 M17 104.88 C37.12 82.37, 59.15 59.31, 97.04 12.8 M17 104.88 C34.64 84.1, 54.27 61.31, 97.04 12.8 M20.02 107.5 C46.92 71.18, 77.17 37.05, 101.37 13.92 M20.02 107.5 C47.86 75.39, 76.13 42.93, 101.37 13.92 M23.03 110.12 C51.84 77.26, 79.74 45.07, 105.04 15.79 M23.03 110.12 C43.43 87.23, 62.77 63.44, 105.04 15.79 M26.05 112.75 C49.59 88.29, 70.03 62.83, 107.41 19.17 M26.05 112.75 C56.38 79.05, 84.8 43.98, 107.41 19.17 M29.73 114.62 C48.4 91.18, 69.07 70.79, 109.77 22.54 M29.73 114.62 C56.59 83.9, 81.96 53.85, 109.77 22.54 M32.75 117.24 C51.47 93.31, 71.86 71.22, 112.79 25.17 M32.75 117.24 C54.22 93.04, 76.38 66.84, 112.79 25.17 M35.77 119.87 C66.52 83.17, 96.62 48.87, 115.15 28.55 M35.77 119.87 C55.9 98.38, 75.22 75.53, 115.15 28.55 M38.79 122.49 C62.5 97.05, 83.9 70.83, 117.51 31.93 M38.79 122.49 C61.95 94.67, 85.75 69.53, 117.51 31.93 M43.12 123.61 C62.3 98.5, 83.93 77.54, 119.87 35.31 M43.12 123.61 C59.23 104.47, 76.75 85.15, 119.87 35.31 M47.45 124.72 C69.33 96.42, 93.32 71.26, 122.24 38.68 M47.45 124.72 C75.61 92.93, 104.05 58.26, 122.24 38.68 M51.78 125.84 C79.03 99.38, 101.53 67.26, 122.63 44.33 M51.78 125.84 C76.33 99.08, 98.81 72.32, 122.63 44.33 M56.77 126.2 C74.9 102.64, 94.68 81.17, 123.68 49.22 M56.77 126.2 C73.01 105.77, 91.71 85.38, 123.68 49.22 M61.1 127.31 C82.99 102.74, 104.08 78.11, 124.73 54.1 M61.1 127.31 C79.55 107.36, 96.85 85.9, 124.73 54.1 M66.74 126.92 C86.09 100.73, 111.8 75.38, 125.78 58.99 M66.74 126.92 C90 99.54, 112.99 73.55, 125.78 58.99 M73.69 125.01 C88.21 107.6, 103.12 91.61, 126.84 63.88 M73.69 125.01 C85.21 110.09, 97.8 98, 126.84 63.88 M80.65 123.11 C94.71 107.25, 111.74 90.11, 127.89 68.77 M80.65 123.11 C98.23 102.44, 116.18 82.23, 127.89 68.77 M88.26 120.45 C98.1 107.57, 109.18 93.69, 125 78.19 M88.26 120.45 C102.91 104.16, 116.65 88.73, 125 78.19 M95.87 117.79 C103.1 110.56, 111.03 98.69, 122.11 87.6 M95.87 117.79 C104.66 106.23, 115.41 94.53, 122.11 87.6 M13.57 101.75 C13.57 101.75, 13.57 101.75, 13.57 101.75 M13.57 101.75 C13.57 101.75, 13.57 101.75, 13.57 101.75 M42.61 121.69 C34.76 113.25, 24.65 104.08, 10.16 93.48 M42.61 121.69 C30.38 111.59, 18.76 100.82, 10.16 93.48 M50.52 123.27 C40.2 115.99, 31.38 107.33, 5.99 84.56 M50.52 123.27 C40.53 114.5, 29.96 105.51, 5.99 84.56 M58.43 124.84 C46.52 115.11, 32.93 103.94, 2.58 76.29 M58.43 124.84 C39.86 107.55, 21.59 91.14, 2.58 76.29 M66.34 126.42 C42.44 105.92, 17.38 86.01, 2.18 70.65 M66.34 126.42 C48.92 110.68, 30.67 95.93, 2.18 70.65 M71.22 125.37 C48.17 106.86, 28.49 91.45, 2.55 65.66 M71.22 125.37 C44.1 101.65, 16.58 78.96, 2.55 65.66 M75.36 123.66 C49.55 100.74, 22.6 78.1, 2.91 60.68 M75.36 123.66 C57.14 106.63, 37.68 91.26, 2.91 60.68 M80.25 122.61 C59.96 105.52, 39.63 87.03, 3.27 55.69 M80.25 122.61 C58.33 103.77, 36.18 84.16, 3.27 55.69 M84.38 120.9 C60.61 99.53, 38.34 78.72, 3.63 50.7 M84.38 120.9 C53.59 93.7, 21.56 67.19, 3.63 50.7 M89.27 119.85 C63.35 98.34, 33.88 71.07, 3.99 45.72 M89.27 119.85 C63.68 96.29, 36.65 74.45, 3.99 45.72 M93.4 118.14 C62.64 90.09, 28.21 61.89, 5.1 41.38 M93.4 118.14 C61.68 89.56, 31.38 63.95, 5.1 41.38 M97.53 116.44 C70.95 90.77, 40.43 68.88, 6.97 37.71 M97.53 116.44 C61.08 86.09, 26.19 54.34, 6.97 37.71 M100.16 113.42 C82.34 97.22, 61.13 77, 8.84 34.03 M100.16 113.42 C66.81 84.78, 33.35 54.77, 8.84 34.03 M102.78 110.4 C74.53 84.79, 45.06 58.51, 10.71 30.36 M102.78 110.4 C77.21 88.95, 52.2 66.02, 10.71 30.36 M105.41 107.38 C73.9 77.01, 38.37 48.69, 13.33 27.34 M105.41 107.38 C75.61 80.61, 45.72 55.49, 13.33 27.34 M108.03 104.36 C81.55 82.01, 55.26 57.99, 15.2 23.67 M108.03 104.36 C81.7 81.23, 53.85 58.4, 15.2 23.67 M111.41 102 C85.1 77.15, 55.76 53.78, 17.07 19.99 M111.41 102 C88.19 82.32, 65.84 60.87, 17.07 19.99 M114.04 98.98 C95.2 83.36, 76.63 63.59, 19.7 16.97 M114.04 98.98 C80.1 68.34, 45.48 40.01, 19.7 16.97 M116.66 95.96 C96.28 76.19, 73.87 56.72, 23.08 14.61 M116.66 95.96 C95.99 76.46, 74 57.47, 23.08 14.61 M118.53 92.29 C91.84 67.06, 64.5 44.19, 27.21 12.9 M118.53 92.29 C97.32 73.77, 74.7 54.56, 27.21 12.9 M119.64 87.96 C87.82 59, 55 33.49, 30.59 10.54 M119.64 87.96 C92.63 63.99, 65.85 40.39, 30.59 10.54 M120.76 83.62 C99.56 67.38, 77.25 45.62, 33.97 8.18 M120.76 83.62 C98.31 64.67, 77.17 45.23, 33.97 8.18 M121.87 79.29 C103.29 63.58, 84.77 45.73, 38.1 6.47 M121.87 79.29 C91.51 50.85, 58.33 24.14, 38.1 6.47 M123.74 75.62 C91.36 46.76, 62.12 21.42, 41.48 4.11 M123.74 75.62 C94.39 49.82, 64.81 23.57, 41.48 4.11 M124.86 71.29 C102.13 53.58, 78.9 33.93, 45.61 2.4 M124.86 71.29 C103.59 51.45, 81.24 34.1, 45.61 2.4 M125.97 66.96 C107.37 49.99, 88.89 34.32, 51.26 2.01 M125.97 66.96 C102.73 47.14, 80.11 26.95, 51.26 2.01 M125.58 61.31 C100.51 40.49, 76.58 21.2, 57.65 2.27 M125.58 61.31 C103.56 42.23, 81.17 23.81, 57.65 2.27 M124.43 55.01 C109.32 41.18, 89.69 24.18, 63.3 1.87 M124.43 55.01 C110.43 43.78, 95.65 30.69, 63.3 1.87 M123.28 48.72 C114.06 39.45, 100.27 30.93, 68.94 1.48 M123.28 48.72 C105.51 31.76, 86.42 16.26, 68.94 1.48 M122.13 42.42 C107.48 29.77, 91.28 12.53, 75.34 1.74 M122.13 42.42 C107.1 30.63, 92.88 17.76, 75.34 1.74 M118.72 34.15 C108.84 24.46, 97 16.7, 87.02 6.59 M118.72 34.15 C110.23 26.63, 101.74 19.47, 87.02 6.59 M107 18.66 C103.17 16.36, 101.81 12.51, 98.7 11.45 M107 18.66 C104.71 16.69, 102.73 14.69, 98.7 11.45" stroke="#7950f2" stroke-width="0.5" fill="none"></path><path d="M43.98 2.95 C52.67 -0.47, 65.24 0.04, 75 1.78 C84.75 3.52, 94.82 7.37, 102.49 13.41 C110.16 19.45, 117.09 29.15, 121.04 38.02 C124.98 46.89, 126.79 57.07, 126.15 66.62 C125.5 76.17, 122.27 86.76, 117.17 95.32 C112.06 103.89, 104.02 112.75, 95.5 118 C86.98 123.25, 75.96 126.42, 66.07 126.84 C56.17 127.26, 44.85 124.71, 36.11 120.53 C27.36 116.36, 19.35 109.52, 13.61 101.78 C7.87 94.04, 3.41 83.75, 1.69 74.09 C-0.03 64.43, 0.49 53.2, 3.29 43.82 C6.08 34.45, 10.1 24.99, 18.46 17.84 C26.82 10.68, 46.11 3.57, 53.44 0.9 C60.76 -1.77, 62.17 0.69, 62.39 1.82 M39.59 5.1 C47.37 0.91, 57.85 0.96, 67.45 1.71 C77.05 2.47, 88.7 4.71, 97.21 9.63 C105.71 14.56, 113.87 22.89, 118.47 31.25 C123.08 39.61, 124.66 50.1, 124.85 59.79 C125.05 69.48, 123.81 80.44, 119.63 89.4 C115.45 98.35, 107.68 107.35, 99.78 113.53 C91.88 119.71, 81.79 125.16, 72.24 126.46 C62.7 127.77, 51.59 124.81, 42.5 121.38 C33.41 117.95, 24.17 112.65, 17.7 105.89 C11.23 99.13, 6.25 89.93, 3.67 80.81 C1.09 71.7, 0.34 61.02, 2.21 51.2 C4.07 41.38, 8.8 29.62, 14.84 21.87 C20.88 14.13, 34.56 7.56, 38.43 4.75 C42.3 1.95, 37.67 4.16, 38.06 5.07" stroke="#000000" stroke-width="1" fill="none"></path></g><g stroke-linecap="round" transform="translate(624.2253490041983 389.3288653756854) rotate(0 47.315441520346894 47.31544152034712)"><path d="M14.22 13.69 C14.22 13.69, 14.22 13.69, 14.22 13.69 M14.22 13.69 C14.22 13.69, 14.22 13.69, 14.22 13.69 M6.08 29.14 C12.36 22.27, 19.09 14.62, 23.8 8.76 M6.08 29.14 C11.21 21.72, 18.18 15.36, 23.8 8.76 M1.89 40.07 C11.01 28.8, 22.1 13.56, 33.38 3.84 M1.89 40.07 C12.07 27.57, 25.14 13.22, 33.38 3.84 M2.28 45.71 C14.98 29.23, 28.92 15.96, 40.33 1.94 M2.28 45.71 C11.66 34.63, 21.24 24.85, 40.33 1.94 M2.68 51.35 C16.43 35.74, 32.37 18.91, 45.32 2.3 M2.68 51.35 C18.94 31.78, 35.52 12.82, 45.32 2.3 M3.07 56.99 C13.61 44.61, 29.05 29.18, 50.31 2.66 M3.07 56.99 C16.58 40.65, 28.78 27.37, 50.31 2.66 M3.47 62.64 C21.26 41.13, 39.93 21.97, 55.95 2.26 M3.47 62.64 C16.51 46.36, 31.28 31.29, 55.95 2.26 M5.17 66.77 C19.11 50.62, 28.69 37.72, 60.94 2.62 M5.17 66.77 C19.44 52.37, 31.53 36.63, 60.94 2.62 M7.53 70.15 C20.33 56.03, 32.31 42.9, 65.27 3.74 M7.53 70.15 C25.66 50.38, 44.22 28.17, 65.27 3.74 M9.9 73.53 C31.05 51.07, 49.93 26.15, 68.29 6.36 M9.9 73.53 C31.2 48.52, 52.97 22.84, 68.29 6.36 M12.26 76.91 C25.78 61.89, 40.82 46.08, 71.31 8.98 M12.26 76.91 C26.68 60.5, 39.24 45.6, 71.31 8.98 M14.62 80.29 C32.76 61.72, 49.72 39.88, 74.98 10.85 M14.62 80.29 C37.05 54.21, 59.92 27.61, 74.98 10.85 M16.99 83.67 C34.65 62.98, 50.42 45.17, 78 13.48 M16.99 83.67 C34.23 64.22, 51.43 46.07, 78 13.48 M20 86.29 C33.79 71.25, 44.23 56.25, 81.02 16.1 M20 86.29 C43.03 59.4, 66.61 33.31, 81.02 16.1 M24.34 87.41 C49.37 62.07, 74.49 31.94, 84.04 18.73 M24.34 87.41 C37.64 73.27, 50.69 56.54, 84.04 18.73 M28.01 89.27 C50.31 65.65, 68.94 44.17, 86.4 22.11 M28.01 89.27 C48.7 63.84, 70.7 39.59, 86.4 22.11 M31.69 91.14 C50.08 70.83, 67.64 50.91, 88.11 26.24 M31.69 91.14 C43.06 77.47, 54.9 63.55, 88.11 26.24 M36.02 92.26 C51.6 73.53, 65.42 56.37, 89.81 30.37 M36.02 92.26 C46.83 79.7, 57.17 67.4, 89.81 30.37 M39.69 94.13 C56.38 74.59, 70.21 56.55, 91.52 34.51 M39.69 94.13 C56.15 75.24, 73.94 56.45, 91.52 34.51 M43.37 96 C55.22 80.8, 67.89 64.13, 93.23 38.64 M43.37 96 C59.59 76.65, 76.82 57.48, 93.23 38.64 M50.32 94.09 C62.41 80.94, 71.1 71.17, 94.28 43.53 M50.32 94.09 C66.39 74.8, 83.64 54.43, 94.28 43.53 M56.62 92.95 C67.13 82.11, 75.92 69.69, 94.02 49.93 M56.62 92.95 C68.18 79.8, 79.3 66.47, 94.02 49.93 M62.92 91.8 C67.8 85.54, 76.88 75.43, 91.79 58.59 M62.92 91.8 C73.36 79.08, 85.92 66.16, 91.79 58.59 M69.88 89.89 C77.45 80.51, 85.88 74.07, 90.21 66.5 M69.88 89.89 C74.86 82.96, 81.44 77.72, 90.21 66.5 M17.68 84.84 C17.68 84.84, 17.68 84.84, 17.68 84.84 M17.68 84.84 C17.68 84.84, 17.68 84.84, 17.68 84.84 M29.36 89.69 C23.58 86.89, 20.05 81.69, 8.98 71.98 M29.36 89.69 C23.07 84.06, 17.14 79.71, 8.98 71.98 M41.04 94.55 C30.49 84.13, 19.72 76.82, 4.06 62.4 M41.04 94.55 C30.7 85.66, 19.84 76.96, 4.06 62.4 M45.17 92.84 C33.89 82.63, 23.46 75.19, 3.66 56.76 M45.17 92.84 C35.42 82.36, 24.4 73.19, 3.66 56.76 M50.06 91.79 C36.83 80.38, 24.64 69.59, 3.27 51.11 M50.06 91.79 C37.14 80.52, 23.44 69.38, 3.27 51.11 M54.95 90.74 C37.8 76.77, 20.11 59.95, 3.63 46.13 M54.95 90.74 C39.35 77.94, 23.4 62.31, 3.63 46.13 M59.84 89.69 C44.42 77.9, 31.76 64.97, 3.23 40.48 M59.84 89.69 C41.85 73.53, 25.39 58.71, 3.23 40.48 M64.73 88.64 C44.59 70, 21.43 49.64, 3.59 35.5 M64.73 88.64 C47.87 74.11, 32.37 60.87, 3.59 35.5 M71.12 88.9 C46.83 67.45, 21.71 46.94, 5.46 31.82 M71.12 88.9 C55.83 74.86, 40.19 60.42, 5.46 31.82 M73.75 85.88 C51.29 66.84, 25.47 45.02, 7.33 28.15 M73.75 85.88 C56.98 72.36, 39.39 57.06, 7.33 28.15 M76.37 82.86 C50.2 59.52, 22.46 34.7, 9.2 24.47 M76.37 82.86 C55.34 64.21, 33.84 44.74, 9.2 24.47 M79 79.84 C51.95 56.65, 25.36 33.72, 11.07 20.8 M79 79.84 C58.04 62.09, 36.97 43.83, 11.07 20.8 M81.62 76.82 C57.35 58.01, 33.77 38.44, 12.94 17.12 M81.62 76.82 C54.22 53.79, 27.58 29.36, 12.94 17.12 M84.25 73.8 C58.1 49.44, 32.19 28.24, 14.81 13.45 M84.25 73.8 C58.55 51.12, 35.02 30.91, 14.81 13.45 M87.62 71.44 C69.6 56.36, 54.61 42.77, 18.19 11.08 M87.62 71.44 C63.47 52.08, 40.07 30.09, 18.19 11.08 M90.25 68.42 C70.83 51.89, 54.75 37, 22.32 9.38 M90.25 68.42 C74.49 54.3, 57.94 39.97, 22.32 9.38 M91.36 64.09 C77.87 48.23, 60.73 36.1, 26.46 7.67 M91.36 64.09 C77.36 51.46, 62.98 40.09, 26.46 7.67 M91.72 59.1 C75.26 43.14, 59.1 29.42, 29.84 5.31 M91.72 59.1 C74.14 43.42, 54.2 27.93, 29.84 5.31 M92.84 54.77 C75.79 39.52, 61.55 28.85, 33.97 3.6 M92.84 54.77 C76.57 40.83, 59.85 26.55, 33.97 3.6 M93.95 50.44 C78.79 38.92, 68.72 26.83, 38.1 1.89 M93.95 50.44 C72.63 32.88, 53.35 16.25, 38.1 1.89 M95.07 46.11 C78.66 31.54, 60.56 15.43, 44.5 2.15 M95.07 46.11 C85.12 36.45, 72.32 27.58, 44.5 2.15 M96.18 41.78 C83.02 30.64, 68.26 19.68, 50.9 2.42 M96.18 41.78 C87.15 34.14, 77.59 25.56, 50.9 2.42 M93.52 34.17 C84.73 25.57, 73.54 18.65, 57.3 2.68 M93.52 34.17 C82.12 24.43, 71.55 16.07, 57.3 2.68 M90.11 25.9 C79.75 19.78, 73.46 11.45, 63.7 2.94 M90.11 25.9 C84.07 20.71, 77.13 14.08, 63.7 2.94" stroke="#228be6" stroke-width="0.5" fill="none"></path><path d="M37.73 1.71 C45.67 -0.69, 56.35 -0.15, 64.34 2.85 C72.32 5.85, 80.59 12.91, 85.64 19.7 C90.69 26.49, 94.08 35.29, 94.64 43.6 C95.19 51.91, 93.11 61.85, 88.98 69.54 C84.84 77.23, 77.45 85.44, 69.81 89.72 C62.18 94.01, 51.82 96.03, 43.17 95.25 C34.53 94.48, 24.61 90.35, 17.96 85.08 C11.31 79.82, 5.96 71.67, 3.28 63.65 C0.6 55.63, 0.01 45.31, 1.86 36.95 C3.71 28.59, 7.93 19.65, 14.39 13.49 C20.84 7.34, 35.64 2.09, 40.58 0.05 C45.52 -2, 43.96 0.3, 44.02 1.24 M52.75 0.27 C60.81 0.55, 70.64 4.71, 76.95 10.15 C83.26 15.59, 87.88 25, 90.61 32.92 C93.34 40.83, 94.96 49.71, 93.31 57.63 C91.66 65.56, 87.05 74.7, 80.73 80.49 C74.4 86.28, 63.85 90.76, 55.38 92.37 C46.91 93.98, 37.75 93.07, 29.9 90.14 C22.05 87.2, 13.3 81.28, 8.26 74.76 C3.23 68.23, 0.04 59.68, -0.32 50.99 C-0.69 42.31, 1.72 30.32, 6.07 22.65 C10.42 14.98, 18 8.59, 25.78 4.97 C33.56 1.34, 48.35 1.33, 52.75 0.9 C57.14 0.48, 52.39 1.89, 52.14 2.41" stroke="#000000" stroke-width="1" fill="none"></path></g><g stroke-linecap="round" transform="translate(546.9098221652175 10) rotate(0 78.85906920057823 78.85906920057823)"><path d="M25.96 21.24 C25.96 21.24, 25.96 21.24, 25.96 21.24 M25.96 21.24 C25.96 21.24, 25.96 21.24, 25.96 21.24 M6.01 50.28 C19.27 38.71, 28.07 21.78, 36.85 14.81 M6.01 50.28 C16.26 39.53, 25.89 27.24, 36.85 14.81 M4.44 58.19 C11.82 46.27, 21.61 37.57, 47.74 8.37 M4.44 58.19 C14.4 46.67, 22.66 35.21, 47.74 8.37 M2.87 66.09 C23.97 44.64, 42.52 21.05, 56.01 4.96 M2.87 66.09 C19.52 47.3, 36.01 26.79, 56.01 4.96 M1.29 74 C24.22 45.26, 50.4 19.35, 62.31 3.81 M1.29 74 C14.41 58.61, 25.27 44.87, 62.31 3.81 M0.38 81.15 C16.75 62.86, 34.34 41.33, 68.61 2.66 M0.38 81.15 C16.58 61.14, 35.76 41.55, 68.61 2.66 M1.43 86.04 C16.29 67.89, 32.16 51.74, 74.25 2.27 M1.43 86.04 C26.1 57.64, 51.54 28.09, 74.25 2.27 M2.48 90.93 C25.05 64.3, 47.52 38.88, 80.55 1.12 M2.48 90.93 C32.81 55.5, 62.11 21.49, 80.55 1.12 M3.53 95.82 C30.67 66.25, 54.3 36.45, 86.85 -0.03 M3.53 95.82 C27.78 69.17, 52.61 40.92, 86.85 -0.03 M4.58 100.71 C30.3 68.33, 60.87 37.4, 90.52 1.84 M4.58 100.71 C29.82 70.96, 54.91 43.36, 90.52 1.84 M5.63 105.59 C40.53 67.19, 73.17 28.56, 94.85 2.95 M5.63 105.59 C31.67 74.55, 59.2 45.28, 94.85 2.95 M6.68 110.48 C24.87 87.75, 43.78 67.31, 98.53 4.82 M6.68 110.48 C29.66 80.77, 54.68 53.99, 98.53 4.82 M9.04 113.86 C35 88.2, 57.85 60.54, 102.86 5.94 M9.04 113.86 C36.71 81, 62.46 50.71, 102.86 5.94 M11.41 117.24 C45.54 75.59, 83.48 33.51, 107.19 7.05 M11.41 117.24 C49.51 74.18, 85.69 32.11, 107.19 7.05 M13.77 120.62 C41.08 92.02, 63.28 59.23, 110.86 8.92 M13.77 120.62 C37.7 94.07, 60.26 68.02, 110.86 8.92 M16.13 124 C44.92 89.24, 77.36 52.67, 115.2 10.04 M16.13 124 C43.91 92.35, 72.21 60.38, 115.2 10.04 M19.15 126.62 C42.01 99.47, 69.66 71.3, 118.87 11.91 M19.15 126.62 C53.7 87.17, 88.22 48.62, 118.87 11.91 M21.51 130 C47.01 100.23, 70.26 72.46, 121.89 14.53 M21.51 130 C50.22 96.25, 80.84 61.12, 121.89 14.53 M23.88 133.38 C58 97.66, 88.68 58.89, 124.91 17.16 M23.88 133.38 C49.77 102.33, 76.21 72.57, 124.91 17.16 M26.24 136.76 C53.83 106.52, 78.43 76.08, 127.93 19.78 M26.24 136.76 C60.89 96.94, 96 58.43, 127.93 19.78 M29.26 139.38 C64.23 98.08, 99.87 60.03, 131.6 21.65 M29.26 139.38 C61.59 103.12, 94.45 64.02, 131.6 21.65 M32.93 141.25 C73.11 95.32, 109.2 50.67, 134.62 24.27 M32.93 141.25 C59.24 110.06, 84.88 80.13, 134.62 24.27 M36.61 143.12 C58.33 116.04, 80.13 88.35, 137.64 26.9 M36.61 143.12 C62.34 113.32, 86.92 85.57, 137.64 26.9 M40.28 144.99 C71.41 107.67, 106.46 73.55, 140.66 29.52 M40.28 144.99 C69.03 111.71, 97.79 80.38, 140.66 29.52 M43.3 147.62 C66.56 119.89, 89.56 90.95, 143.02 32.9 M43.3 147.62 C69.94 118.39, 94.2 88.58, 143.02 32.9 M46.98 149.49 C80.14 113.07, 110.33 77.88, 144.73 37.03 M46.98 149.49 C79.09 112.86, 111.22 77.1, 144.73 37.03 M50.65 151.36 C83.96 114.25, 111.15 78.04, 147.09 40.41 M50.65 151.36 C89.1 106.46, 127.14 62.3, 147.09 40.41 M54.33 153.23 C78.97 124.65, 103.47 96.14, 148.8 44.55 M54.33 153.23 C82.82 121.72, 110.57 87.79, 148.8 44.55 M58.66 154.34 C87.45 120.74, 115.43 88.25, 150.5 48.68 M58.66 154.34 C89.05 116.39, 120.78 79.98, 150.5 48.68 M63.64 154.7 C83.08 132.33, 101.52 109.24, 152.21 52.81 M63.64 154.7 C86.05 129.48, 108.81 103.6, 152.21 52.81 M67.97 155.81 C99.54 117.05, 133.5 81.09, 153.92 56.95 M67.97 155.81 C91.6 130.13, 112.27 103.78, 153.92 56.95 M72.96 156.17 C97.01 128.51, 119.54 102.47, 156.28 60.33 M72.96 156.17 C101.56 122.49, 132.05 88.77, 156.28 60.33 M77.95 156.54 C107.35 121.56, 135.9 89.92, 156.68 65.97 M77.95 156.54 C102.88 128.71, 127.16 98.69, 156.68 65.97 M82.94 156.9 C104.77 130.49, 130.47 102.51, 156.41 72.37 M82.94 156.9 C107.75 127.87, 134.82 97.73, 156.41 72.37 M87.92 157.26 C104.63 137.66, 125.09 118.16, 156.81 78.01 M87.92 157.26 C112.66 128.9, 136.3 100.46, 156.81 78.01 M94.22 156.11 C109.4 142.67, 122.68 125.87, 156.55 84.41 M94.22 156.11 C113.96 132.95, 133.64 109.05, 156.55 84.41 M101.83 153.45 C117.72 136.96, 134.31 116.25, 156.29 90.81 M101.83 153.45 C117.02 136.44, 130.46 120.95, 156.29 90.81 M109.44 150.79 C123.67 136.55, 136.21 122.56, 154.71 98.71 M109.44 150.79 C122.5 134.15, 136.87 118.72, 154.71 98.71 M117.71 147.38 C124.14 138.25, 131.47 131.43, 149.2 111.15 M117.71 147.38 C128.32 134.34, 138.3 121.96, 149.2 111.15 M139.76 128.11 C141 126.24, 141.97 124.93, 143.04 124.34 M139.76 128.11 C140.86 127.06, 141.41 126.16, 143.04 124.34 M27.16 137.95 C27.16 137.95, 27.16 137.95, 27.16 137.95 M27.16 137.95 C27.16 137.95, 27.16 137.95, 27.16 137.95 M44.13 147.39 C37.58 141.35, 33.53 137.53, 15.45 122.46 M44.13 147.39 C34.34 139.3, 25.08 130.85, 15.45 122.46 M57.32 153.56 C41.66 139.41, 25.58 123.14, 6.75 109.6 M57.32 153.56 C43.58 142.55, 28.89 130.22, 6.75 109.6 M64.47 154.48 C45.13 136.35, 29.75 124.17, 4.85 102.65 M64.47 154.48 C48.09 140.95, 31.64 125.98, 4.85 102.65 M71.62 155.39 C49.49 137.05, 31.17 119.73, 3.7 96.35 M71.62 155.39 C48.96 136.05, 26.49 116.72, 3.7 96.35 M78.77 156.31 C56.62 136.79, 35.64 116.27, 1.79 89.39 M78.77 156.31 C61.51 141.36, 43.87 124.49, 1.79 89.39 M85.17 156.57 C54.74 130.66, 26.44 106.52, 0.64 83.09 M85.17 156.57 C54.85 130.77, 24.3 102.24, 0.64 83.09 M90.81 156.18 C70.37 136.6, 47.15 114.92, 0.25 77.45 M90.81 156.18 C71.99 137.45, 51.36 121.38, 0.25 77.45 M94.95 154.47 C59.21 123.68, 24.74 92.56, 1.36 73.12 M94.95 154.47 C59.32 122.29, 22 89.75, 1.36 73.12 M99.08 152.76 C71.06 125.19, 42.06 101.05, 2.48 68.79 M99.08 152.76 C69.69 126.28, 41.25 100.43, 2.48 68.79 M103.97 151.71 C78.01 126.54, 51.7 104.27, 3.59 64.46 M103.97 151.71 C67.67 119.66, 31.77 88.4, 3.59 64.46 M108.1 150.01 C87.56 132.65, 66.44 112.35, 3.95 59.47 M108.1 150.01 C72.45 120.01, 38.12 90.04, 3.95 59.47 M112.24 148.3 C89.53 127.96, 65.2 107.63, 5.07 55.14 M112.24 148.3 C83.15 120.86, 52.3 95.92, 5.07 55.14 M117.12 147.25 C75.48 108.66, 33.01 74.22, 6.18 50.81 M117.12 147.25 C77.68 113.59, 39.46 78.82, 6.18 50.81 M120.5 144.89 C98.96 123.6, 71.9 102.4, 7.3 46.48 M120.5 144.89 C86.31 115.89, 53.05 87.07, 7.3 46.48 M123.13 141.87 C91.85 115.9, 59.3 87.12, 9.92 43.46 M123.13 141.87 C96.14 117.64, 68.93 93.01, 9.92 43.46 M126.51 139.51 C87.23 103.97, 48.92 71.94, 11.79 39.78 M126.51 139.51 C97.92 115.16, 69.51 90.5, 11.79 39.78 M129.89 137.14 C106.17 115.51, 79.64 94.6, 14.42 36.77 M129.89 137.14 C99.64 112.48, 69.97 85.58, 14.42 36.77 M132.51 134.12 C102.66 108.09, 77.54 86.2, 17.04 33.75 M132.51 134.12 C102.87 107.57, 72.62 81.39, 17.04 33.75 M135.89 131.76 C96.01 98.47, 58.87 62.3, 18.91 30.07 M135.89 131.76 C103.85 106.3, 74.92 78.39, 18.91 30.07 M138.51 128.74 C96.03 95.54, 58.17 59.57, 21.53 27.05 M138.51 128.74 C92.06 89.11, 45.71 48.85, 21.53 27.05 M141.89 126.38 C112.8 103.45, 86.23 77.68, 24.16 24.03 M141.89 126.38 C102.46 92.25, 63.93 59.06, 24.16 24.03 M143.76 122.7 C97.74 83.09, 49.29 44.02, 26.78 21.02 M143.76 122.7 C98.65 82.83, 53.37 43.35, 26.78 21.02 M145.63 119.03 C99.98 81.95, 58.91 41.81, 30.16 18.65 M145.63 119.03 C107.09 87.18, 67.97 52.74, 30.16 18.65 M147.5 115.35 C117.24 88.16, 85.31 59.35, 33.54 16.29 M147.5 115.35 C113.22 86.51, 80.98 58.19, 33.54 16.29 M149.37 111.68 C124.04 88.63, 96.75 64.11, 36.92 13.93 M149.37 111.68 C109.52 78.15, 69.84 43.73, 36.92 13.93 M151.24 108.01 C128.17 87.44, 100.89 66.16, 41.05 12.22 M151.24 108.01 C122.18 82.96, 93.35 58.96, 41.05 12.22 M152.35 103.67 C112.22 69.12, 74.95 35.29, 44.43 9.86 M152.35 103.67 C124.63 81.43, 97.53 56.61, 44.43 9.86 M154.22 100 C129.08 77.49, 100.57 53.83, 47.81 7.49 M154.22 100 C117.78 67.49, 81.34 34.28, 47.81 7.49 M156.09 96.32 C119.61 64.72, 85.3 36.43, 51.94 5.79 M156.09 96.32 C121.39 66.73, 87.2 35.38, 51.94 5.79 M156.45 91.34 C131.36 66.56, 101.95 42.81, 56.08 4.08 M156.45 91.34 C124.59 63.74, 93.47 36.22, 56.08 4.08 M156.06 85.69 C135.25 68.97, 118.4 52.19, 61.72 3.69 M156.06 85.69 C129.42 64.09, 103.55 41.47, 61.72 3.69 M156.42 80.71 C122.41 52.36, 90.07 20.4, 66.61 2.64 M156.42 80.71 C136.41 64.53, 116 47.02, 66.61 2.64 M156.02 75.06 C134.59 59.09, 115.8 38.76, 72.25 2.24 M156.02 75.06 C125.18 49.09, 95.87 22.16, 72.25 2.24 M156.38 70.08 C123.77 43.82, 91.72 13.87, 77.14 1.19 M156.38 70.08 C137.82 53.99, 118.11 37.53, 77.14 1.19 M155.99 64.43 C129.72 39.42, 104.88 15.49, 82.03 0.14 M155.99 64.43 C134.04 45.94, 113.95 27.54, 82.03 0.14 M155.6 58.79 C133.7 42.82, 116.46 23.57, 87.67 -0.25 M155.6 58.79 C139.95 46.66, 125.62 33.33, 87.67 -0.25 M151.43 49.87 C131.37 31.82, 112.46 14.7, 97.09 2.63 M151.43 49.87 C133.54 33.27, 113.93 16.46, 97.09 2.63 M147.26 40.94 C139.94 31.22, 130.83 26.21, 107.26 6.17 M147.26 40.94 C132.55 29.33, 118.53 16.05, 107.26 6.17 M143.09 32.02 C137.45 24.61, 129.29 19.7, 118.19 10.37 M143.09 32.02 C137.37 26.42, 130.39 21.86, 118.19 10.37" stroke="#228be6" stroke-width="0.5" fill="none"></path><path d="M86.8 0.15 C97.04 -0.08, 108.84 5.6, 118.11 10.82 C127.39 16.04, 136.11 23.06, 142.45 31.46 C148.79 39.87, 153.86 50.58, 156.15 61.25 C158.44 71.92, 158.45 84.77, 156.17 95.49 C153.89 106.2, 148.84 116.97, 142.48 125.55 C136.11 134.12, 127.04 141.66, 117.97 146.95 C108.89 152.24, 98.4 156.11, 88.02 157.29 C77.64 158.46, 65.91 157.26, 55.71 153.99 C45.51 150.71, 34.97 144.81, 26.82 137.65 C18.66 130.48, 11.28 120.69, 6.77 111.02 C2.26 101.34, -0.12 90.11, -0.23 79.58 C-0.35 69.05, 1.74 57.53, 6.09 47.82 C10.44 38.12, 18.02 28.49, 25.87 21.33 C33.73 14.18, 42.58 8.27, 53.2 4.92 C63.82 1.56, 83.06 1.7, 89.59 1.2 C96.12 0.69, 92.41 0.67, 92.38 1.88 M66.04 -0.48 C75.8 -3.23, 89.46 -1.39, 99.85 1.65 C110.24 4.69, 120.16 10.56, 128.37 17.76 C136.58 24.95, 144.22 35.4, 149.09 44.8 C153.96 54.21, 156.98 63.75, 157.58 74.18 C158.18 84.62, 156.39 97.11, 152.69 107.4 C148.99 117.69, 142.97 128.14, 135.38 135.92 C127.79 143.7, 117.37 150.6, 107.17 154.06 C96.97 157.52, 85.06 157.59, 74.18 156.69 C63.29 155.79, 51.62 153.64, 41.88 148.68 C32.14 143.72, 22.41 135.37, 15.75 126.93 C9.09 118.49, 4.2 108.27, 1.9 98.04 C-0.41 87.82, -0.1 76.07, 1.92 65.58 C3.94 55.09, 8.08 43.85, 14.03 35.1 C19.98 26.35, 28.93 18.95, 37.64 13.09 C46.36 7.23, 61.5 1.51, 66.32 -0.05 C71.14 -1.62, 66.41 2.26, 66.55 3.71" stroke="#000000" stroke-width="1" fill="none"></path></g><g stroke-linecap="round" transform="translate(87.98367844026666 168.5234716140667) rotate(0 63.087255360462564 63.08725536046268)"><path d="M25.4 12.81 C25.4 12.81, 25.4 12.81, 25.4 12.81 M25.4 12.81 C25.4 12.81, 25.4 12.81, 25.4 12.81 M5.46 41.84 C16.24 30.7, 22.57 21.59, 33.67 9.39 M5.46 41.84 C12.2 34.24, 16.19 28.8, 33.67 9.39 M3.88 49.75 C20.35 32.31, 33.91 13.96, 41.94 5.98 M3.88 49.75 C17.18 33.62, 32.03 16.93, 41.94 5.98 M1.65 58.41 C17.73 36.96, 33.95 20.69, 49.55 3.32 M1.65 58.41 C15.12 43.19, 27.74 27.15, 49.55 3.32 M0.74 65.57 C14.47 50.02, 24.52 37.89, 55.85 2.17 M0.74 65.57 C19.87 43.71, 40.55 18.92, 55.85 2.17 M1.79 70.45 C14.24 51.45, 29.66 35.46, 60.83 2.53 M1.79 70.45 C18.45 52, 33.62 32.96, 60.83 2.53 M3.49 74.59 C26.91 50.46, 50.94 20.86, 65.82 2.89 M3.49 74.59 C20.34 55.13, 38.1 37, 65.82 2.89 M4.55 79.48 C24.95 56.81, 43.08 36.47, 70.81 3.25 M4.55 79.48 C25.1 55.23, 46.43 31.79, 70.81 3.25 M6.25 83.61 C30.82 52.16, 58.73 24.32, 75.79 3.61 M6.25 83.61 C25.37 61.15, 44.04 39.44, 75.79 3.61 M7.3 88.5 C25.42 70.05, 40.96 51.96, 80.78 3.97 M7.3 88.5 C36.02 56.41, 65.52 22.4, 80.78 3.97 M8.35 93.39 C24.11 73.64, 43.42 54.24, 85.11 5.09 M8.35 93.39 C31.74 66.4, 54.92 39.35, 85.11 5.09 M10.72 96.77 C34.91 68.64, 63.28 36.46, 88.79 6.96 M10.72 96.77 C36 67.36, 62.18 37.99, 88.79 6.96 M13.73 99.39 C38.15 68.42, 67.7 37.11, 92.46 8.83 M13.73 99.39 C33.45 77.79, 51.8 55.99, 92.46 8.83 M16.75 102.01 C43.35 66.69, 74.7 36.45, 95.48 11.45 M16.75 102.01 C48.22 66.86, 79.24 32.4, 95.48 11.45 M19.12 105.39 C42.97 75.46, 69.42 48.97, 99.16 13.32 M19.12 105.39 C42.87 76.71, 64.8 49.95, 99.16 13.32 M22.14 108.02 C39.19 87.9, 56.78 68.44, 102.83 15.19 M22.14 108.02 C47.6 79.54, 72.35 50.3, 102.83 15.19 M24.5 111.4 C49.51 83.62, 74.46 53.92, 105.85 17.81 M24.5 111.4 C45.2 89.72, 65.21 66.17, 105.85 17.81 M27.52 114.02 C47 92.58, 67.6 67.29, 109.52 19.68 M27.52 114.02 C48.16 89.06, 69.57 65.16, 109.52 19.68 M30.54 116.65 C59.67 85.75, 85.82 52.21, 111.89 23.06 M30.54 116.65 C48.93 95.83, 65.59 75.97, 111.89 23.06 M34.87 117.76 C59.93 86.69, 87.88 57.54, 113.59 27.19 M34.87 117.76 C52.79 95.93, 70.94 74.04, 113.59 27.19 M38.54 119.63 C56.11 99.08, 76.95 77.26, 115.96 30.57 M38.54 119.63 C57.5 97.51, 78.04 74.25, 115.96 30.57 M42.87 120.74 C64.17 98.59, 79.93 78.34, 118.32 33.95 M42.87 120.74 C66.64 91.61, 90.96 63.94, 118.32 33.95 M46.55 122.61 C74.39 87.12, 105.62 53.95, 120.03 38.09 M46.55 122.61 C74.41 89.52, 102 57.41, 120.03 38.09 M50.88 123.73 C71.95 98.38, 96.15 72.83, 122.39 41.47 M50.88 123.73 C65.5 107.68, 81.88 89.02, 122.39 41.47 M54.55 125.6 C67.64 109.85, 84.19 90.11, 124.1 45.6 M54.55 125.6 C79.26 96.64, 103.33 68.47, 124.1 45.6 M59.54 125.96 C77.46 103.51, 94.66 85.48, 124.49 51.24 M59.54 125.96 C76.54 105.76, 94.25 85.43, 124.49 51.24 M65.18 125.56 C83.66 105.33, 104.09 82.32, 124.88 56.89 M65.18 125.56 C80.72 105.19, 96.85 88.25, 124.88 56.89 M71.48 124.41 C82.75 109.88, 94.25 95, 124.62 63.28 M71.48 124.41 C86.94 106.45, 102.4 88.67, 124.62 63.28 M77.78 123.27 C93.92 105.34, 106.2 89.38, 125.02 68.93 M77.78 123.27 C96.39 101.36, 115.57 80.98, 125.02 68.93 M83.42 122.87 C98.37 102.9, 115.29 84.01, 124.76 75.32 M83.42 122.87 C97.33 106.43, 110.88 90.63, 124.76 75.32 M93 117.95 C100.27 112.23, 105.18 104.74, 121.21 85.5 M93 117.95 C101.42 107.75, 111.24 97.8, 121.21 85.5 M105.86 109.25 C108.37 106.1, 109.46 104.91, 113.08 100.95 M105.86 109.25 C107.66 106.74, 109.98 104.74, 113.08 100.95 M29.17 115.82 C29.17 115.82, 29.17 115.82, 29.17 115.82 M29.17 115.82 C29.17 115.82, 29.17 115.82, 29.17 115.82 M39.34 119.36 C29.8 111.47, 21.56 103.98, 8.4 92.46 M39.34 119.36 C31.59 111.95, 23.57 105.2, 8.4 92.46 M50.27 123.56 C37.04 111.57, 20.28 97.44, 6.5 85.51 M50.27 123.56 C41.63 115.82, 31.92 107.17, 6.5 85.51 M58.93 125.79 C37.85 109.31, 17.87 92.9, 4.59 78.55 M58.93 125.79 C48.15 117.45, 37.02 107.73, 4.59 78.55 M63.82 124.74 C37.88 104.6, 15.11 81.43, 2.69 71.6 M63.82 124.74 C45.96 108.05, 26.36 92.52, 2.69 71.6 M68.71 123.69 C42.44 100.22, 14.36 76.92, 0.03 63.99 M68.71 123.69 C41.46 100.9, 13.46 77.11, 0.03 63.99 M74.35 123.29 C48.85 100.98, 21.38 76.94, 1.14 59.65 M74.35 123.29 C52.31 103.52, 30.69 84.38, 1.14 59.65 M79.24 122.24 C53.35 99.89, 33.05 78.25, 2.26 55.32 M79.24 122.24 C54.23 99.87, 30.24 79.17, 2.26 55.32 M84.88 121.85 C63.22 104.89, 44.9 85.87, 2.62 50.34 M84.88 121.85 C52.51 94.05, 20.14 64.55, 2.62 50.34 M88.26 119.48 C69 103.41, 49.54 85.16, 3.73 46.01 M88.26 119.48 C61.26 97.68, 36.01 74.21, 3.73 46.01 M91.64 117.12 C59.47 88.09, 27.35 63.35, 4.85 41.67 M91.64 117.12 C59.43 90.61, 26.25 61.28, 4.85 41.67 M95.02 114.76 C64.09 86.56, 32.18 60.82, 5.96 37.34 M95.02 114.76 C74 96.61, 55.03 77.78, 5.96 37.34 M99.15 113.05 C78.95 94.98, 57.22 77.05, 7.83 33.67 M99.15 113.05 C79.6 95.78, 60.81 79.16, 7.83 33.67 M102.53 110.69 C77.17 86.68, 51.29 64.77, 10.46 30.65 M102.53 110.69 C78.54 91.06, 54.73 69.49, 10.46 30.65 M105.91 108.33 C84.74 90.3, 60.34 71.75, 13.08 27.63 M105.91 108.33 C78.03 83.88, 50.95 60.12, 13.08 27.63 M109.29 105.96 C78.65 79.78, 42.19 48.8, 15.71 24.61 M109.29 105.96 C87.72 88.31, 64.9 68.03, 15.71 24.61 M111.91 102.94 C91.88 87.32, 75.67 71.78, 18.33 21.59 M111.91 102.94 C91.25 83.97, 69.26 65.49, 18.33 21.59 M113.78 99.27 C91.62 83.45, 70.34 64, 20.95 18.57 M113.78 99.27 C81.74 72.9, 50.47 44.63, 20.95 18.57 M115.65 95.59 C95.76 78.03, 75.2 59.67, 23.58 15.56 M115.65 95.59 C95.58 79.51, 76.99 62.93, 23.58 15.56 M117.52 91.92 C87.91 66.33, 58.02 37.74, 26.2 12.54 M117.52 91.92 C94.26 72.54, 70.39 52.35, 26.2 12.54 M119.39 88.25 C84.3 56.18, 49.29 26.08, 30.34 10.83 M119.39 88.25 C100.82 71.78, 81.56 54.32, 30.34 10.83 M121.26 84.57 C99.7 67.08, 81.78 50.83, 34.47 9.12 M121.26 84.57 C91.99 59.85, 63.82 34.58, 34.47 9.12 M123.13 80.9 C97.51 61.22, 71.91 36.41, 38.6 7.42 M123.13 80.9 C99.12 61.29, 76.06 42.05, 38.6 7.42 M125 77.22 C102.24 57.23, 81.64 38.49, 42.74 5.71 M125 77.22 C103.45 57.54, 80.25 37.39, 42.74 5.71 M125.36 72.23 C99.07 51.96, 71.22 27.83, 46.87 4 M125.36 72.23 C96.4 46.92, 68.47 21.95, 46.87 4 M124.97 66.59 C104.98 46.65, 84.5 29.42, 51 2.3 M124.97 66.59 C106.05 50.49, 88.13 34.59, 51 2.3 M124.57 60.95 C99.34 37.87, 70.3 13.8, 55.89 1.25 M124.57 60.95 C103.02 42.99, 83.33 23.48, 55.89 1.25 M124.93 55.96 C109.69 43.03, 93.38 27.66, 63.04 2.16 M124.93 55.96 C105.55 38.68, 83.66 19.22, 63.04 2.16 M124.54 50.32 C106.19 34.48, 84.28 17.42, 70.2 3.08 M124.54 50.32 C108.25 36.02, 91.13 21.49, 70.2 3.08 M124.9 45.33 C115.17 33.77, 104.44 24.97, 76.6 3.34 M124.9 45.33 C109.16 31.9, 92.55 17.64, 76.6 3.34 M119.22 35.09 C104.96 24.14, 92.11 12.93, 83.75 4.26 M119.22 35.09 C104.98 22.58, 91.64 12.09, 83.75 4.26 M113.54 24.86 C110.57 22.45, 107.95 21.05, 100.71 13.71 M113.54 24.86 C109.98 21.34, 104.85 17.83, 100.71 13.71" stroke="#228be6" stroke-width="0.5" fill="none"></path><path d="M84.57 4.18 C93.6 6.36, 102.96 12.72, 109.58 19.71 C116.2 26.69, 121.78 36.42, 124.3 46.08 C126.82 55.75, 126.97 67.94, 124.7 77.72 C122.42 87.49, 117.11 97.41, 110.64 104.74 C104.16 112.07, 94.76 118.15, 85.84 121.68 C76.92 125.21, 66.59 126.91, 57.12 125.91 C47.65 124.91, 37.17 121.1, 29 115.67 C20.84 110.25, 13.02 101.96, 8.15 93.34 C3.27 84.72, 0.04 73.65, -0.25 63.94 C-0.54 54.23, 2.09 43.66, 6.42 35.08 C10.75 26.49, 17.72 18.07, 25.72 12.44 C33.71 6.82, 43.63 2.17, 54.42 1.35 C65.2 0.53, 83.32 5.76, 90.44 7.52 C97.57 9.28, 97.45 11.27, 97.14 11.92 M93.06 6.54 C101.5 9.91, 108.42 18.11, 113.84 26.1 C119.25 34.08, 124.3 44.57, 125.53 54.44 C126.77 64.31, 124.78 75.82, 121.25 85.32 C117.72 94.83, 111.59 105.18, 104.36 111.47 C97.14 117.75, 87.26 120.97, 77.91 123.03 C68.57 125.09, 57.53 125.83, 48.29 123.81 C39.04 121.79, 29.67 117.1, 22.43 110.89 C15.19 104.68, 8.45 95.97, 4.84 86.55 C1.22 77.14, -0.25 64.33, 0.74 54.4 C1.74 44.48, 5.52 35.04, 10.83 27 C16.15 18.97, 24 10.78, 32.64 6.21 C41.29 1.63, 52.59 -0.6, 62.72 -0.44 C72.85 -0.27, 88.39 5.73, 93.41 7.19 C98.43 8.65, 93.32 7.23, 92.86 8.32" stroke="#000000" stroke-width="1" fill="none"></path></g><g stroke-linecap="round" transform="translate(556.1073902405144 190.12254285711242) rotate(0 63.087255360462564 63.08725536046268)"><path d="M22.99 14.68 C22.99 14.68, 22.99 14.68, 22.99 14.68 M22.99 14.68 C22.99 14.68, 22.99 14.68, 22.99 14.68 M5.01 41.46 C13.82 31.93, 21.52 21.1, 33.22 9 M5.01 41.46 C16.34 27.68, 26.48 15.57, 33.22 9 M4.09 48.61 C15.3 32.37, 30.85 17.33, 42.8 4.08 M4.09 48.61 C17.23 33.06, 31.86 17.46, 42.8 4.08 M3.18 55.76 C20.43 37.03, 34.55 20.32, 50.41 1.42 M3.18 55.76 C13.81 43.46, 25.22 29.23, 50.41 1.42 M2.26 62.91 C12.81 49.98, 26.56 31.84, 55.4 1.78 M2.26 62.91 C16.8 46.96, 33.17 28.62, 55.4 1.78 M1.34 70.07 C19.83 48.37, 35.39 30.49, 60.39 2.14 M1.34 70.07 C23.26 45.89, 44.49 20.79, 60.39 2.14 M2.39 74.95 C26.33 49.14, 47.89 23.2, 65.37 2.5 M2.39 74.95 C24.55 48.34, 49.32 20.89, 65.37 2.5 M4.1 79.09 C20.66 60.72, 34.27 43.78, 70.36 2.86 M4.1 79.09 C21.13 60.88, 37.46 41.06, 70.36 2.86 M5.8 83.22 C27.58 58.04, 47.37 33.95, 75.35 3.22 M5.8 83.22 C23.95 62.42, 43.46 41.04, 75.35 3.22 M7.51 87.36 C34.79 54.12, 64.15 24.13, 80.33 3.58 M7.51 87.36 C35.37 56.54, 62.24 26.03, 80.33 3.58 M8.56 92.24 C25.79 70.72, 46.14 51.78, 84.01 5.45 M8.56 92.24 C25.21 74.33, 43.01 54.78, 84.01 5.45 M10.27 96.38 C35.5 71.27, 57.1 43.63, 87.03 8.08 M10.27 96.38 C29.53 74.07, 48.46 52.01, 87.03 8.08 M12.63 99.76 C32.27 79.15, 49.13 57.93, 90.7 9.95 M12.63 99.76 C35.61 73.59, 60.21 46.08, 90.7 9.95 M15.65 102.38 C38.31 77.73, 58.98 49.72, 94.38 11.82 M15.65 102.38 C39.81 72.37, 64.88 42.73, 94.38 11.82 M18.67 105 C33.08 86.8, 51.22 67.5, 98.05 13.68 M18.67 105 C47.17 72.45, 78.08 37.91, 98.05 13.68 M21.03 108.38 C36.67 91.28, 54.89 69.6, 101.73 15.55 M21.03 108.38 C48.19 78.48, 73.57 48.28, 101.73 15.55 M24.05 111.01 C47.48 81.68, 73.59 56.11, 105.4 17.42 M24.05 111.01 C47.2 84.44, 71.25 56.28, 105.4 17.42 M27.07 113.63 C46.85 88.35, 69.18 64.72, 108.42 20.05 M27.07 113.63 C52.89 84.4, 77.66 55.57, 108.42 20.05 M29.43 117.01 C55.58 87.35, 78.86 58.9, 110.78 23.43 M29.43 117.01 C58.11 84.22, 85.56 53.56, 110.78 23.43 M32.45 119.64 C60.73 86.04, 91.84 50.22, 113.15 26.81 M32.45 119.64 C49.88 99.47, 65.96 79.97, 113.15 26.81 M36.78 120.75 C59.7 93.61, 81.96 68.03, 115.51 30.18 M36.78 120.75 C67.66 85.18, 97.77 49.96, 115.51 30.18 M41.11 121.86 C60.01 99.19, 83.43 73.38, 117.22 34.32 M41.11 121.86 C64.97 96.01, 87.84 69.6, 117.22 34.32 M45.44 122.98 C70.94 95.6, 96.65 66.33, 119.58 37.7 M45.44 122.98 C68.82 96.5, 92.26 68.9, 119.58 37.7 M50.43 123.34 C75.56 93.57, 104.73 60.17, 121.94 41.08 M50.43 123.34 C72.76 99.15, 94.19 74.38, 121.94 41.08 M54.76 124.45 C79 91.21, 109.2 63.35, 123.65 45.21 M54.76 124.45 C81.05 95.31, 107.71 63.31, 123.65 45.21 M59.09 125.57 C77.86 105.8, 95.4 82.24, 124.04 50.85 M59.09 125.57 C76.59 105.57, 96.7 84.25, 124.04 50.85 M64.74 125.17 C79.73 107.78, 92.39 95.14, 124.44 56.5 M64.74 125.17 C81.58 104.65, 98.45 84.89, 124.44 56.5 M71.03 124.03 C87.7 101.45, 108.89 80.59, 124.83 62.14 M71.03 124.03 C83.25 112.09, 94.85 97.97, 124.83 62.14 M77.33 122.88 C92.84 108.84, 103.44 90.96, 125.23 67.78 M77.33 122.88 C93.48 104.73, 108.52 86.26, 125.23 67.78 M83.63 121.73 C92.06 112.77, 99.54 102.14, 124.31 74.93 M83.63 121.73 C97.38 105.32, 111.27 90.3, 124.31 74.93 M90.59 119.82 C98.95 112.71, 106.27 104.32, 120.77 85.11 M90.59 119.82 C101.34 107.57, 113.63 93.97, 120.77 85.11 M107.38 106.6 C111.21 103.81, 115.21 100.48, 117.23 95.28 M107.38 106.6 C110.35 104.3, 112.76 100.91, 117.23 95.28 M31.67 119.04 C31.67 119.04, 31.67 119.04, 31.67 119.04 M31.67 119.04 C31.67 119.04, 31.67 119.04, 31.67 119.04 M40.33 121.27 C30.01 110.46, 17.76 102.83, 10.14 95.03 M40.33 121.27 C29.52 111.27, 17.61 101.52, 10.14 95.03 M48.24 122.85 C36.73 115.14, 28.06 102.89, 6.73 86.76 M48.24 122.85 C34.68 112.38, 21.91 101.34, 6.73 86.76 M56.14 124.42 C42.67 110.4, 24.73 98.92, 4.07 79.15 M56.14 124.42 C41.64 111.13, 25.27 98.21, 4.07 79.15 M62.54 124.68 C43.23 105.49, 23.52 89.25, 1.41 71.54 M62.54 124.68 C51.29 114.71, 38.09 103.46, 1.41 71.54 M67.43 123.63 C40.9 102.89, 15.7 79.87, 1.02 65.9 M67.43 123.63 C43.66 102.93, 20.12 81.78, 1.02 65.9 M72.32 122.58 C51.26 102.06, 28.9 85.54, 2.13 61.57 M72.32 122.58 C55.36 106.78, 37.73 91.63, 2.13 61.57 M77.96 122.19 C51.38 98.11, 25.56 75.52, 2.49 56.58 M77.96 122.19 C54.09 100.45, 28.98 80.41, 2.49 56.58 M82.85 121.14 C58.09 100.04, 33.48 76.23, 2.85 51.59 M82.85 121.14 C57.69 99.21, 35.04 80.05, 2.85 51.59 M87.74 120.08 C54.04 91.47, 23.16 62.57, 3.21 46.61 M87.74 120.08 C60.44 96.35, 32.18 72.34, 3.21 46.61 M91.87 118.38 C57.67 89.02, 25.43 57.32, 4.33 42.27 M91.87 118.38 C65.63 95.05, 40.64 72.56, 4.33 42.27 M95.25 116.01 C62.07 87.13, 27.77 55.5, 5.44 37.94 M95.25 116.01 C76.43 99.83, 55.02 82.2, 5.44 37.94 M98.63 113.65 C79.3 97.01, 57.26 76.77, 8.07 34.93 M98.63 113.65 C63.61 83.16, 28.56 51.85, 8.07 34.93 M102.01 111.29 C70.34 83.04, 33.06 53.59, 9.94 31.25 M102.01 111.29 C78.83 93.26, 57.15 73.34, 9.94 31.25 M104.63 108.27 C76.51 85.13, 51.45 61.67, 12.56 28.23 M104.63 108.27 C70.05 77.78, 32.73 46.12, 12.56 28.23 M108.01 105.91 C87.76 87.84, 65.79 71.64, 15.18 25.21 M108.01 105.91 C77.44 80.31, 47.99 54.19, 15.18 25.21 M111.39 103.54 C82.8 76.33, 51.09 49.49, 17.81 22.19 M111.39 103.54 C77.15 74.76, 42.38 45.54, 17.81 22.19 M114.02 100.53 C79.1 69.11, 42.42 36.52, 19.68 18.52 M114.02 100.53 C75.7 68.05, 38.92 36.34, 19.68 18.52 M115.89 96.85 C85.6 69.11, 57.08 44.48, 22.3 15.5 M115.89 96.85 C95.63 80.52, 77.28 62.84, 22.3 15.5 M117.76 93.18 C87.02 65.63, 58.33 42.99, 25.68 13.14 M117.76 93.18 C90.19 69.39, 63 46.65, 25.68 13.14 M118.87 88.85 C97.54 69.22, 74.41 47.9, 29.06 10.77 M118.87 88.85 C91.18 64.64, 65.24 42.5, 29.06 10.77 M120.74 85.17 C94.65 59.73, 62.43 36.4, 33.19 9.07 M120.74 85.17 C100.86 67.7, 80.4 50.86, 33.19 9.07 M121.85 80.84 C90.21 56.08, 60.25 27.65, 36.57 6.7 M121.85 80.84 C105.06 64.25, 86.95 50.97, 36.57 6.7 M123.72 77.16 C105.56 61.08, 82.16 42.85, 40.71 5 M123.72 77.16 C94.56 52.04, 64.37 27.62, 40.71 5 M124.84 72.83 C96.18 45.31, 64.01 21.18, 44.08 2.64 M124.84 72.83 C93.42 44.79, 60.65 17.31, 44.08 2.64 M125.2 67.85 C98.05 43.05, 73.08 21.78, 48.22 0.93 M125.2 67.85 C99.28 43.96, 72.01 21.59, 48.22 0.93 M124.05 61.55 C97.68 37.71, 73.71 19.36, 54.62 1.19 M124.05 61.55 C100.38 40.64, 76.75 20.87, 54.62 1.19 M123.65 55.9 C104.9 36.96, 81.89 20.63, 61.01 1.45 M123.65 55.9 C106.04 40.66, 90.19 25.78, 61.01 1.45 M123.26 50.26 C107 38.16, 95.74 25.12, 67.41 1.71 M123.26 50.26 C110.5 39.21, 99.48 29.51, 67.41 1.71 M122.87 44.62 C110.51 35.81, 100.74 23.6, 74.56 2.63 M122.87 44.62 C108.35 31.14, 93.05 19.38, 74.56 2.63 M118.7 35.69 C107.25 26.56, 92.92 15.63, 83.23 4.86 M118.7 35.69 C106.41 25.39, 92.59 14.17, 83.23 4.86 M110.76 23.49 C104.61 19.8, 101.15 15.41, 98.68 12.99 M110.76 23.49 C105.99 20.27, 102.34 15.26, 98.68 12.99" stroke="#12b886" stroke-width="0.5" fill="none"></path><path d="M78.74 3.01 C87.95 4.59, 99.23 11.18, 106.55 17.72 C113.88 24.27, 119.57 33.23, 122.67 42.26 C125.77 51.29, 126.47 62.21, 125.16 71.92 C123.85 81.64, 120.61 92.53, 114.81 100.55 C109.01 108.56, 99.34 115.83, 90.35 120.01 C81.37 124.19, 70.65 125.78, 60.9 125.64 C51.14 125.5, 40.25 123.94, 31.81 119.16 C23.36 114.39, 15.42 105.23, 10.21 97.01 C5 88.78, 1.51 79.42, 0.54 69.79 C-0.43 60.16, 0.63 48.44, 4.4 39.22 C8.17 30, 15.69 20.91, 23.15 14.49 C30.62 8.07, 37.72 2.09, 49.18 0.68 C60.64 -0.72, 83.13 3.84, 91.9 6.06 C100.67 8.28, 102.26 13.01, 101.81 14.03 M84.56 4.55 C93.55 6.97, 102.35 13.74, 108.82 20.92 C115.29 28.1, 120.65 38.23, 123.39 47.61 C126.14 56.99, 127.09 68.05, 125.28 77.19 C123.48 86.34, 118.89 94.9, 112.55 102.46 C106.21 110.03, 96.4 118.81, 87.23 122.58 C78.06 126.35, 67.5 126.28, 57.55 125.1 C47.61 123.93, 35.91 120.53, 27.57 115.52 C19.22 110.51, 12.06 103.52, 7.47 95.06 C2.88 86.6, 0.37 74.78, 0.03 64.76 C-0.32 54.74, 0.97 43.52, 5.4 34.92 C9.83 26.32, 18.38 18.73, 26.63 13.15 C34.87 7.56, 45.09 3.2, 54.87 1.41 C64.66 -0.38, 80.5 1.76, 85.36 2.4 C90.22 3.04, 84.69 4.16, 84.05 5.25" stroke="#1e1e1e" stroke-width="1" fill="none"></path></g><g stroke-linecap="round" transform="translate(576.1074067537982 289.484780182921) rotate(0 31.543627680231225 31.54362768023111)"><path d="M4.16 15.54 C4.16 15.54, 4.16 15.54, 4.16 15.54 M4.16 15.54 C4.16 15.54, 4.16 15.54, 4.16 15.54 M1.93 24.2 C6.59 15.96, 15 12.41, 20.3 3.07 M1.93 24.2 C7.28 17.67, 13.47 12.56, 20.3 3.07 M0.35 32.11 C5.62 26.98, 12.84 17.91, 26.59 1.92 M0.35 32.11 C9.92 20.79, 18.6 10.87, 26.59 1.92 M0.75 37.75 C8.87 26.09, 20.82 15.13, 31.58 2.28 M0.75 37.75 C8.97 29.17, 14.68 21.94, 31.58 2.28 M3.11 41.13 C8.11 35.1, 14.87 26.31, 36.57 2.64 M3.11 41.13 C10.3 32.72, 18.15 22.76, 36.57 2.64 M5.47 44.51 C16.02 34.07, 24.12 22, 41.56 3 M5.47 44.51 C19.57 27.87, 33.48 12.56, 41.56 3 M7.84 47.89 C19.71 35.77, 30.58 20.22, 45.89 4.11 M7.84 47.89 C21.24 32.14, 34.77 16.02, 45.89 4.11 M9.54 52.02 C21.15 38.75, 32.87 23.53, 48.91 6.74 M9.54 52.02 C19.86 40.48, 29.15 31.22, 48.91 6.74 M12.56 54.64 C22.73 45.47, 31.7 35.68, 51.92 9.36 M12.56 54.64 C22.08 42.6, 34.09 30.63, 51.92 9.36 M16.24 56.51 C30 42.53, 42.13 29.02, 54.29 12.74 M16.24 56.51 C23.37 46.36, 32.42 38.21, 54.29 12.74 M19.91 58.38 C27.02 50.95, 36.13 41.81, 57.31 15.36 M19.91 58.38 C31.84 44.06, 41.36 32.71, 57.31 15.36 M23.59 60.25 C34.7 45.84, 50.81 31.25, 60.32 17.99 M23.59 60.25 C30.53 51.22, 39.93 41.59, 60.32 17.99 M27.26 62.12 C34.37 50.89, 46.25 44.07, 60.72 23.63 M27.26 62.12 C41.28 47.49, 53.45 31.69, 60.72 23.63 M30.94 63.99 C40.38 50.4, 51.79 36.02, 61.77 28.52 M30.94 63.99 C39.47 53.99, 46.2 46.26, 61.77 28.52 M38.55 61.33 C42.82 56.4, 51.95 49.97, 62.16 34.16 M38.55 61.33 C45.46 54.1, 53.51 44.42, 62.16 34.16 M46.81 57.92 C51.13 54.86, 53.49 50.13, 57.97 45.09 M46.81 57.92 C49.71 54.36, 53.24 50.47, 57.97 45.09 M11.09 54.31 C11.09 54.31, 11.09 54.31, 11.09 54.31 M11.09 54.31 C11.09 54.31, 11.09 54.31, 11.09 54.31 M25.03 61.13 C16.72 55.28, 11.51 47.17, 4.65 43.42 M25.03 61.13 C18.73 55.98, 12.49 50.39, 4.65 43.42 M32.94 62.71 C26.56 57.44, 18.65 48.86, 0.49 34.5 M32.94 62.71 C25.42 55.52, 15.69 48.66, 0.49 34.5 M37.07 61 C26.64 52.09, 15.69 42.49, 0.85 29.51 M37.07 61 C27.63 53.19, 16.22 44.16, 0.85 29.51 M41.21 59.3 C27.83 47, 10.2 32.78, 1.96 25.18 M41.21 59.3 C32.14 50.01, 21.99 42.51, 1.96 25.18 M46.09 58.24 C34.17 46.79, 25.58 37.08, 3.08 20.85 M46.09 58.24 C30.47 44.7, 13.46 29.3, 3.08 20.85 M50.23 56.54 C36.73 45.26, 19.61 30.01, 4.19 16.52 M50.23 56.54 C37.16 44.93, 22.64 33.71, 4.19 16.52 M52.85 53.52 C41.01 43.43, 27.08 30.03, 6.82 13.5 M52.85 53.52 C40.11 42.05, 26.66 30.98, 6.82 13.5 M54.72 49.84 C37.22 35.03, 23.45 20.91, 10.19 11.14 M54.72 49.84 C45.34 41.35, 34.34 32.61, 10.19 11.14 M57.35 46.83 C41.27 35.92, 27.86 22.21, 12.82 8.12 M57.35 46.83 C46 36.58, 35.43 27.4, 12.82 8.12 M59.22 43.15 C48.22 35.96, 37.7 25.24, 16.2 5.75 M59.22 43.15 C43.92 29.72, 28.77 16.74, 16.2 5.75 M61.09 39.48 C50.05 28.49, 37.65 21.95, 19.58 3.39 M61.09 39.48 C44.78 24.98, 28.53 11.96, 19.58 3.39 M62.2 35.14 C51.95 26.88, 41.38 16.07, 23.71 1.69 M62.2 35.14 C50.65 25.8, 41.24 17.37, 23.71 1.69 M61.81 29.5 C53.93 22.03, 48.2 17.81, 30.11 1.95 M61.81 29.5 C53.8 22.8, 46.3 15.84, 30.11 1.95 M60.66 23.2 C56.75 19.55, 51.52 12.41, 36.51 2.21 M60.66 23.2 C52.69 16.03, 43.53 7.89, 36.51 2.21 M59.51 16.9 C53.1 11.87, 51.98 7.74, 42.9 2.47 M59.51 16.9 C54.24 13.69, 51.29 8.07, 42.9 2.47" stroke="#12b886" stroke-width="0.5" fill="none"></path><path d="M43.7 2.32 C49.87 4.5, 56.56 11.47, 59.59 17.32 C62.62 23.16, 63.1 31.01, 61.85 37.41 C60.6 43.81, 57.29 51.3, 52.09 55.73 C46.89 60.16, 37.46 64.2, 30.66 64 C23.86 63.79, 16.46 59.24, 11.29 54.49 C6.12 49.75, 0.86 42, -0.35 35.53 C-1.56 29.06, 0.29 21.34, 4.02 15.69 C7.76 10.03, 14.69 3.54, 22.09 1.61 C29.49 -0.31, 43.22 2.71, 48.43 4.12 C53.63 5.52, 53.47 9.43, 53.32 10.05 M31.12 1.17 C37.55 0.69, 46.22 4.13, 51.4 8.18 C56.59 12.23, 60.89 19.11, 62.24 25.46 C63.58 31.82, 62.6 40.36, 59.45 46.3 C56.3 52.24, 49.79 58.71, 43.33 61.11 C36.87 63.52, 27.22 63.09, 20.67 60.72 C14.13 58.36, 7.33 52.87, 4.04 46.91 C0.74 40.95, -0.6 31.41, 0.9 24.95 C2.4 18.5, 7.74 12.36, 13.02 8.16 C18.29 3.97, 29.18 0.88, 32.54 -0.22 C35.89 -1.32, 33.13 0.78, 33.14 1.55" stroke="#1e1e1e" stroke-width="1" fill="none"></path></g><g stroke-linecap="round" transform="translate(500.49730483465646 41.7864950482799) rotate(0 15.77181384011567 15.771813840115556)"><path d="M4.28 5.05 C4.28 5.05, 4.28 5.05, 4.28 5.05 M4.28 5.05 C4.28 5.05, 4.28 5.05, 4.28 5.05 M0.74 15.22 C4.93 10.1, 11.57 4.22, 14.52 -0.63 M0.74 15.22 C6.36 9.55, 10.76 3.19, 14.52 -0.63 M1.79 20.11 C5.76 15.4, 8.05 12.4, 18.19 1.24 M1.79 20.11 C8.39 13.64, 14.49 5.83, 18.19 1.24 M2.84 25 C7.88 18.45, 15.22 11.34, 22.52 2.36 M2.84 25 C10 15.97, 17.71 8, 22.52 2.36 M5.86 27.62 C10.96 21.69, 16.82 13.49, 26.2 4.22 M5.86 27.62 C12.99 20.41, 19.15 12.29, 26.2 4.22 M9.54 29.49 C15.63 22.63, 19.81 17.75, 28.56 7.6 M9.54 29.49 C14.76 23.34, 19.73 17.01, 28.56 7.6 M13.21 31.36 C17.55 26.09, 21.08 22.78, 30.93 10.98 M13.21 31.36 C19.98 23.31, 27.53 15.01, 30.93 10.98 M18.85 30.97 C23.15 27, 26.91 23.35, 30.66 17.38 M18.85 30.97 C22.56 27.31, 25.7 23.09, 30.66 17.38 M2.47 24.6 C2.47 24.6, 2.47 24.6, 2.47 24.6 M2.47 24.6 C2.47 24.6, 2.47 24.6, 2.47 24.6 M14.9 30.11 C10.49 25.61, 6.48 22.88, 0.56 17.64 M14.9 30.11 C10.41 26.38, 5.75 21.83, 0.56 17.64 M20.55 29.71 C13.66 22.74, 5.78 17.4, 0.92 12.66 M20.55 29.71 C13.44 23.19, 5.79 16.85, 0.92 12.66 M24.68 28.01 C18.57 23.8, 13.92 17.41, 2.79 8.98 M24.68 28.01 C17.54 22.52, 10.81 16.69, 2.79 8.98 M27.3 24.99 C21.47 18.78, 13.49 13.89, 4.66 5.31 M27.3 24.99 C21.07 19.11, 13.88 13.51, 4.66 5.31 M29.93 21.97 C23.03 14.82, 16.08 9.22, 8.04 2.94 M29.93 21.97 C25.99 18.38, 21.14 14.29, 8.04 2.94 M31.04 17.64 C23.18 11.7, 15.93 4.83, 11.42 0.58 M31.04 17.64 C23.89 11.62, 16.88 5.19, 11.42 0.58 M31.4 12.65 C27.16 7.93, 22.44 5.2, 17.06 0.19 M31.4 12.65 C28.17 9.4, 24.42 6.22, 17.06 0.19" stroke="#228be6" stroke-width="0.5" fill="none"></path><path d="M14.14 -0.34 C17.3 -0.87, 22.04 0.84, 24.88 2.81 C27.72 4.78, 30.37 8.2, 31.18 11.48 C31.98 14.77, 31.14 19.38, 29.71 22.52 C28.29 25.66, 25.6 28.88, 22.61 30.32 C19.62 31.77, 15.08 32.08, 11.78 31.17 C8.48 30.26, 4.75 27.57, 2.8 24.89 C0.86 22.2, -0.18 18.43, 0.12 15.06 C0.42 11.7, 2.03 7.23, 4.61 4.68 C7.18 2.12, 13.58 0.51, 15.55 -0.27 C17.52 -1.05, 16.47 -0.27, 16.41 0.02 M19.27 -0.22 C22.56 -0.02, 25.82 2.26, 27.92 5.02 C30.02 7.78, 31.87 12.73, 31.88 16.35 C31.88 19.98, 30.26 24.22, 27.96 26.77 C25.67 29.32, 21.36 31.32, 18.12 31.63 C14.87 31.94, 11.28 30.36, 8.48 28.65 C5.69 26.93, 2.46 24.38, 1.32 21.35 C0.18 18.32, 0.5 13.71, 1.63 10.46 C2.76 7.21, 5.19 3.51, 8.1 1.84 C11.02 0.17, 17.32 0.56, 19.12 0.44 C20.91 0.32, 19.11 0.81, 18.87 1.13" stroke="#000000" stroke-width="1" fill="none"></path></g><g stroke-linecap="round" transform="translate(179.3960611121763 366.06221897063097) rotate(0 47.315441520346894 47.31544152034712)"><path d="M21.93 7.14 C21.93 7.14, 21.93 7.14, 21.93 7.14 M21.93 7.14 C21.93 7.14, 21.93 7.14, 21.93 7.14 M3.95 33.91 C11.8 25.6, 21.72 12.95, 28.88 5.23 M3.95 33.91 C10.29 27.01, 17.49 19.05, 28.88 5.23 M3.03 41.06 C15.98 25.14, 27.44 12.53, 35.84 3.33 M3.03 41.06 C8.75 33.94, 16.54 25.44, 35.84 3.33 M2.12 48.22 C11.4 39.25, 21.64 26.66, 42.79 1.42 M2.12 48.22 C12.15 36.03, 24.12 22.39, 42.79 1.42 M1.2 55.37 C17.69 37.25, 37.48 16.98, 47.78 1.78 M1.2 55.37 C15.85 39.45, 29.59 22.9, 47.78 1.78 M3.56 58.75 C19.36 37.96, 34.9 20.97, 52.77 2.14 M3.56 58.75 C14.09 46.86, 25.43 33.35, 52.77 2.14 M5.27 62.88 C21.81 44.22, 36.32 28.15, 57.1 3.26 M5.27 62.88 C20.91 43.46, 37.34 24.88, 57.1 3.26 M6.97 67.01 C21.55 51.3, 34.86 36.1, 61.43 4.37 M6.97 67.01 C21.65 49.23, 37.86 31.62, 61.43 4.37 M8.68 71.15 C30.14 47.25, 48.39 21.99, 65.76 5.49 M8.68 71.15 C28.44 47.26, 48.42 23.61, 65.76 5.49 M10.39 75.28 C32.09 51.38, 52.79 27.23, 70.75 5.85 M10.39 75.28 C25.04 57.43, 39.08 41.95, 70.75 5.85 M12.1 79.41 C33.22 53.57, 53.54 29.83, 74.42 7.72 M12.1 79.41 C29.62 58.73, 47.81 38.83, 74.42 7.72 M15.77 81.28 C32.9 61.83, 54.54 40.74, 76.78 11.1 M15.77 81.28 C29.44 65.52, 45.48 48.31, 76.78 11.1 M19.44 83.15 C38.51 57.81, 58.45 38.15, 79.8 13.72 M19.44 83.15 C32.71 66.23, 48.04 51.94, 79.8 13.72 M22.46 85.78 C35.99 71.95, 46.04 58.53, 82.17 17.1 M22.46 85.78 C37.45 67.96, 53.55 49.64, 82.17 17.1 M26.14 87.65 C46.96 62.79, 71.63 36.89, 84.53 20.48 M26.14 87.65 C41.3 71.03, 55.01 55.39, 84.53 20.48 M29.81 89.52 C40.72 74.75, 52.98 61.39, 86.89 23.86 M29.81 89.52 C45.97 70.34, 62.25 51.95, 86.89 23.86 M32.83 92.14 C50.92 74.31, 65.94 56.63, 89.91 26.48 M32.83 92.14 C48.14 73.44, 64.54 55.12, 89.91 26.48 M37.82 92.5 C57.24 71.61, 71.58 52.33, 90.96 31.37 M37.82 92.5 C52.04 75.4, 66 59.04, 90.96 31.37 M43.46 92.11 C59.03 73.7, 76.74 52.95, 91.35 37.01 M43.46 92.11 C61.5 71.66, 79.76 48.79, 91.35 37.01 M48.45 92.47 C62.79 73.45, 77.73 56.68, 92.41 41.9 M48.45 92.47 C57.16 82.21, 66.55 72.18, 92.41 41.9 M54.09 92.07 C69.77 75.36, 80.55 59.88, 93.46 46.79 M54.09 92.07 C65.61 77.62, 79.74 63.09, 93.46 46.79 M59.08 92.43 C64.96 84.45, 73.35 75.92, 93.85 52.43 M59.08 92.43 C68.36 81.67, 76.82 71.26, 93.85 52.43 M67.35 89.02 C74.22 81.4, 81.2 73.9, 92.28 60.34 M67.35 89.02 C75.21 80.29, 84.61 70.34, 92.28 60.34 M78.89 81.83 C81.21 80.51, 82.86 77.68, 86.77 72.78 M78.89 81.83 C80.31 79.58, 83.03 76.71, 86.77 72.78 M11.44 78.29 C11.44 78.29, 11.44 78.29, 11.44 78.29 M11.44 78.29 C11.44 78.29, 11.44 78.29, 11.44 78.29 M32.93 91.68 C25.23 85.16, 14.2 77.36, 8.03 70.03 M32.93 91.68 C23.45 83.14, 14.61 76.03, 8.03 70.03 M38.58 91.28 C25.08 82, 13.34 71.36, 4.62 61.76 M38.58 91.28 C24.73 80.95, 11.21 67.93, 4.62 61.76 M44.97 91.54 C31.62 77.85, 17.43 68.56, 1.2 53.49 M44.97 91.54 C33.37 80.86, 23.73 73.03, 1.2 53.49 M51.37 91.8 C33.54 75.61, 16.42 61.7, 1.56 48.5 M51.37 91.8 C38.8 81.55, 27.92 71.9, 1.56 48.5 M57.02 91.41 C40.25 77.21, 24.29 61.97, 2.68 44.17 M57.02 91.41 C38.72 76.6, 22.2 60.13, 2.68 44.17 M62.66 91.01 C40.04 73.43, 20.92 52.63, 3.04 39.19 M62.66 91.01 C39.32 69.23, 15.68 49.75, 3.04 39.19 M66.04 88.65 C46.27 71.08, 28.34 56.28, 3.4 34.2 M66.04 88.65 C50.16 75.24, 34.44 62.79, 3.4 34.2 M69.42 86.29 C43.05 65.38, 18.53 40.97, 4.51 29.87 M69.42 86.29 C45.74 66.11, 23.56 45.66, 4.51 29.87 M73.55 84.58 C52.03 69.32, 33.43 50.13, 6.38 26.19 M73.55 84.58 C50.21 63.84, 26.03 44.08, 6.38 26.19 M76.93 82.22 C52.4 61.28, 31.52 42.51, 9.01 23.17 M76.93 82.22 C61.41 69.01, 47.12 56.58, 9.01 23.17 M80.31 79.86 C64.74 64.17, 47.78 52.85, 11.63 20.16 M80.31 79.86 C53.56 57.21, 26.27 32.1, 11.63 20.16 M83.69 77.49 C56.74 52.76, 29.61 29.22, 14.25 17.14 M83.69 77.49 C57.93 53.46, 30.97 30.39, 14.25 17.14 M85.56 73.82 C63.24 54.96, 45.13 35.84, 16.12 13.46 M85.56 73.82 C71.25 60.27, 56.2 48.72, 16.12 13.46 M87.43 70.14 C69.09 51.45, 48.43 35.02, 18.75 10.44 M87.43 70.14 C71.54 56.66, 55.94 42.71, 18.75 10.44 M89.3 66.47 C67.61 48.05, 48.15 30.37, 21.37 7.42 M89.3 66.47 C71.45 51.11, 54.77 37.47, 21.37 7.42 M90.41 62.14 C68.18 41.72, 41.94 20.57, 25.51 5.72 M90.41 62.14 C73.22 47.65, 55.82 31.54, 25.51 5.72 M92.28 58.46 C72.4 40.08, 51.64 22.33, 30.39 4.67 M92.28 58.46 C77.76 45.66, 63.48 34.09, 30.39 4.67 M94.15 54.79 C82.22 43.09, 68.17 33.45, 35.28 3.62 M94.15 54.79 C73.08 36.21, 52.2 18.34, 35.28 3.62 M93.75 49.15 C79.69 37.12, 61.63 24.41, 40.17 2.57 M93.75 49.15 C77.1 34.4, 59.7 19.35, 40.17 2.57 M92.61 42.85 C76.62 25.35, 55.06 12.17, 45.06 1.51 M92.61 42.85 C78.41 29.8, 62.71 16.81, 45.06 1.51 M92.21 37.2 C80.48 25.86, 68.91 20.12, 50.7 1.12 M92.21 37.2 C80.32 26.06, 67.72 16.41, 50.7 1.12 M91.06 30.9 C85.96 24.04, 78.94 19.72, 58.61 2.69 M91.06 30.9 C82.77 21.98, 73.33 15.88, 58.61 2.69 M83.12 18.7 C79.56 15.99, 71.26 11.76, 66.52 4.27 M83.12 18.7 C78.29 15.33, 74.38 10.8, 66.52 4.27" stroke="#12b886" stroke-width="0.5" fill="none"></path><path d="M46.52 0.78 C54.78 -0.08, 65.99 1.91, 73.23 6.34 C80.47 10.76, 86.51 19.38, 89.97 27.33 C93.42 35.29, 95 45.63, 93.98 54.06 C92.96 62.5, 89.35 71.61, 83.86 77.96 C78.37 84.32, 69.39 89.85, 61.03 92.21 C52.67 94.57, 41.93 94.39, 33.71 92.11 C25.5 89.84, 17.2 84.92, 11.74 78.55 C6.28 72.19, 2.25 62.24, 0.96 53.93 C-0.33 45.62, 0.46 36.54, 3.99 28.7 C7.52 20.86, 12.92 11.54, 22.14 6.89 C31.36 2.24, 51.26 0.73, 59.29 0.82 C67.32 0.92, 70.61 6.58, 70.31 7.46 M31.95 4.12 C39.46 0.61, 51.23 -0.41, 59.34 1.23 C67.46 2.87, 74.81 7.6, 80.65 13.95 C86.48 20.3, 92.66 30.79, 94.34 39.33 C96.01 47.88, 94.1 57.41, 90.72 65.21 C87.34 73, 80.8 81.05, 74.06 86.11 C67.31 91.16, 58.41 94.94, 50.25 95.55 C42.08 96.16, 32.68 94, 25.05 89.76 C17.43 85.53, 8.48 77.74, 4.49 70.15 C0.51 62.57, 0.02 52.72, 1.12 44.28 C2.22 35.83, 6.02 26.55, 11.07 19.5 C16.13 12.44, 27.98 4.55, 31.46 1.94 C34.94 -0.67, 31.49 3.02, 31.95 3.85" stroke="#000000" stroke-width="1" fill="none"></path></g><g stroke-linecap="round" transform="translate(229.79858735571725 426.56548067113636) rotate(0 31.543627680231225 31.54362768023111)"><path d="M11.33 8.53 C11.33 8.53, 11.33 8.53, 11.33 8.53 M11.33 8.53 C11.33 8.53, 11.33 8.53, 11.33 8.53 M1.23 26.24 C8.25 19.64, 13.34 14.24, 20.25 4.36 M1.23 26.24 C6.96 18.01, 14.57 10.06, 20.25 4.36 M2.28 31.13 C8.98 24.74, 12.4 17.23, 29.83 -0.57 M2.28 31.13 C10.56 21.22, 20.11 10.33, 29.83 -0.57 M3.33 36.02 C9.33 26.58, 16.71 18.2, 34.17 0.55 M3.33 36.02 C10.3 28.11, 17.55 18.74, 34.17 0.55 M3.73 41.66 C16.25 28.13, 29 14.92, 37.84 2.42 M3.73 41.66 C12.5 30.48, 20.6 21.68, 37.84 2.42 M4.78 46.55 C19.03 28.94, 33.15 14.17, 42.17 3.53 M4.78 46.55 C14.8 35.17, 24.73 22.7, 42.17 3.53 M7.14 49.93 C15.71 37.24, 28.38 26.48, 45.85 5.4 M7.14 49.93 C14.31 40.17, 22.53 31.81, 45.85 5.4 M10.16 52.56 C19.65 41.82, 30.1 30.13, 50.18 6.52 M10.16 52.56 C20.13 43.26, 29.18 31.74, 50.18 6.52 M13.18 55.18 C29.83 39.87, 44.06 22.09, 53.2 9.14 M13.18 55.18 C22.43 42.65, 34.67 30.31, 53.2 9.14 M16.2 57.8 C25.1 47.63, 38.77 32.13, 54.9 13.28 M16.2 57.8 C31.87 39.43, 47.67 22.28, 54.9 13.28 M19.21 60.43 C31.54 46.37, 42.86 35.73, 57.27 16.65 M19.21 60.43 C32.97 45.8, 46.34 28.59, 57.27 16.65 M22.89 62.3 C31.68 51.03, 43.06 37.74, 59.63 20.03 M22.89 62.3 C36.13 46.27, 50.12 31.67, 59.63 20.03 M27.88 62.66 C39.61 49.14, 52.77 32.22, 61.99 23.41 M27.88 62.66 C34.85 54.92, 41.96 46.25, 61.99 23.41 M33.52 62.26 C44.75 50.19, 56.08 36.33, 63.04 28.3 M33.52 62.26 C39.74 53.59, 46.83 45.99, 63.04 28.3 M39.16 61.87 C45.85 52.59, 53.84 44.93, 62.12 35.45 M39.16 61.87 C47.36 52.82, 54.36 46.26, 62.12 35.45 M44.15 62.23 C51.32 55.29, 53.4 50.51, 61.21 42.61 M44.15 62.23 C50.37 53.76, 57.72 45.96, 61.21 42.61 M5.24 48.84 C5.24 48.84, 5.24 48.84, 5.24 48.84 M5.24 48.84 C5.24 48.84, 5.24 48.84, 5.24 48.84 M23.72 59.6 C19.33 53.45, 9.26 49.37, 4.09 42.54 M23.72 59.6 C19.19 55.73, 14.44 52.54, 4.09 42.54 M29.36 59.21 C18.58 52.36, 9.38 41.98, 2.94 36.24 M29.36 59.21 C24.84 53.42, 18.79 50.62, 2.94 36.24 M35 58.81 C28.77 52.82, 17.38 45.02, 1.8 29.94 M35 58.81 C23.61 48.67, 10.98 39.51, 1.8 29.94 M43.66 61.04 C29.29 46.12, 11.7 34.66, 2.16 24.96 M43.66 61.04 C27.68 46.48, 10.19 32.28, 2.16 24.96 M47.04 58.68 C31.57 44.33, 18.42 33.33, 4.03 21.28 M47.04 58.68 C32.82 45.02, 17.51 33.04, 4.03 21.28 M49.67 55.66 C32.37 39.97, 17.57 29.58, 5.89 17.61 M49.67 55.66 C34.99 42.49, 20.15 30.36, 5.89 17.61 M53.05 53.3 C40.29 39.51, 23.12 28.25, 8.52 14.59 M53.05 53.3 C40.27 42.34, 29.34 31.74, 8.52 14.59 M55.67 50.28 C42.14 40.67, 33.66 30.04, 10.39 10.91 M55.67 50.28 C45.14 41.17, 36.29 33.35, 10.39 10.91 M59.05 47.91 C47.08 39.43, 37.68 27.55, 12.26 7.24 M59.05 47.91 C44.98 34.84, 30.14 23.47, 12.26 7.24 M61.67 44.9 C46.83 32.79, 29.12 18.93, 16.39 5.53 M61.67 44.9 C45.82 31.48, 28.44 17.16, 16.39 5.53 M62.79 40.56 C44.55 26.73, 29.45 11.87, 20.53 3.83 M62.79 40.56 C46.67 27.72, 31.95 12.62, 20.53 3.83 M63.15 35.58 C48.07 23.76, 36.4 12.8, 23.9 1.46 M63.15 35.58 C53.83 26.09, 42.67 18.77, 23.9 1.46 M63.51 30.59 C55.4 22.57, 45.33 13.84, 28.04 -0.24 M63.51 30.59 C50.51 18.36, 36.1 7.74, 28.04 -0.24 M63.11 24.95 C51.4 15.22, 41.33 6.06, 32.17 -1.95 M63.11 24.95 C52.05 16.47, 42.14 5.26, 32.17 -1.95 M56.68 14.06 C51.54 8.67, 47.21 5.03, 43.1 2.25 M56.68 14.06 C51.52 10.85, 48.52 7.22, 43.1 2.25" stroke="#12b886" stroke-width="0.5" fill="none"></path><path d="M30.95 -0.89 C37.35 -1.47, 46.27 2.81, 51.58 7.23 C56.9 11.65, 61.49 18.94, 62.82 25.64 C64.16 32.34, 62.82 41.4, 59.6 47.4 C56.37 53.4, 49.92 59.18, 43.48 61.65 C37.04 64.12, 27.38 64.38, 20.96 62.2 C14.53 60.03, 8.25 54.62, 4.95 48.59 C1.65 42.56, 0.08 32.73, 1.15 26.04 C2.22 19.36, 5.82 12.84, 11.38 8.47 C16.94 4.1, 30.21 0.99, 34.52 -0.19 C38.83 -1.37, 37.5 0.86, 37.26 1.39 M26.11 0.32 C32.58 -1.05, 41.72 1.83, 47.37 5.05 C53.03 8.26, 57.69 13.7, 60.03 19.59 C62.38 25.48, 63.58 33.77, 61.42 40.39 C59.26 47, 53 55.37, 47.08 59.29 C41.15 63.21, 32.38 65.13, 25.89 63.91 C19.39 62.69, 12.31 56.97, 8.1 51.97 C3.88 46.96, 1.01 40.67, 0.61 33.87 C0.21 27.06, 1.61 16.68, 5.7 11.13 C9.78 5.59, 21.87 2.08, 25.11 0.62 C28.36 -0.83, 24.92 1.96, 25.17 2.39" stroke="#000000" stroke-width="1" fill="none"></path></g><g stroke-linecap="round" transform="translate(387.55211310478103 151.50458284074375) rotate(0 15.77181384011567 15.771813840115556)"><path d="M0.98 10.13 C0.98 10.13, 0.98 10.13, 0.98 10.13 M0.98 10.13 C0.98 10.13, 0.98 10.13, 0.98 10.13 M1.38 15.77 C6.51 11.52, 9.21 6.04, 13.84 1.43 M1.38 15.77 C5.72 11.41, 10.05 5.91, 13.84 1.43 M1.77 21.41 C7.26 15.17, 13.16 7.36, 19.48 1.04 M1.77 21.41 C6.76 16.21, 10.81 10.78, 19.48 1.04 M4.13 24.79 C11.52 17.46, 17.46 8.33, 23.16 2.91 M4.13 24.79 C8.56 20.48, 12.65 15.5, 23.16 2.91 M7.15 27.42 C15.31 19.25, 22.53 10.3, 26.83 4.78 M7.15 27.42 C15.09 18.3, 22.61 9.4, 26.83 4.78 M10.17 30.04 C13.73 25.02, 17.72 20, 29.2 8.16 M10.17 30.04 C14.26 24.95, 18.42 20.55, 29.2 8.16 M15.16 30.4 C17.93 26.17, 22.66 22.46, 30.9 12.29 M15.16 30.4 C19.65 25.01, 24.14 19.44, 30.9 12.29 M20.8 30.01 C24.24 26.77, 27.45 22.41, 31.95 17.18 M20.8 30.01 C24.83 25.92, 28.43 21.14, 31.95 17.18 M7.15 28.35 C7.15 28.35, 7.15 28.35, 7.15 28.35 M7.15 28.35 C7.15 28.35, 7.15 28.35, 7.15 28.35 M15.82 30.58 C11.43 27.85, 8.93 24.09, 1.48 18.12 M15.82 30.58 C12.37 27.07, 8.07 23.57, 1.48 18.12 M20.7 29.53 C14.84 23.45, 6.94 17.43, 1.84 13.13 M20.7 29.53 C14.05 24.19, 7.94 17.68, 1.84 13.13 M24.84 27.82 C17.38 21.52, 8.68 14.49, 2.2 8.14 M24.84 27.82 C18.56 22.47, 11.87 16.4, 2.2 8.14 M28.22 25.46 C21.06 20.5, 15.3 13.9, 5.58 5.78 M28.22 25.46 C22.03 20.38, 16.55 15.39, 5.58 5.78 M30.09 21.79 C25.93 17.97, 20.67 13.88, 8.2 2.76 M30.09 21.79 C22.83 15.43, 14.62 8.64, 8.2 2.76 M31.96 18.11 C27.61 13.72, 20.86 9.95, 13.09 1.71 M31.96 18.11 C27.18 13.5, 22.01 9.31, 13.09 1.71 M30.05 11.16 C25.67 8.42, 22.1 5.16, 17.98 0.66 M30.05 11.16 C26.96 8.64, 23.71 6.22, 17.98 0.66" stroke="#7950f2" stroke-width="0.5" fill="none"></path><path d="M18.95 0.75 C22.09 1.11, 25.91 2.9, 28.06 5.57 C30.21 8.24, 31.92 13.34, 31.82 16.76 C31.73 20.18, 29.82 23.71, 27.48 26.08 C25.13 28.45, 21.08 30.53, 17.75 30.96 C14.43 31.39, 10.27 30.43, 7.53 28.68 C4.78 26.92, 2.31 23.57, 1.27 20.42 C0.23 17.27, 0.03 12.88, 1.27 9.79 C2.51 6.7, 5.63 3.52, 8.71 1.89 C11.78 0.27, 17.86 0.15, 19.73 0.06 C21.59 -0.04, 20.04 1.05, 19.89 1.34 M13.64 -0.39 C16.76 -0.99, 21.16 1.28, 23.97 3.03 C26.78 4.78, 29.38 7.1, 30.51 10.1 C31.65 13.1, 32.07 17.77, 30.79 21.04 C29.51 24.31, 25.86 28.01, 22.82 29.71 C19.78 31.42, 15.82 31.85, 12.55 31.27 C9.28 30.68, 5.23 28.83, 3.2 26.2 C1.18 23.58, 0.25 19.09, 0.4 15.52 C0.55 11.96, 1.87 7.43, 4.12 4.79 C6.37 2.15, 12.4 0.52, 13.89 -0.31 C15.38 -1.15, 13.06 -0.5, 13.08 -0.23" stroke="#000000" stroke-width="1" fill="none"></path></g></svg>