<svg xmlns="http://www.w3.org/2000/svg" xmlns:xlink="http://www.w3.org/1999/xlink" viewBox="0 0 1050 1050" width="1050" height="1050" preserveAspectRatio="xMidYMid meet" style="width: 100%; height: 100%; transform: translate3d(0px, 0px, 0px); content-visibility: visible;"><defs><clipPath id="__lottie_element_43"><rect width="1050" height="1050" x="0" y="0"></rect></clipPath><clipPath id="__lottie_element_57"><path d="M0,0 L1050,0 L1050,1050 L0,1050z"></path></clipPath><radialGradient id="__lottie_element_66" spreadMethod="pad" gradientUnits="userSpaceOnUse" cx="0" cy="0" r="6.764207579181028" fx="0" fy="0"><stop offset="0%" stop-color="rgb(213,145,254)"></stop><stop offset="41%" stop-color="rgb(213,145,254)"></stop><stop offset="100%" stop-color="rgb(213,145,254)"></stop></radialGradient><mask id="__lottie_element_68"><path fill="url(#__lottie_element_67)" d=" M0,-6 C3.3113999366760254,-6 6,-3.3113999366760254 6,0 C6,3.3113999366760254 3.3113999366760254,6 0,6 C-3.3113999366760254,6 -6,3.3113999366760254 -6,0 C-6,-3.3113999366760254 -3.3113999366760254,-6 0,-6z"></path></mask><radialGradient id="__lottie_element_67" spreadMethod="pad" gradientUnits="userSpaceOnUse" cx="0" cy="0" r="6.764207579181028" fx="0" fy="0"><stop stop-color="rgb(255,255,255)" offset="0%" stop-opacity="1"></stop><stop stop-color="rgb(255,255,255)" offset="55%" stop-opacity="0.5"></stop><stop stop-color="rgb(255,255,255)" offset="100%" stop-opacity="0"></stop></radialGradient><radialGradient id="__lottie_element_75" spreadMethod="pad" gradientUnits="userSpaceOnUse" cx="0" cy="0" r="6.3572372853405" fx="0" fy="0"><stop offset="0%" stop-color="rgb(213,145,254)"></stop><stop offset="41%" stop-color="rgb(213,145,254)"></stop><stop offset="100%" stop-color="rgb(213,145,254)"></stop></radialGradient><mask id="__lottie_element_77"><path fill="url(#__lottie_element_76)" d=" M0,-6 C3.3113999366760254,-6 6,-3.3113999366760254 6,0 C6,3.3113999366760254 3.3113999366760254,6 0,6 C-3.3113999366760254,6 -6,3.3113999366760254 -6,0 C-6,-3.3113999366760254 -3.3113999366760254,-6 0,-6z"></path></mask><radialGradient id="__lottie_element_76" spreadMethod="pad" gradientUnits="userSpaceOnUse" cx="0" cy="0" r="6.3572372853405" fx="0" fy="0"><stop stop-color="rgb(255,255,255)" offset="0%" stop-opacity="1"></stop><stop stop-color="rgb(255,255,255)" offset="55%" stop-opacity="0.5"></stop><stop stop-color="rgb(255,255,255)" offset="100%" stop-opacity="0"></stop></radialGradient><radialGradient id="__lottie_element_81" spreadMethod="pad" gradientUnits="userSpaceOnUse" cx="0" cy="0" r="6.764207579181028" fx="0" fy="0"><stop offset="0%" stop-color="rgb(213,145,254)"></stop><stop offset="41%" stop-color="rgb(213,145,254)"></stop><stop offset="100%" stop-color="rgb(213,145,254)"></stop></radialGradient><mask id="__lottie_element_83"><path fill="url(#__lottie_element_82)" d=" M0,-6 C3.3113999366760254,-6 6,-3.3113999366760254 6,0 C6,3.3113999366760254 3.3113999366760254,6 0,6 C-3.3113999366760254,6 -6,3.3113999366760254 -6,0 C-6,-3.3113999366760254 -3.3113999366760254,-6 0,-6z"></path></mask><radialGradient id="__lottie_element_82" spreadMethod="pad" gradientUnits="userSpaceOnUse" cx="0" cy="0" r="6.764207579181028" fx="0" fy="0"><stop stop-color="rgb(255,255,255)" offset="0%" stop-opacity="1"></stop><stop stop-color="rgb(255,255,255)" offset="55%" stop-opacity="0.5"></stop><stop stop-color="rgb(255,255,255)" offset="100%" stop-opacity="0"></stop></radialGradient></defs><g clip-path="url(#__lottie_element_43)"><g transform="matrix(0.9346396327018738,-0.3555963933467865,0.3555963933467865,0.9346396327018738,525,523)" opacity="1" style="display: block;"><g opacity="1" transform="matrix(1,0,0,1,0,0)"><path stroke-linecap="butt" stroke-linejoin="miter" fill-opacity="0" stroke-miterlimit="4" stroke="rgb(213,145,254)" stroke-opacity="1" stroke-width="1" d=" M0,-503 C277.605712890625,-503 503,-277.605712890625 503,0 C503,277.605712890625 277.605712890625,503 0,503 C-277.605712890625,503 -503,277.605712890625 -503,0 C-503,-277.605712890625 -277.605712890625,-503 0,-503z"></path></g></g><g transform="matrix(-0.6471757292747498,-0.7623408436775208,0.7623408436775208,-0.6471757292747498,525,523)" opacity="1" style="display: block;"><g opacity="1" transform="matrix(1,0,0,1,0,0)"><path stroke-linecap="butt" stroke-linejoin="miter" fill-opacity="0" stroke-miterlimit="4" stroke="rgb(213,145,254)" stroke-opacity="1" stroke-width="1" d=" M0,-503 C277.605712890625,-503 503,-277.605712890625 503,0 C503,277.605712890625 277.605712890625,503 0,503 C-277.605712890625,503 -503,277.605712890625 -503,0 C-503,-277.605712890625 -277.605712890625,-503 0,-503z"></path></g></g><g transform="matrix(-0.26920557022094727,0.9630827307701111,-0.9630827307701111,-0.26920557022094727,525,523)" opacity="1" style="display: block;"><g opacity="1" transform="matrix(1,0,0,1,0,0)"><path stroke-linecap="butt" stroke-linejoin="miter" fill-opacity="0" stroke-miterlimit="4" stroke="rgb(213,145,254)" stroke-opacity="1" stroke-width="1" d=" M0,-503 C277.605712890625,-503 503,-277.605712890625 503,0 C503,277.605712890625 277.605712890625,503 0,503 C-277.605712890625,503 -503,277.605712890625 -503,0 C-503,-277.605712890625 -277.605712890625,-503 0,-503z"></path></g></g><g transform="matrix(-0.9346396327018738,0.3555963933467865,0.3555963933467865,0.9346396327018738,746.2640380859375,976.9671630859375)" opacity="1" style="display: block;"><g opacity="1" transform="matrix(1,0,0,1,0,0)"><path fill="rgb(213,145,254)" fill-opacity="1" d=" M0,-6 C3.3113999366760254,-6 6,-3.3113999366760254 6,0 C6,3.3113999366760254 3.3113999366760254,6 0,6 C-3.3113999366760254,6 -6,3.3113999366760254 -6,0 C-6,-3.3113999366760254 -3.3113999366760254,-6 0,-6z"></path></g></g><g clip-path="url(#__lottie_element_57)" transform="matrix(-0.3338068723678589,0.9426414966583252,-0.9426414966583252,-0.3338068723678589,1193.2501220703125,202.6942138671875)" opacity="1" style="display: block;"><g transform="matrix(-0.6469411253929138,0,0,-0.2795882523059845,879.0770263671875,162.89842224121094)" opacity="1" style="display: block;"><g opacity="1" transform="matrix(1,0,0,1,0,0)"><path fill="url(#__lottie_element_81)" mask="url(#__lottie_element_83)" fill-opacity="1" d="M0 0 M0,-6 C3.3113999366760254,-6 6,-3.3113999366760254 6,0 C6,3.3113999366760254 3.3113999366760254,6 0,6 C-3.3113999366760254,6 -6,3.3113999366760254 -6,0 C-6,-3.3113999366760254 -3.3113999366760254,-6 0,-6z"></path></g></g></g><g transform="matrix(0.6471757292747498,0.7623408436775208,0.7623408436775208,-0.6471757292747498,879.0751342773438,162.89613342285156)" opacity="1" style="display: block;"><g opacity="1" transform="matrix(1,0,0,1,0,0)"><path fill="rgb(213,145,254)" fill-opacity="1" d=" M0,-6 C3.3113999366760254,-6 6,-3.3113999366760254 6,0 C6,3.3113999366760254 3.3113999366760254,6 0,6 C-3.3113999366760254,6 -6,3.3113999366760254 -6,0 C-6,-3.3113999366760254 -3.3113999366760254,-6 0,-6z"></path></g></g><g transform="matrix(0.41868460178375244,0.49318963289260864,-0.2131415456533432,0.18094272911548615,879.0751342773438,162.89613342285156)" opacity="1" style="display: block;"><g opacity="1" transform="matrix(1,0,0,1,0,0)"><path fill="url(#__lottie_element_66)" mask="url(#__lottie_element_68)" fill-opacity="1" d="M0 0 M0,-6 C3.3113999366760254,-6 6,-3.3113999366760254 6,0 C6,3.3113999366760254 3.3113999366760254,6 0,6 C-3.3113999366760254,6 -6,3.3113999366760254 -6,0 C-6,-3.3113999366760254 -3.3113999366760254,-6 0,-6z"></path></g></g><g transform="matrix(0.26920557022094727,-0.9630827307701111,-0.9630827307701111,-0.26920557022094727,28.377422332763672,431.2939758300781)" opacity="1" style="display: block;"><g opacity="1" transform="matrix(1,0,0,1,0,0)"><path fill="rgb(213,145,254)" fill-opacity="1" d=" M0,-6 C3.3113999366760254,-6 6,-3.3113999366760254 6,0 C6,3.3113999366760254 3.3113999366760254,6 0,6 C-3.3113999366760254,6 -6,3.3113999366760254 -6,0 C-6,-3.3113999366760254 -3.3113999366760254,-6 0,-6z"></path></g></g><g transform="matrix(0.1741601526737213,-0.6230578422546387,0.26926660537719727,0.07526671141386032,28.377422332763672,431.2939758300781)" opacity="1" style="display: block;"><g opacity="1" transform="matrix(1,0,0,1,0,0)"><path fill="url(#__lottie_element_75)" mask="url(#__lottie_element_77)" fill-opacity="1" d="M0 0 M0,-6 C3.3113999366760254,-6 6,-3.3113999366760254 6,0 C6,3.3113999366760254 3.3113999366760254,6 0,6 C-3.3113999366760254,6 -6,3.3113999366760254 -6,0 C-6,-3.3113999366760254 -3.3113999366760254,-6 0,-6z"></path></g></g></g></svg>