<svg version="1.1" xmlns="http://www.w3.org/2000/svg" viewBox="0 0 298.32382203112 157.09932968526255" width="298.32382203112" height="157.09932968526255">
  <!-- svg-source:excalidraw -->
  
  <defs>
    <style class="style-fonts">
      
    </style>
    
  </defs>
  <rect x="0" y="0" width="298.32382203112" height="157.09932968526255" fill="transparent"></rect><g stroke-linecap="round"><g transform="translate(10.724518582969893 11.711294719194939) rotate(0 0 66.5426916975373)"><path d="M-0.72 -0.44 C-0.7 21.74, 0.67 110.1, 0.81 132.49 M1.1 -1.71 C0.98 20.67, 0.56 111.43, 0.29 133.71" stroke="#000000" stroke-width="1" fill="none"></path></g></g><mask></mask><g stroke-linecap="round"><g transform="translate(10.50417234763853 145.39767296901073) rotate(0 137.83843280204152 0)"><path d="M0.81 -0.6 C46.91 -0.39, 230.01 0.82, 275.83 0.82 M-0.22 1.7 C45.79 1.61, 229.09 -0.65, 274.97 -0.88" stroke="#000000" stroke-width="1" fill="none"></path></g></g><mask></mask><g stroke-linecap="round"><g transform="translate(29.64573340634678 129.29682368417662) rotate(0 129.44137884973333 -53.90750202401682)"><path d="M0.09 -0.63 C15.77 -3.94, 65.1 -5.23, 94.24 -19.05 C123.38 -32.88, 147.65 -68.71, 174.92 -83.58 C202.19 -98.45, 243.99 -104.11, 257.84 -108.27 M-1.33 1.66 C14.72 -1.52, 66.76 -3.45, 96.52 -17.53 C126.29 -31.62, 150.43 -67.86, 177.27 -82.84 C204.1 -97.82, 243.8 -103.13, 257.55 -107.41" stroke="#c92a2a" stroke-width="1" fill="none"></path></g></g><mask></mask><g stroke-linecap="round"><g transform="translate(29.575920199407562 125.8947479635658) rotate(0 129.79980413138674 -47.15995654392259)"><path d="M-0.82 -0.04 C19.59 -1.7, 90.88 0.54, 122.53 -10.62 C154.18 -21.78, 166.38 -52.93, 189.08 -67 C211.79 -81.07, 247.04 -90.53, 258.75 -95.04 M0.95 -1.1 C21.71 -2.61, 92.95 1.14, 124.69 -9.66 C156.44 -20.47, 169.12 -51.81, 191.43 -65.92 C213.74 -80.03, 246.88 -89.72, 258.55 -94.32" stroke="#862e9c" stroke-width="1" fill="none"></path></g></g><mask></mask><g stroke-linecap="round"><g transform="translate(86.91411035097025 126.31892251279032) rotate(0 99.81403754630591 -33.27134584876853)"><path d="M-1.05 -1.11 C16.34 -2.77, 78.15 -2.11, 103.53 -9.96 C128.91 -17.82, 135.27 -38.87, 151.25 -48.25 C167.22 -57.64, 191.51 -63.02, 199.38 -66.26 M0.6 0.92 C18.43 -0.57, 80.18 -0.63, 105.7 -8.66 C131.21 -16.7, 138.06 -37.92, 153.69 -47.31 C169.33 -56.7, 191.77 -61.58, 199.5 -65.01" stroke="#2b8a3e" stroke-width="1" fill="none"></path></g></g><mask></mask><g stroke-linecap="round"><g transform="translate(76.74798898742364 116.38864914963187) rotate(0 104.56708695327288 -42.777444662702464)"><path d="M-1.04 -0.46 C8.5 -11.48, 33.87 -53.13, 56.18 -67.26 C78.5 -81.4, 107.54 -83.62, 132.84 -85.28 C158.14 -86.93, 195.36 -78.92, 207.98 -77.21 M0.62 -1.74 C10.63 -12.53, 36.56 -52.43, 58.45 -66.1 C80.34 -79.78, 107.08 -82.04, 131.94 -83.81 C156.8 -85.58, 194.53 -77.73, 207.62 -76.71" stroke="#364fc7" stroke-width="1" fill="none"></path></g></g><mask></mask><g stroke-linecap="round"><g transform="translate(30.0486158403657 126.33472195833065) rotate(0 127.91677352680213 -42.777444662702464)"><path d="M-0.85 -0.72 C8.79 -11.69, 34.66 -51.93, 56.79 -66.26 C78.92 -80.6, 98.85 -93.11, 131.93 -86.72 C165.01 -80.32, 234.65 -37.55, 255.28 -27.92 M0.9 1.51 C10.45 -9.79, 33.49 -53.65, 55.71 -68.24 C77.93 -82.83, 100.96 -92.39, 134.22 -86.01 C167.47 -79.62, 235.25 -39.51, 255.23 -29.93" stroke="#e67700" stroke-width="1" fill="none"></path></g></g><mask></mask><g stroke-linecap="round"><g transform="translate(29.35726354428988 118.53119075562199) rotate(0 128.2624496748399 -53.35481427963123)"><path d="M-0.25 0.28 C9.21 -10.88, 33.77 -50.05, 55.88 -67.7 C77.99 -85.36, 98.97 -108.68, 132.39 -105.67 C165.8 -102.66, 235.56 -58.79, 256.37 -49.65 M1.82 -0.62 C11.7 -11.62, 36.4 -48.97, 57.99 -66.78 C79.57 -84.58, 98.24 -110.5, 131.33 -107.46 C164.42 -104.42, 235.73 -57.94, 256.54 -48.53" stroke="#0b7285" stroke-width="1" fill="none"></path></g></g><mask></mask></svg>