<svg xmlns="http://www.w3.org/2000/svg" version="1.1" xmlns:xlink="http://www.w3.org/1999/xlink" xmlns:svgjs="http://svgjs.dev/svgjs" width="1500" height="257" viewBox="0 0 1500 257"><g transform="matrix(1,0,0,1,-1.1886426128860421,-1.4017821386671443)"><svg viewBox="0 0 396 68" data-background-color="#fafafa" preserveAspectRatio="xMidYMid meet" height="257" width="1500" xmlns="http://www.w3.org/2000/svg" xmlns:xlink="http://www.w3.org/1999/xlink"><g id="tight-bounds" transform="matrix(1,0,0,1,0.31380164980191694,0.3708995541998661)"><svg viewBox="0 0 395.52 67.1138802339149" height="67.1138802339149" width="395.52"><g><svg viewBox="0 0 459.2809818290497 77.93317356439545" height="67.1138802339149" width="395.52"><g transform="matrix(1,0,0,1,63.76098182904975,10.770793162662471)"><svg viewBox="0 0 395.52 56.3915872390705" height="56.3915872390705" width="395.52"><g id="textblocktransform"><svg viewBox="0 0 395.52 56.3915872390705" height="56.3915872390705" width="395.52" id="textblock"><g><svg viewBox="0 0 395.52 56.3915872390705" height="56.3915872390705" width="395.52"><g transform="matrix(1,0,0,1,0,0)"><svg width="395.52" viewBox="3.2 -35.6 253.88 36.2" height="56.3915872390705" data-palette-color="#130912"><path d="M19.4 0L12.7 0 12.7-28.6 12.3-28.6 11.9-27.45 4.8-24.65 3.8-25.25 3.8-30.4 12.2-35 19.9-35 19.4-31 19.4 0ZM27.15 0L3.2 0 3.2-6.2 6.2-5.7 24.15-5.7 27.15-6.2 27.15 0ZM45.05 0.6L45.05 0.6Q42 0.6 39.57-0.23 37.15-1.05 35.42-3.08 33.7-5.1 32.8-8.63 31.9-12.15 31.9-17.5L31.9-17.5Q31.9-22.85 32.8-26.35 33.7-29.85 35.42-31.88 37.15-33.9 39.6-34.75 42.05-35.6 45.1-35.6L45.1-35.6Q48.2-35.6 50.6-34.75 53-33.9 54.67-31.85 56.35-29.8 57.22-26.3 58.1-22.8 58.1-17.5L58.1-17.5Q58.1-12.2 57.22-8.68 56.35-5.15 54.67-3.13 53-1.1 50.57-0.25 48.15 0.6 45.05 0.6ZM45.05-5.1L45.05-5.1Q46.7-5.1 47.85-5.58 49-6.05 49.72-7.38 50.45-8.7 50.77-11.13 51.1-13.55 51.1-17.45L51.1-17.45Q51.1-22.65 50.5-25.33 49.9-28 48.57-28.95 47.25-29.9 45.05-29.9L45.05-29.9Q43.45-29.9 42.3-29.43 41.15-28.95 40.4-27.63 39.65-26.3 39.27-23.85 38.9-21.4 38.9-17.45L38.9-17.45Q38.9-13.5 39.27-11.08 39.65-8.65 40.4-7.35 41.15-6.05 42.3-5.58 43.45-5.1 45.05-5.1ZM45.2-14.65L45.2-14.65Q43.95-14.65 43.1-15.4 42.25-16.15 42.25-17.6L42.25-17.6Q42.25-19.05 43.1-19.8 43.95-20.55 45.2-20.55L45.2-20.55Q46.45-20.55 47.3-19.8 48.15-19.05 48.15-17.6L48.15-17.6Q48.15-16.15 47.3-15.4 46.45-14.65 45.2-14.65ZM75.05 0.6L75.05 0.6Q72 0.6 69.57-0.23 67.15-1.05 65.42-3.08 63.7-5.1 62.8-8.63 61.9-12.15 61.9-17.5L61.9-17.5Q61.9-22.85 62.8-26.35 63.7-29.85 65.42-31.88 67.15-33.9 69.59-34.75 72.05-35.6 75.09-35.6L75.09-35.6Q78.2-35.6 80.59-34.75 83-33.9 84.67-31.85 86.34-29.8 87.22-26.3 88.09-22.8 88.09-17.5L88.09-17.5Q88.09-12.2 87.22-8.68 86.34-5.15 84.67-3.13 83-1.1 80.57-0.25 78.15 0.6 75.05 0.6ZM75.05-5.1L75.05-5.1Q76.7-5.1 77.84-5.58 79-6.05 79.72-7.38 80.45-8.7 80.77-11.13 81.09-13.55 81.09-17.45L81.09-17.45Q81.09-22.65 80.5-25.33 79.9-28 78.57-28.95 77.25-29.9 75.05-29.9L75.05-29.9Q73.45-29.9 72.3-29.43 71.15-28.95 70.4-27.63 69.65-26.3 69.27-23.85 68.9-21.4 68.9-17.45L68.9-17.45Q68.9-13.5 69.27-11.08 69.65-8.65 70.4-7.35 71.15-6.05 72.3-5.58 73.45-5.1 75.05-5.1ZM75.2-14.65L75.2-14.65Q73.95-14.65 73.09-15.4 72.25-16.15 72.25-17.6L72.25-17.6Q72.25-19.05 73.09-19.8 73.95-20.55 75.2-20.55L75.2-20.55Q76.45-20.55 77.3-19.8 78.15-19.05 78.15-17.6L78.15-17.6Q78.15-16.15 77.3-15.4 76.45-14.65 75.2-14.65ZM98.69 0L90.69 0 98.99-12.9 91.39-25.5 99.44-25.5 101.04-21.9 103.84-17.25 104.14-15.75 104.44-15.75 104.74-17.25 107.54-21.9 109.14-25.5 117.29-25.5 109.59-12.9 117.94 0 109.94 0 108.14-3.45 104.74-8.45 104.44-9.95 104.14-9.95 103.84-8.45 100.49-3.45 98.69 0ZM137.79 0L122.24 0 122.74-4 122.74-31 122.24-35 137.04-35Q142.09-35 145.07-32.73 148.04-30.45 148.04-26L148.04-26Q148.04-23.25 146.72-21.25 145.39-19.25 142.29-18.55L142.29-18.55 142.29-18.05Q145.19-17.45 147.17-15.48 149.14-13.5 149.14-9.5L149.14-9.5Q149.14-6.15 147.69-4.08 146.24-2 143.69-1 141.14 0 137.79 0L137.79 0ZM129.64-14.8L129.64-5.8 134.69-5.8Q138.54-5.8 140.14-6.7 141.74-7.6 141.74-10.2L141.74-10.2Q141.74-12.8 140.17-13.8 138.59-14.8 134.69-14.8L134.69-14.8 129.64-14.8ZM129.64-29.2L129.64-20.6 134.09-20.6Q137.14-20.6 138.94-21.38 140.74-22.15 140.74-24.85L140.74-24.85Q140.74-27.55 138.94-28.38 137.14-29.2 134.09-29.2L134.09-29.2 129.64-29.2ZM166.74 0.6L166.74 0.6Q163.09 0.6 160.21-0.73 157.34-2.05 155.69-5 154.04-7.95 154.04-12.8L154.04-12.8Q154.04-16.4 154.99-18.93 155.94-21.45 157.66-23.05 159.39-24.65 161.69-25.38 163.99-26.1 166.74-26.1L166.74-26.1Q169.49-26.1 171.79-25.38 174.09-24.65 175.81-23.05 177.54-21.45 178.49-18.93 179.44-16.4 179.44-12.8L179.44-12.8Q179.44-7.95 177.79-5 176.14-2.05 173.26-0.73 170.39 0.6 166.74 0.6ZM166.74-5L166.74-5Q169.84-5 171.24-6.88 172.64-8.75 172.64-12.8L172.64-12.8Q172.64-15.55 172.04-17.25 171.44-18.95 170.14-19.73 168.84-20.5 166.74-20.5L166.74-20.5Q164.69-20.5 163.36-19.73 162.04-18.95 161.44-17.25 160.84-15.55 160.84-12.8L160.84-12.8Q160.84-8.75 162.24-6.88 163.64-5 166.74-5ZM196.94 0.6L196.94 0.6Q193.29 0.6 190.41-0.73 187.54-2.05 185.89-5 184.24-7.95 184.24-12.8L184.24-12.8Q184.24-16.4 185.19-18.93 186.14-21.45 187.86-23.05 189.59-24.65 191.89-25.38 194.19-26.1 196.94-26.1L196.94-26.1Q199.69-26.1 201.99-25.38 204.29-24.65 206.01-23.05 207.74-21.45 208.69-18.93 209.64-16.4 209.64-12.8L209.64-12.8Q209.64-7.95 207.99-5 206.34-2.05 203.46-0.73 200.59 0.6 196.94 0.6ZM196.94-5L196.94-5Q200.04-5 201.44-6.88 202.84-8.75 202.84-12.8L202.84-12.8Q202.84-15.55 202.24-17.25 201.64-18.95 200.34-19.73 199.04-20.5 196.94-20.5L196.94-20.5Q194.89-20.5 193.56-19.73 192.24-18.95 191.64-17.25 191.04-15.55 191.04-12.8L191.04-12.8Q191.04-8.75 192.44-6.88 193.84-5 196.94-5ZM233.28-24.9L233.28-24.9 233.28-19.7 232.28-19.2Q231.03-19.8 229.46-20.15 227.88-20.5 225.98-20.5L225.98-20.5Q225.13-20.5 223.96-20.35 222.78-20.2 221.91-19.7 221.03-19.2 221.03-18.15L221.03-18.15Q221.03-17.1 222.03-16.55 223.03-16 224.58-15.65 226.13-15.3 227.88-14.88 229.63-14.45 231.18-13.65 232.73-12.85 233.73-11.38 234.73-9.9 234.73-7.45L234.73-7.45Q234.73-4.5 233.26-2.73 231.78-0.95 229.26-0.18 226.73 0.6 223.63 0.6L223.63 0.6Q220.88 0.6 218.56 0.13 216.23-0.35 214.63-0.85L214.63-0.85 214.63-6.3 215.63-6.8Q216.58-6.2 218.43-5.6 220.28-5 223.38-5L223.38-5Q224.78-5 225.88-5.18 226.98-5.35 227.63-5.85 228.28-6.35 228.28-7.2L228.28-7.2Q228.28-8.3 227.31-8.83 226.33-9.35 224.76-9.65 223.18-9.95 221.46-10.35 219.73-10.75 218.16-11.55 216.58-12.35 215.61-13.93 214.63-15.5 214.63-18.15L214.63-18.15Q214.63-20.4 215.41-21.95 216.18-23.5 217.66-24.4 219.13-25.3 221.16-25.7 223.18-26.1 225.68-26.1L225.68-26.1Q228.08-26.1 229.96-25.78 231.83-25.45 233.28-24.9ZM242.23-7.6L242.23-7.6 242.23-29.1 241.98-32.6 249.18-32.6 248.93-29.1 248.93-8.3Q248.93-6.5 249.73-5.83 250.53-5.15 252.53-5.15L252.53-5.15Q253.68-5.15 254.51-5.35 255.33-5.55 256.08-5.9L256.08-5.9 257.08-5.4 257.08-0.15Q255.98 0.15 254.56 0.38 253.13 0.6 251.53 0.6L251.53 0.6Q248.83 0.6 246.73-0.18 244.63-0.95 243.43-2.78 242.23-4.6 242.23-7.6ZM240.43-19.8L237.93-19.55 237.93-25.5 240.23-25.5 245.53-24 250.93-25.5 256.08-25.5 256.08-19.55 253.58-19.8 240.43-19.8Z" opacity="1" transform="matrix(1,0,0,1,0,0)" fill="#130912" class="wordmark-text-0" data-fill-palette-color="primary" id="text-0"></path></svg></g></svg></g></svg></g></svg></g><g><svg viewBox="0 0 50.44828147999894 77.93317356439545" height="77.93317356439545" width="50.44828147999894"><g><svg xmlns="http://www.w3.org/2000/svg" xmlns:xlink="http://www.w3.org/1999/xlink" version="1.1" x="0" y="0" viewBox="0.00011201025608410624 0 19.845291185214382 30.657268731472193" style="enable-background:new 0 0 19.846 30.655;" xml:space="preserve" id="icon-0" width="50.44828147999894" height="77.93317356439545" class="icon-icon-0" data-fill-palette-color="accent"><g fill="#b91c1c" data-fill-palette-color="accent"><path d="M19.806 0.561A0.56 0.56 0 0 0 19.306 0.215L13.357 0C12.417 0 12.153 0.104 11.627 0.757L1.248 14.614A0.57 0.57 0 0 0 1.193 15.199 0.57 0.57 0 0 0 1.693 15.506L7.277 15.525C8.452 15.531 8.888 16.341 8.244 17.325L0.09 29.793A0.563 0.563 0 0 0 0.213 30.539 0.55 0.55 0 0 0 0.96 30.478L18.844 11.673A0.56 0.56 0 0 0 18.949 11.069 0.54 0.54 0 0 0 18.447 10.736L15.561 10.727 12.789 10.717C11.631 10.704 11.335 10.006 12.136 9.155L19.695 1.155A0.57 0.57 0 0 0 19.806 0.561" fill="#b91c1c" data-fill-palette-color="accent"></path></g></svg></g></svg></g></svg></g><defs></defs></svg><rect width="395.52" height="67.1138802339149" fill="none" stroke="none" visibility="hidden"></rect></g></svg></g></svg>