<svg version="1.1" xmlns="http://www.w3.org/2000/svg" viewBox="0 0 157.87349605560485 194.6941219187745" width="157.87349605560485" height="194.6941219187745">
  <!-- svg-source:excalidraw -->
  
  <defs>
    <style class="style-fonts">
      
    </style>
    
  </defs>
  <rect x="0" y="0" width="157.87349605560485" height="194.6941219187745" fill="transparent "></rect><g stroke-linecap="round"><g transform="translate(105.97199099344198 57.82917937741831) rotate(0 -47.98599549672099 39.517881581968936)" fill-rule="evenodd"><path d="M0 0 L0 0 L-0.06 -2.46 L-0.25 -4.89 L-0.55 -7.28 L-0.97 -9.64 L-1.5 -11.95 L-2.15 -14.22 L-2.9 -16.44 L-3.76 -18.61 L-4.71 -20.73 L-5.77 -22.79 L-6.92 -24.8 L-8.16 -26.74 L-9.49 -28.61 L-10.91 -30.42 L-12.42 -32.16 L-14 -33.82 L-15.66 -35.4 L-17.4 -36.9 L-19.2 -38.33 L-21.08 -39.66 L-23.02 -40.9 L-25.02 -42.05 L-27.08 -43.11 L-29.2 -44.07 L-31.37 -44.93 L-33.6 -45.68 L-35.87 -46.32 L-38.18 -46.86 L-40.54 -47.28 L-42.93 -47.58 L-45.37 -47.77 L-47.83 -47.83 L-50.29 -47.77 L-52.72 -47.58 L-55.12 -47.28 L-57.48 -46.86 L-59.79 -46.32 L-62.06 -45.68 L-64.28 -44.93 L-66.46 -44.07 L-68.58 -43.11 L-70.64 -42.05 L-72.64 -40.9 L-74.58 -39.66 L-76.46 -38.33 L-78.26 -36.9 L-80 -35.4 L-81.66 -33.82 L-83.24 -32.16 L-84.74 -30.42 L-86.16 -28.61 L-87.5 -26.74 L-88.74 -24.8 L-89.89 -22.79 L-90.95 -20.73 L-91.9 -18.61 L-92.76 -16.44 L-93.51 -14.22 L-94.15 -11.95 L-94.69 -9.64 L-95.11 -7.28 L-95.41 -4.89 L-95.6 -2.46 L-95.66 0 L-95.62 1.91 L-95.51 3.8 L-95.33 5.67 L-95.07 7.51 L-94.75 9.34 L-94.36 11.14 L-93.9 12.91 L-93.37 14.65 L-92.78 16.37 L-92.13 18.06 L-91.42 19.71 L-90.65 21.34 L-89.82 22.92 L-88.93 24.48 L-87.98 25.99 L-86.99 27.47 L-85.94 28.91 L-84.83 30.3 L-83.68 31.66 L-82.48 32.97 L-81.23 34.23 L-79.94 35.45 L-78.6 36.62 L-77.21 37.74 L-75.79 38.81 L-74.32 39.83 L-72.82 40.79 L-71.28 41.7 L-69.7 42.55 L-68.09 43.35 L-66.44 44.08 L-64.77 44.76 L-64.57 44.85 L-64.35 45 L-63.88 45.41 L-63.51 45.92 L-63.4 46.19 L-63.35 46.45 L-63.35 79.82 L-95.97 79.82 L-95.97 111.81 L-63.35 111.81 L-63.35 126.86 L-32.3 126.86 L-32.3 46.54 L-32.3 46.54 L-32.26 46.26 L-32.13 45.96 L-31.72 45.41 L-31.21 44.96 L-30.96 44.8 L-30.74 44.69 L-29.07 44.02 L-27.43 43.28 L-25.83 42.48 L-24.26 41.63 L-22.72 40.72 L-21.23 39.75 L-19.77 38.74 L-18.35 37.67 L-16.98 36.55 L-15.64 35.38 L-14.36 34.16 L-13.11 32.89 L-11.92 31.59 L-10.77 30.23 L-9.67 28.84 L-8.63 27.4 L-7.64 25.93 L-6.7 24.42 L-5.81 22.87 L-4.99 21.28 L-4.22 19.66 L-3.51 18.01 L-2.86 16.33 L-2.28 14.61 L-1.75 12.87 L-1.3 11.1 L-0.91 9.31 L-0.58 7.49 L-0.33 5.65 L-0.15 3.79 L-0.04 1.9 L0 0 L0 0" stroke="none" stroke-width="0" fill="#4285f4" fill-rule="evenodd"></path><path d="M0 0 C0 0, 0 0, 0 0 M0 0 C0 0, 0 0, 0 0 M0 0 C-0.02 -0.97, -0.05 -1.95, -0.06 -2.46 M0 0 C-0.02 -0.89, -0.04 -1.77, -0.06 -2.46 M-0.06 -2.46 C-0.11 -3.03, -0.15 -3.61, -0.25 -4.89 M-0.06 -2.46 C-0.11 -3.15, -0.17 -3.84, -0.25 -4.89 M-0.25 -4.89 C-0.31 -5.37, -0.37 -5.86, -0.55 -7.28 M-0.25 -4.89 C-0.31 -5.39, -0.37 -5.89, -0.55 -7.28 M-0.55 -7.28 C-0.71 -8.18, -0.87 -9.07, -0.97 -9.64 M-0.55 -7.28 C-0.68 -8.01, -0.81 -8.74, -0.97 -9.64 M-0.97 -9.64 C-1.1 -10.2, -1.23 -10.76, -1.5 -11.95 M-0.97 -9.64 C-1.17 -10.51, -1.37 -11.38, -1.5 -11.95 M-1.5 -11.95 C-1.63 -12.4, -1.76 -12.86, -2.15 -14.22 M-1.5 -11.95 C-1.74 -12.78, -1.98 -13.61, -2.15 -14.22 M-2.15 -14.22 C-2.4 -14.97, -2.66 -15.73, -2.9 -16.44 M-2.15 -14.22 C-2.42 -15.02, -2.69 -15.83, -2.9 -16.44 M-2.9 -16.44 C-3.21 -17.24, -3.53 -18.04, -3.76 -18.61 M-2.9 -16.44 C-3.18 -17.15, -3.46 -17.86, -3.76 -18.61 M-3.76 -18.61 C-4.1 -19.38, -4.44 -20.14, -4.71 -20.73 M-3.76 -18.61 C-4.01 -19.17, -4.26 -19.73, -4.71 -20.73 M-4.71 -20.73 C-5.03 -21.35, -5.34 -21.97, -5.77 -22.79 M-4.71 -20.73 C-5.1 -21.5, -5.49 -22.26, -5.77 -22.79 M-5.77 -22.79 C-6.02 -23.24, -6.28 -23.68, -6.92 -24.8 M-5.77 -22.79 C-6.22 -23.58, -6.67 -24.36, -6.92 -24.8 M-6.92 -24.8 C-7.36 -25.49, -7.81 -26.19, -8.16 -26.74 M-6.92 -24.8 C-7.39 -25.53, -7.86 -26.26, -8.16 -26.74 M-8.16 -26.74 C-8.54 -27.27, -8.92 -27.8, -9.49 -28.61 M-8.16 -26.74 C-8.49 -27.2, -8.82 -27.66, -9.49 -28.61 M-9.49 -28.61 C-9.86 -29.07, -10.22 -29.53, -10.91 -30.42 M-9.49 -28.61 C-9.97 -29.21, -10.44 -29.81, -10.91 -30.42 M-10.91 -30.42 C-11.45 -31.04, -11.98 -31.66, -12.42 -32.16 M-10.91 -30.42 C-11.43 -31.02, -11.94 -31.61, -12.42 -32.16 M-12.42 -32.16 C-12.81 -32.56, -13.2 -32.97, -14 -33.82 M-12.42 -32.16 C-12.92 -32.69, -13.43 -33.22, -14 -33.82 M-14 -33.82 C-14.49 -34.29, -14.98 -34.75, -15.66 -35.4 M-14 -33.82 C-14.65 -34.44, -15.31 -35.06, -15.66 -35.4 M-15.66 -35.4 C-16.24 -35.91, -16.83 -36.41, -17.4 -36.9 M-15.66 -35.4 C-16.24 -35.9, -16.82 -36.41, -17.4 -36.9 M-17.4 -36.9 C-17.76 -37.19, -18.13 -37.48, -19.2 -38.33 M-17.4 -36.9 C-17.97 -37.35, -18.54 -37.8, -19.2 -38.33 M-19.2 -38.33 C-19.72 -38.7, -20.25 -39.07, -21.08 -39.66 M-19.2 -38.33 C-19.7 -38.68, -20.2 -39.04, -21.08 -39.66 M-21.08 -39.66 C-21.53 -39.95, -21.98 -40.23, -23.02 -40.9 M-21.08 -39.66 C-21.52 -39.94, -21.97 -40.23, -23.02 -40.9 M-23.02 -40.9 C-23.76 -41.33, -24.49 -41.75, -25.02 -42.05 M-23.02 -40.9 C-23.65 -41.27, -24.28 -41.63, -25.02 -42.05 M-25.02 -42.05 C-25.79 -42.45, -26.56 -42.84, -27.08 -43.11 M-25.02 -42.05 C-25.55 -42.33, -26.09 -42.6, -27.08 -43.11 M-27.08 -43.11 C-27.62 -43.35, -28.15 -43.59, -29.2 -44.07 M-27.08 -43.11 C-27.88 -43.47, -28.68 -43.83, -29.2 -44.07 M-29.2 -44.07 C-29.8 -44.3, -30.39 -44.54, -31.37 -44.93 M-29.2 -44.07 C-29.91 -44.35, -30.62 -44.63, -31.37 -44.93 M-31.37 -44.93 C-32.09 -45.17, -32.8 -45.41, -33.6 -45.68 M-31.37 -44.93 C-31.94 -45.12, -32.52 -45.31, -33.6 -45.68 M-33.6 -45.68 C-34.11 -45.82, -34.61 -45.97, -35.87 -46.32 M-33.6 -45.68 C-34.43 -45.91, -35.26 -46.15, -35.87 -46.32 M-35.87 -46.32 C-36.59 -46.49, -37.32 -46.66, -38.18 -46.86 M-35.87 -46.32 C-36.47 -46.46, -37.07 -46.6, -38.18 -46.86 M-38.18 -46.86 C-39.03 -47.01, -39.87 -47.16, -40.54 -47.28 M-38.18 -46.86 C-38.91 -46.99, -39.63 -47.12, -40.54 -47.28 M-40.54 -47.28 C-41.29 -47.37, -42.05 -47.47, -42.93 -47.58 M-40.54 -47.28 C-41.49 -47.4, -42.43 -47.52, -42.93 -47.58 M-42.93 -47.58 C-43.58 -47.63, -44.22 -47.68, -45.37 -47.77 M-42.93 -47.58 C-43.63 -47.64, -44.33 -47.69, -45.37 -47.77 M-45.37 -47.77 C-46.25 -47.79, -47.13 -47.81, -47.83 -47.83 M-45.37 -47.77 C-46.29 -47.79, -47.21 -47.81, -47.83 -47.83 M-47.83 -47.83 C-48.74 -47.81, -49.65 -47.78, -50.29 -47.77 M-47.83 -47.83 C-48.43 -47.81, -49.02 -47.8, -50.29 -47.77 M-50.29 -47.77 C-50.83 -47.73, -51.37 -47.68, -52.72 -47.58 M-50.29 -47.77 C-50.81 -47.73, -51.33 -47.69, -52.72 -47.58 M-52.72 -47.58 C-53.57 -47.48, -54.41 -47.37, -55.12 -47.28 M-52.72 -47.58 C-53.48 -47.49, -54.24 -47.39, -55.12 -47.28 M-55.12 -47.28 C-55.67 -47.18, -56.22 -47.08, -57.48 -46.86 M-55.12 -47.28 C-55.66 -47.18, -56.21 -47.08, -57.48 -46.86 M-57.48 -46.86 C-58.26 -46.68, -59.04 -46.5, -59.79 -46.32 M-57.48 -46.86 C-58.06 -46.72, -58.65 -46.59, -59.79 -46.32 M-59.79 -46.32 C-60.39 -46.15, -60.99 -45.98, -62.06 -45.68 M-59.79 -46.32 C-60.36 -46.16, -60.92 -46, -62.06 -45.68 M-62.06 -45.68 C-62.72 -45.45, -63.38 -45.23, -64.28 -44.93 M-62.06 -45.68 C-62.52 -45.52, -62.97 -45.37, -64.28 -44.93 M-64.28 -44.93 C-65.01 -44.64, -65.75 -44.35, -66.46 -44.07 M-64.28 -44.93 C-65.13 -44.59, -65.98 -44.26, -66.46 -44.07 M-66.46 -44.07 C-66.99 -43.83, -67.51 -43.59, -68.58 -43.11 M-66.46 -44.07 C-67.13 -43.77, -67.8 -43.46, -68.58 -43.11 M-68.58 -43.11 C-69.02 -42.89, -69.46 -42.66, -70.64 -42.05 M-68.58 -43.11 C-69.16 -42.81, -69.75 -42.51, -70.64 -42.05 M-70.64 -42.05 C-71.16 -41.76, -71.68 -41.46, -72.64 -40.9 M-70.64 -42.05 C-71.33 -41.66, -72.03 -41.26, -72.64 -40.9 M-72.64 -40.9 C-73.05 -40.64, -73.47 -40.37, -74.58 -39.66 M-72.64 -40.9 C-73.15 -40.58, -73.66 -40.25, -74.58 -39.66 M-74.58 -39.66 C-75.03 -39.34, -75.48 -39.02, -76.46 -38.33 M-74.58 -39.66 C-75.05 -39.32, -75.52 -38.99, -76.46 -38.33 M-76.46 -38.33 C-77.16 -37.77, -77.87 -37.21, -78.26 -36.9 M-76.46 -38.33 C-77.1 -37.82, -77.74 -37.31, -78.26 -36.9 M-78.26 -36.9 C-78.87 -36.38, -79.47 -35.86, -80 -35.4 M-78.26 -36.9 C-78.94 -36.32, -79.62 -35.73, -80 -35.4 M-80 -35.4 C-80.59 -34.83, -81.19 -34.27, -81.66 -33.82 M-80 -35.4 C-80.5 -34.92, -81.01 -34.44, -81.66 -33.82 M-81.66 -33.82 C-82.28 -33.17, -82.89 -32.52, -83.24 -32.16 M-81.66 -33.82 C-82.18 -33.27, -82.7 -32.72, -83.24 -32.16 M-83.24 -32.16 C-83.64 -31.69, -84.05 -31.23, -84.74 -30.42 M-83.24 -32.16 C-83.76 -31.55, -84.28 -30.95, -84.74 -30.42 M-84.74 -30.42 C-85.06 -30.02, -85.37 -29.63, -86.16 -28.61 M-84.74 -30.42 C-85.08 -30, -85.41 -29.57, -86.16 -28.61 M-86.16 -28.61 C-86.46 -28.2, -86.75 -27.79, -87.5 -26.74 M-86.16 -28.61 C-86.47 -28.19, -86.77 -27.76, -87.5 -26.74 M-87.5 -26.74 C-87.91 -26.09, -88.33 -25.44, -88.74 -24.8 M-87.5 -26.74 C-87.84 -26.2, -88.18 -25.67, -88.74 -24.8 M-88.74 -24.8 C-89.04 -24.27, -89.35 -23.74, -89.89 -22.79 M-88.74 -24.8 C-89.19 -24.01, -89.64 -23.22, -89.89 -22.79 M-89.89 -22.79 C-90.19 -22.21, -90.49 -21.62, -90.95 -20.73 M-89.89 -22.79 C-90.13 -22.33, -90.36 -21.87, -90.95 -20.73 M-90.95 -20.73 C-91.32 -19.89, -91.7 -19.06, -91.9 -18.61 M-90.95 -20.73 C-91.32 -19.9, -91.7 -19.07, -91.9 -18.61 M-91.9 -18.61 C-92.13 -18.05, -92.35 -17.48, -92.76 -16.44 M-91.9 -18.61 C-92.12 -18.05, -92.35 -17.49, -92.76 -16.44 M-92.76 -16.44 C-93.03 -15.65, -93.29 -14.87, -93.51 -14.22 M-92.76 -16.44 C-92.97 -15.82, -93.18 -15.2, -93.51 -14.22 M-93.51 -14.22 C-93.71 -13.53, -93.9 -12.84, -94.15 -11.95 M-93.51 -14.22 C-93.74 -13.41, -93.97 -12.59, -94.15 -11.95 M-94.15 -11.95 C-94.28 -11.42, -94.4 -10.89, -94.69 -9.64 M-94.15 -11.95 C-94.27 -11.47, -94.38 -10.99, -94.69 -9.64 M-94.69 -9.64 C-94.81 -8.93, -94.94 -8.23, -95.11 -7.28 M-94.69 -9.64 C-94.82 -8.92, -94.94 -8.2, -95.11 -7.28 M-95.11 -7.28 C-95.19 -6.66, -95.26 -6.05, -95.41 -4.89 M-95.11 -7.28 C-95.18 -6.71, -95.25 -6.14, -95.41 -4.89 M-95.41 -4.89 C-95.48 -3.96, -95.55 -3.03, -95.6 -2.46 M-95.41 -4.89 C-95.46 -4.2, -95.52 -3.51, -95.6 -2.46 M-95.6 -2.46 C-95.61 -1.92, -95.62 -1.38, -95.66 0 M-95.6 -2.46 C-95.62 -1.64, -95.64 -0.81, -95.66 0 M-95.66 0 C-95.65 0.64, -95.63 1.28, -95.62 1.91 M-95.66 0 C-95.65 0.54, -95.64 1.08, -95.62 1.91 M-95.62 1.91 C-95.59 2.37, -95.57 2.84, -95.51 3.8 M-95.62 1.91 C-95.58 2.59, -95.54 3.27, -95.51 3.8 M-95.51 3.8 C-95.44 4.51, -95.37 5.23, -95.33 5.67 M-95.51 3.8 C-95.46 4.35, -95.4 4.9, -95.33 5.67 M-95.33 5.67 C-95.27 6.06, -95.22 6.45, -95.07 7.51 M-95.33 5.67 C-95.25 6.19, -95.18 6.71, -95.07 7.51 M-95.07 7.51 C-95.01 7.88, -94.94 8.25, -94.75 9.34 M-95.07 7.51 C-94.97 8.09, -94.87 8.67, -94.75 9.34 M-94.75 9.34 C-94.61 9.95, -94.48 10.57, -94.36 11.14 M-94.75 9.34 C-94.6 10.01, -94.46 10.68, -94.36 11.14 M-94.36 11.14 C-94.21 11.69, -94.07 12.24, -93.9 12.91 M-94.36 11.14 C-94.2 11.75, -94.04 12.36, -93.9 12.91 M-93.9 12.91 C-93.79 13.27, -93.68 13.62, -93.37 14.65 M-93.9 12.91 C-93.79 13.27, -93.68 13.64, -93.37 14.65 M-93.37 14.65 C-93.21 15.14, -93.04 15.63, -92.78 16.37 M-93.37 14.65 C-93.15 15.3, -92.93 15.96, -92.78 16.37 M-92.78 16.37 C-92.58 16.91, -92.37 17.44, -92.13 18.06 M-92.78 16.37 C-92.61 16.82, -92.44 17.27, -92.13 18.06 M-92.13 18.06 C-91.9 18.6, -91.66 19.15, -91.42 19.71 M-92.13 18.06 C-91.97 18.43, -91.81 18.8, -91.42 19.71 M-91.42 19.71 C-91.16 20.27, -90.89 20.82, -90.65 21.34 M-91.42 19.71 C-91.17 20.24, -90.92 20.77, -90.65 21.34 M-90.65 21.34 C-90.39 21.83, -90.13 22.33, -89.82 22.92 M-90.65 21.34 C-90.41 21.8, -90.16 22.26, -89.82 22.92 M-89.82 22.92 C-89.56 23.38, -89.3 23.83, -88.93 24.48 M-89.82 22.92 C-89.58 23.35, -89.33 23.77, -88.93 24.48 M-88.93 24.48 C-88.6 25, -88.28 25.52, -87.98 25.99 M-88.93 24.48 C-88.56 25.06, -88.2 25.65, -87.98 25.99 M-87.98 25.99 C-87.66 26.47, -87.35 26.94, -86.99 27.47 M-87.98 25.99 C-87.69 26.42, -87.4 26.85, -86.99 27.47 M-86.99 27.47 C-86.59 28.01, -86.19 28.56, -85.94 28.91 M-86.99 27.47 C-86.64 27.94, -86.3 28.41, -85.94 28.91 M-85.94 28.91 C-85.57 29.38, -85.2 29.84, -84.83 30.3 M-85.94 28.91 C-85.63 29.29, -85.33 29.68, -84.83 30.3 M-84.83 30.3 C-84.58 30.6, -84.34 30.89, -83.68 31.66 M-84.83 30.3 C-84.46 30.74, -84.08 31.18, -83.68 31.66 M-83.68 31.66 C-83.22 32.17, -82.75 32.67, -82.48 32.97 M-83.68 31.66 C-83.42 31.94, -83.16 32.23, -82.48 32.97 M-82.48 32.97 C-82.09 33.36, -81.71 33.75, -81.23 34.23 M-82.48 32.97 C-82.22 33.23, -81.97 33.49, -81.23 34.23 M-81.23 34.23 C-80.88 34.57, -80.52 34.9, -79.94 35.45 M-81.23 34.23 C-80.96 34.49, -80.68 34.75, -79.94 35.45 M-79.94 35.45 C-79.46 35.86, -78.99 36.28, -78.6 36.62 M-79.94 35.45 C-79.42 35.9, -78.9 36.36, -78.6 36.62 M-78.6 36.62 C-78.13 37, -77.66 37.38, -77.21 37.74 M-78.6 36.62 C-78.23 36.91, -77.87 37.21, -77.21 37.74 M-77.21 37.74 C-76.8 38.05, -76.39 38.36, -75.79 38.81 M-77.21 37.74 C-76.78 38.06, -76.36 38.38, -75.79 38.81 M-75.79 38.81 C-75.39 39.09, -74.98 39.37, -74.32 39.83 M-75.79 38.81 C-75.4 39.08, -75.01 39.35, -74.32 39.83 M-74.32 39.83 C-73.85 40.13, -73.38 40.43, -72.82 40.79 M-74.32 39.83 C-73.76 40.19, -73.2 40.55, -72.82 40.79 M-72.82 40.79 C-72.32 41.08, -71.83 41.38, -71.28 41.7 M-72.82 40.79 C-72.46 41, -72.09 41.22, -71.28 41.7 M-71.28 41.7 C-70.87 41.92, -70.47 42.14, -69.7 42.55 M-71.28 41.7 C-70.91 41.9, -70.53 42.1, -69.7 42.55 M-69.7 42.55 C-69.28 42.76, -68.85 42.97, -68.09 43.35 M-69.7 42.55 C-69.26 42.77, -68.81 42.99, -68.09 43.35 M-68.09 43.35 C-67.75 43.5, -67.41 43.65, -66.44 44.08 M-68.09 43.35 C-67.55 43.59, -67.01 43.83, -66.44 44.08 M-66.44 44.08 C-66.05 44.24, -65.66 44.39, -64.77 44.76 M-66.44 44.08 C-65.77 44.35, -65.11 44.62, -64.77 44.76 M-64.77 44.76 C-64.71 44.78, -64.65 44.81, -64.57 44.85 M-64.77 44.76 C-64.71 44.78, -64.65 44.81, -64.57 44.85 M-64.57 44.85 C-64.5 44.9, -64.43 44.95, -64.35 45 M-64.57 44.85 C-64.5 44.9, -64.43 44.95, -64.35 45 M-64.35 45 C-64.21 45.12, -64.07 45.24, -63.88 45.41 M-64.35 45 C-64.19 45.15, -64.02 45.29, -63.88 45.41 M-63.88 45.41 C-63.76 45.57, -63.65 45.74, -63.51 45.92 M-63.88 45.41 C-63.79 45.55, -63.69 45.68, -63.51 45.92 M-63.51 45.92 C-63.48 45.98, -63.46 46.04, -63.4 46.19 M-63.51 45.92 C-63.47 46.02, -63.43 46.11, -63.4 46.19 M-63.4 46.19 C-63.39 46.25, -63.38 46.31, -63.35 46.45 M-63.4 46.19 C-63.38 46.27, -63.37 46.36, -63.35 46.45 M-63.35 46.45 C-63.35 59.21, -63.35 71.96, -63.35 79.82 M-63.35 46.45 C-63.35 59.18, -63.35 71.91, -63.35 79.82 M-63.35 79.82 C-75.52 79.82, -87.69 79.82, -95.97 79.82 M-63.35 79.82 C-75.71 79.82, -88.07 79.82, -95.97 79.82 M-95.97 79.82 C-95.97 88.12, -95.97 96.43, -95.97 111.81 M-95.97 79.82 C-95.97 87.84, -95.97 95.86, -95.97 111.81 M-95.97 111.81 C-89.24 111.81, -82.52 111.81, -63.35 111.81 M-95.97 111.81 C-85.81 111.81, -75.65 111.81, -63.35 111.81 M-63.35 111.81 C-63.35 115.28, -63.35 118.75, -63.35 126.86 M-63.35 111.81 C-63.35 115.22, -63.35 118.62, -63.35 126.86 M-63.35 126.86 C-52.62 126.86, -41.88 126.86, -32.3 126.86 M-63.35 126.86 C-51.98 126.86, -40.61 126.86, -32.3 126.86 M-32.3 126.86 C-32.3 102.23, -32.3 77.59, -32.3 46.54 M-32.3 126.86 C-32.3 97.5, -32.3 68.13, -32.3 46.54 M-32.3 46.54 C-32.3 46.54, -32.3 46.54, -32.3 46.54 M-32.3 46.54 C-32.3 46.54, -32.3 46.54, -32.3 46.54 M-32.3 46.54 C-32.29 46.44, -32.27 46.34, -32.26 46.26 M-32.3 46.54 C-32.29 46.45, -32.27 46.35, -32.26 46.26 M-32.26 46.26 C-32.22 46.16, -32.18 46.06, -32.13 45.96 M-32.26 46.26 C-32.22 46.17, -32.19 46.09, -32.13 45.96 M-32.13 45.96 C-32.03 45.82, -31.92 45.67, -31.72 45.41 M-32.13 45.96 C-31.98 45.75, -31.82 45.54, -31.72 45.41 M-31.72 45.41 C-31.54 45.25, -31.37 45.1, -31.21 44.96 M-31.72 45.41 C-31.56 45.26, -31.39 45.12, -31.21 44.96 M-31.21 44.96 C-31.11 44.89, -31.01 44.83, -30.96 44.8 M-31.21 44.96 C-31.11 44.89, -31.01 44.83, -30.96 44.8 M-30.96 44.8 C-30.87 44.76, -30.79 44.72, -30.74 44.69 M-30.96 44.8 C-30.9 44.77, -30.85 44.75, -30.74 44.69 M-30.74 44.69 C-30.15 44.46, -29.57 44.22, -29.07 44.02 M-30.74 44.69 C-30.37 44.54, -30 44.4, -29.07 44.02 M-29.07 44.02 C-28.42 43.72, -27.78 43.43, -27.43 43.28 M-29.07 44.02 C-28.46 43.74, -27.85 43.47, -27.43 43.28 M-27.43 43.28 C-26.83 42.98, -26.22 42.68, -25.83 42.48 M-27.43 43.28 C-26.87 43, -26.31 42.72, -25.83 42.48 M-25.83 42.48 C-25.38 42.24, -24.94 42, -24.26 41.63 M-25.83 42.48 C-25.22 42.15, -24.62 41.83, -24.26 41.63 M-24.26 41.63 C-23.7 41.3, -23.14 40.96, -22.72 40.72 M-24.26 41.63 C-23.87 41.4, -23.48 41.17, -22.72 40.72 M-22.72 40.72 C-22.3 40.44, -21.87 40.17, -21.23 39.75 M-22.72 40.72 C-22.39 40.5, -22.06 40.29, -21.23 39.75 M-21.23 39.75 C-20.85 39.49, -20.48 39.23, -19.77 38.74 M-21.23 39.75 C-20.92 39.54, -20.61 39.33, -19.77 38.74 M-19.77 38.74 C-19.22 38.32, -18.67 37.9, -18.35 37.67 M-19.77 38.74 C-19.29 38.37, -18.8 38, -18.35 37.67 M-18.35 37.67 C-18.03 37.4, -17.7 37.14, -16.98 36.55 M-18.35 37.67 C-17.93 37.33, -17.52 36.99, -16.98 36.55 M-16.98 36.55 C-16.54 36.16, -16.09 35.77, -15.64 35.38 M-16.98 36.55 C-16.57 36.19, -16.17 35.84, -15.64 35.38 M-15.64 35.38 C-15.21 34.96, -14.77 34.55, -14.36 34.16 M-15.64 35.38 C-15.36 35.11, -15.08 34.84, -14.36 34.16 M-14.36 34.16 C-13.87 33.66, -13.38 33.16, -13.11 32.89 M-14.36 34.16 C-13.9 33.7, -13.45 33.24, -13.11 32.89 M-13.11 32.89 C-12.82 32.57, -12.52 32.25, -11.92 31.59 M-13.11 32.89 C-12.82 32.58, -12.53 32.26, -11.92 31.59 M-11.92 31.59 C-11.68 31.31, -11.44 31.03, -10.77 30.23 M-11.92 31.59 C-11.58 31.18, -11.24 30.78, -10.77 30.23 M-10.77 30.23 C-10.46 29.83, -10.14 29.43, -9.67 28.84 M-10.77 30.23 C-10.47 29.86, -10.18 29.48, -9.67 28.84 M-9.67 28.84 C-9.31 28.34, -8.95 27.84, -8.63 27.4 M-9.67 28.84 C-9.29 28.31, -8.91 27.79, -8.63 27.4 M-8.63 27.4 C-8.4 27.06, -8.16 26.71, -7.64 25.93 M-8.63 27.4 C-8.24 26.82, -7.84 26.24, -7.64 25.93 M-7.64 25.93 C-7.32 25.42, -7.01 24.92, -6.7 24.42 M-7.64 25.93 C-7.31 25.41, -6.99 24.89, -6.7 24.42 M-6.7 24.42 C-6.42 23.94, -6.15 23.46, -5.81 22.87 M-6.7 24.42 C-6.42 23.93, -6.14 23.44, -5.81 22.87 M-5.81 22.87 C-5.61 22.48, -5.41 22.1, -4.99 21.28 M-5.81 22.87 C-5.56 22.39, -5.31 21.91, -4.99 21.28 M-4.99 21.28 C-4.69 20.67, -4.4 20.05, -4.22 19.66 M-4.99 21.28 C-4.73 20.74, -4.48 20.21, -4.22 19.66 M-4.22 19.66 C-4.02 19.19, -3.82 18.73, -3.51 18.01 M-4.22 19.66 C-4.06 19.29, -3.9 18.92, -3.51 18.01 M-3.51 18.01 C-3.27 17.4, -3.04 16.79, -2.86 16.33 M-3.51 18.01 C-3.28 17.42, -3.06 16.83, -2.86 16.33 M-2.86 16.33 C-2.73 15.94, -2.6 15.56, -2.28 14.61 M-2.86 16.33 C-2.63 15.67, -2.41 15, -2.28 14.61 M-2.28 14.61 C-2.16 14.23, -2.05 13.85, -1.75 12.87 M-2.28 14.61 C-2.13 14.14, -1.99 13.66, -1.75 12.87 M-1.75 12.87 C-1.58 12.21, -1.41 11.54, -1.3 11.1 M-1.75 12.87 C-1.58 12.21, -1.41 11.55, -1.3 11.1 M-1.3 11.1 C-1.16 10.46, -1.02 9.82, -0.91 9.31 M-1.3 11.1 C-1.21 10.71, -1.13 10.32, -0.91 9.31 M-0.91 9.31 C-0.78 8.59, -0.65 7.88, -0.58 7.49 M-0.91 9.31 C-0.82 8.81, -0.73 8.31, -0.58 7.49 M-0.58 7.49 C-0.52 7.06, -0.47 6.63, -0.33 5.65 M-0.58 7.49 C-0.51 6.95, -0.43 6.4, -0.33 5.65 M-0.33 5.65 C-0.28 5.12, -0.23 4.59, -0.15 3.79 M-0.33 5.65 C-0.28 5.13, -0.23 4.61, -0.15 3.79 M-0.15 3.79 C-0.11 3.12, -0.07 2.46, -0.04 1.9 M-0.15 3.79 C-0.12 3.37, -0.1 2.95, -0.04 1.9 M-0.04 1.9 C-0.02 1.15, -0.01 0.4, 0 0 M-0.04 1.9 C-0.03 1.37, -0.02 0.84, 0 0 M0 0 C0 0, 0 0, 0 0 M0 0 C0 0, 0 0, 0 0 M0 0 C0 0, 0 0, 0 0 M0 0 C0 0, 0 0, 0 0" stroke="#000000" stroke-width="1" fill="none"></path></g></g><mask></mask><g stroke-linecap="round"><g transform="translate(100.07567789010045 10) rotate(0 17.15577930657537 87.34706095938725)" fill-rule="evenodd"><path d="M0 0 L0 0 L-1.75 0.03 L-3.48 0.13 L-5.2 0.28 L-6.9 0.5 L-8.58 0.78 L-10.24 1.11 L-13.49 1.94 L-11.36 2.33 L-9.28 2.81 L-7.22 3.37 L-5.21 4.03 L-3.24 4.77 L-1.3 5.6 L0.58 6.5 L2.43 7.49 L4.22 8.55 L5.96 9.69 L7.64 10.9 L9.28 12.18 L10.85 13.53 L12.36 14.94 L13.81 16.42 L15.2 17.96 L16.52 19.56 L17.77 21.22 L18.95 22.93 L20.05 24.7 L21.08 26.51 L22.04 28.37 L22.91 30.28 L23.7 32.24 L24.4 34.23 L25.02 36.27 L25.55 38.34 L25.99 40.44 L26.33 42.58 L26.58 44.75 L26.73 46.95 L26.78 49.18 L26.75 51.08 L26.64 52.96 L26.45 54.83 L26.2 56.67 L25.88 58.49 L25.49 60.28 L25.03 62.05 L24.51 63.79 L23.92 65.5 L23.28 67.19 L22.57 68.84 L21.8 70.46 L20.97 72.04 L20.09 73.59 L19.15 75.11 L18.16 76.58 L17.11 78.02 L16.01 79.41 L14.87 80.76 L13.67 82.07 L12.43 83.34 L11.14 84.55 L9.81 85.72 L8.43 86.84 L7.02 87.91 L5.56 88.93 L4.06 89.9 L2.53 90.81 L0.96 91.66 L-0.65 92.46 L-2.28 93.19 L-3.95 93.87 L-4.16 93.97 L-4.41 94.13 L-4.92 94.57 L-5.35 95.13 L-5.47 95.42 L-5.52 95.72 L-5.52 174.69 L15.49 174.69 L15.49 94.37 L15.49 94.37 L15.54 94.08 L15.66 93.78 L16.08 93.22 L16.59 92.78 L16.84 92.62 L17.06 92.52 L18.73 91.85 L20.37 91.11 L21.97 90.32 L23.54 89.47 L25.08 88.56 L26.57 87.6 L28.03 86.58 L29.45 85.51 L30.82 84.39 L32.15 83.23 L33.44 82.01 L34.68 80.75 L35.88 79.44 L37.03 78.09 L38.12 76.69 L39.17 75.26 L40.16 73.78 L41.1 72.27 L41.98 70.72 L42.81 69.13 L43.58 67.51 L44.29 65.86 L44.94 64.17 L45.52 62.46 L46.04 60.72 L46.5 58.95 L46.89 57.15 L47.21 55.33 L47.47 53.49 L47.65 51.62 L47.76 49.73 L47.8 47.83 L47.74 45.37 L47.56 42.94 L47.25 40.55 L46.84 38.19 L46.3 35.88 L45.66 33.61 L44.91 31.39 L44.06 29.22 L43.1 27.1 L42.04 25.03 L40.89 23.03 L39.65 21.09 L38.32 19.22 L36.9 17.41 L35.4 15.67 L33.81 14.01 L32.15 12.43 L30.42 10.92 L28.61 9.5 L26.74 8.17 L24.8 6.93 L22.79 5.77 L20.73 4.72 L18.61 3.76 L16.44 2.9 L14.22 2.15 L11.95 1.51 L9.64 0.97 L7.28 0.55 L4.89 0.25 L2.46 0.06 L0 0 L0 0" stroke="none" stroke-width="0" fill="#669df6" fill-rule="evenodd"></path><path d="M0 0 C0 0, 0 0, 0 0 M0 0 C0 0, 0 0, 0 0 M0 0 C-0.37 0.01, -0.74 0.01, -1.75 0.03 M0 0 C-0.45 0.01, -0.89 0.02, -1.75 0.03 M-1.75 0.03 C-2.09 0.05, -2.44 0.07, -3.48 0.13 M-1.75 0.03 C-2.26 0.06, -2.77 0.09, -3.48 0.13 M-3.48 0.13 C-4.09 0.18, -4.7 0.24, -5.2 0.28 M-3.48 0.13 C-4.15 0.19, -4.82 0.25, -5.2 0.28 M-5.2 0.28 C-5.58 0.33, -5.95 0.38, -6.9 0.5 M-5.2 0.28 C-5.75 0.35, -6.29 0.42, -6.9 0.5 M-6.9 0.5 C-7.32 0.57, -7.75 0.64, -8.58 0.78 M-6.9 0.5 C-7.36 0.58, -7.83 0.66, -8.58 0.78 M-8.58 0.78 C-9.14 0.89, -9.7 1, -10.24 1.11 M-8.58 0.78 C-8.92 0.85, -9.26 0.92, -10.24 1.11 M-10.24 1.11 C-11.37 1.4, -12.5 1.69, -13.49 1.94 M-10.24 1.11 C-11.46 1.43, -12.69 1.74, -13.49 1.94 M-13.49 1.94 C-12.88 2.05, -12.28 2.16, -11.36 2.33 M-13.49 1.94 C-12.78 2.07, -12.07 2.2, -11.36 2.33 M-11.36 2.33 C-10.91 2.43, -10.45 2.54, -9.28 2.81 M-11.36 2.33 C-10.84 2.45, -10.32 2.57, -9.28 2.81 M-9.28 2.81 C-8.79 2.94, -8.3 3.08, -7.22 3.37 M-9.28 2.81 C-8.68 2.97, -8.09 3.14, -7.22 3.37 M-7.22 3.37 C-6.44 3.63, -5.65 3.89, -5.21 4.03 M-7.22 3.37 C-6.5 3.61, -5.77 3.85, -5.21 4.03 M-5.21 4.03 C-4.76 4.2, -4.31 4.37, -3.24 4.77 M-5.21 4.03 C-4.68 4.23, -4.15 4.43, -3.24 4.77 M-3.24 4.77 C-2.57 5.06, -1.9 5.34, -1.3 5.6 M-3.24 4.77 C-2.7 5, -2.16 5.23, -1.3 5.6 M-1.3 5.6 C-0.68 5.9, -0.06 6.2, 0.58 6.5 M-1.3 5.6 C-0.8 5.84, -0.3 6.08, 0.58 6.5 M0.58 6.5 C1.14 6.8, 1.7 7.1, 2.43 7.49 M0.58 6.5 C1.09 6.78, 1.6 7.05, 2.43 7.49 M2.43 7.49 C2.9 7.77, 3.37 8.05, 4.22 8.55 M2.43 7.49 C2.92 7.79, 3.42 8.08, 4.22 8.55 M4.22 8.55 C4.62 8.82, 5.03 9.09, 5.96 9.69 M4.22 8.55 C4.78 8.92, 5.35 9.29, 5.96 9.69 M5.96 9.69 C6.63 10.17, 7.31 10.66, 7.64 10.9 M5.96 9.69 C6.48 10.06, 6.99 10.43, 7.64 10.9 M7.64 10.9 C8.06 11.23, 8.48 11.56, 9.28 12.18 M7.64 10.9 C8.14 11.29, 8.64 11.69, 9.28 12.18 M9.28 12.18 C9.83 12.65, 10.38 13.13, 10.85 13.53 M9.28 12.18 C9.84 12.66, 10.4 13.14, 10.85 13.53 M10.85 13.53 C11.2 13.86, 11.55 14.18, 12.36 14.94 M10.85 13.53 C11.45 14.09, 12.06 14.66, 12.36 14.94 M12.36 14.94 C12.92 15.51, 13.47 16.07, 13.81 16.42 M12.36 14.94 C12.7 15.29, 13.05 15.64, 13.81 16.42 M13.81 16.42 C14.33 16.99, 14.84 17.57, 15.2 17.96 M13.81 16.42 C14.21 16.87, 14.61 17.31, 15.2 17.96 M15.2 17.96 C15.72 18.6, 16.25 19.24, 16.52 19.56 M15.2 17.96 C15.67 18.53, 16.13 19.09, 16.52 19.56 M16.52 19.56 C16.81 19.95, 17.1 20.33, 17.77 21.22 M16.52 19.56 C16.97 20.16, 17.42 20.76, 17.77 21.22 M17.77 21.22 C18.19 21.83, 18.61 22.44, 18.95 22.93 M17.77 21.22 C18.15 21.77, 18.53 22.33, 18.95 22.93 M18.95 22.93 C19.3 23.49, 19.66 24.06, 20.05 24.7 M18.95 22.93 C19.29 23.47, 19.63 24.01, 20.05 24.7 M20.05 24.7 C20.33 25.17, 20.6 25.65, 21.08 26.51 M20.05 24.7 C20.43 25.36, 20.81 26.02, 21.08 26.51 M21.08 26.51 C21.35 27.04, 21.63 27.57, 22.04 28.37 M21.08 26.51 C21.39 27.1, 21.69 27.7, 22.04 28.37 M22.04 28.37 C22.35 29.07, 22.67 29.76, 22.91 30.28 M22.04 28.37 C22.29 28.94, 22.55 29.5, 22.91 30.28 M22.91 30.28 C23.16 30.91, 23.42 31.55, 23.7 32.24 M22.91 30.28 C23.14 30.86, 23.37 31.43, 23.7 32.24 M23.7 32.24 C23.95 32.95, 24.2 33.66, 24.4 34.23 M23.7 32.24 C23.94 32.91, 24.18 33.59, 24.4 34.23 M24.4 34.23 C24.64 35.01, 24.88 35.79, 25.02 36.27 M24.4 34.23 C24.55 34.71, 24.69 35.18, 25.02 36.27 M25.02 36.27 C25.23 37.06, 25.43 37.86, 25.55 38.34 M25.02 36.27 C25.19 36.93, 25.36 37.59, 25.55 38.34 M25.55 38.34 C25.71 39.08, 25.86 39.83, 25.99 40.44 M25.55 38.34 C25.66 38.84, 25.76 39.34, 25.99 40.44 M25.99 40.44 C26.07 40.95, 26.15 41.46, 26.33 42.58 M25.99 40.44 C26.08 41.02, 26.18 41.61, 26.33 42.58 M26.33 42.58 C26.4 43.18, 26.47 43.78, 26.58 44.75 M26.33 42.58 C26.41 43.27, 26.49 43.95, 26.58 44.75 M26.58 44.75 C26.64 45.53, 26.69 46.3, 26.73 46.95 M26.58 44.75 C26.62 45.24, 26.65 45.73, 26.73 46.95 M26.73 46.95 C26.75 47.69, 26.77 48.44, 26.78 49.18 M26.73 46.95 C26.75 47.78, 26.77 48.61, 26.78 49.18 M26.78 49.18 C26.78 49.58, 26.77 49.99, 26.75 51.08 M26.78 49.18 C26.78 49.58, 26.77 49.98, 26.75 51.08 M26.75 51.08 C26.72 51.57, 26.69 52.05, 26.64 52.96 M26.75 51.08 C26.72 51.5, 26.7 51.92, 26.64 52.96 M26.64 52.96 C26.57 53.62, 26.51 54.27, 26.45 54.83 M26.64 52.96 C26.59 53.47, 26.54 53.98, 26.45 54.83 M26.45 54.83 C26.37 55.44, 26.29 56.05, 26.2 56.67 M26.45 54.83 C26.36 55.53, 26.26 56.23, 26.2 56.67 M26.2 56.67 C26.09 57.29, 25.98 57.92, 25.88 58.49 M26.2 56.67 C26.12 57.13, 26.04 57.59, 25.88 58.49 M25.88 58.49 C25.73 59.17, 25.58 59.85, 25.49 60.28 M25.88 58.49 C25.77 58.96, 25.67 59.44, 25.49 60.28 M25.49 60.28 C25.39 60.66, 25.29 61.05, 25.03 62.05 M25.49 60.28 C25.31 60.98, 25.13 61.68, 25.03 62.05 M25.03 62.05 C24.84 62.7, 24.64 63.34, 24.51 63.79 M25.03 62.05 C24.82 62.74, 24.61 63.44, 24.51 63.79 M24.51 63.79 C24.37 64.2, 24.23 64.61, 23.92 65.5 M24.51 63.79 C24.3 64.39, 24.1 64.99, 23.92 65.5 M23.92 65.5 C23.77 65.89, 23.62 66.28, 23.28 67.19 M23.92 65.5 C23.79 65.85, 23.66 66.19, 23.28 67.19 M23.28 67.19 C23.04 67.73, 22.81 68.28, 22.57 68.84 M23.28 67.19 C23.02 67.79, 22.76 68.38, 22.57 68.84 M22.57 68.84 C22.39 69.2, 22.22 69.57, 21.8 70.46 M22.57 68.84 C22.4 69.18, 22.24 69.52, 21.8 70.46 M21.8 70.46 C21.59 70.86, 21.37 71.27, 20.97 72.04 M21.8 70.46 C21.56 70.92, 21.32 71.38, 20.97 72.04 M20.97 72.04 C20.65 72.61, 20.33 73.17, 20.09 73.59 M20.97 72.04 C20.75 72.43, 20.53 72.82, 20.09 73.59 M20.09 73.59 C19.87 73.94, 19.66 74.28, 19.15 75.11 M20.09 73.59 C19.72 74.19, 19.35 74.79, 19.15 75.11 M19.15 75.11 C18.94 75.42, 18.73 75.73, 18.16 76.58 M19.15 75.11 C18.9 75.48, 18.65 75.85, 18.16 76.58 M18.16 76.58 C17.84 77.02, 17.52 77.46, 17.11 78.02 M18.16 76.58 C17.81 77.06, 17.47 77.53, 17.11 78.02 M17.11 78.02 C16.81 78.4, 16.51 78.78, 16.01 79.41 M17.11 78.02 C16.83 78.38, 16.54 78.74, 16.01 79.41 M16.01 79.41 C15.56 79.94, 15.11 80.47, 14.87 80.76 M16.01 79.41 C15.6 79.9, 15.18 80.39, 14.87 80.76 M14.87 80.76 C14.62 81.03, 14.38 81.3, 13.67 82.07 M14.87 80.76 C14.62 81.04, 14.37 81.31, 13.67 82.07 M13.67 82.07 C13.37 82.38, 13.06 82.69, 12.43 83.34 M13.67 82.07 C13.22 82.53, 12.77 82.99, 12.43 83.34 M12.43 83.34 C12.17 83.59, 11.9 83.83, 11.14 84.55 M12.43 83.34 C11.98 83.76, 11.54 84.17, 11.14 84.55 M11.14 84.55 C10.79 84.86, 10.45 85.16, 9.81 85.72 M11.14 84.55 C10.62 85.01, 10.09 85.47, 9.81 85.72 M9.81 85.72 C9.5 85.97, 9.19 86.22, 8.43 86.84 M9.81 85.72 C9.51 85.96, 9.22 86.2, 8.43 86.84 M8.43 86.84 C8.03 87.15, 7.63 87.45, 7.02 87.91 M8.43 86.84 C7.96 87.2, 7.49 87.56, 7.02 87.91 M7.02 87.91 C6.5 88.27, 5.98 88.64, 5.56 88.93 M7.02 87.91 C6.63 88.18, 6.25 88.45, 5.56 88.93 M5.56 88.93 C5.24 89.14, 4.92 89.34, 4.06 89.9 M5.56 88.93 C5.18 89.18, 4.79 89.42, 4.06 89.9 M4.06 89.9 C3.69 90.12, 3.32 90.33, 2.53 90.81 M4.06 89.9 C3.68 90.12, 3.29 90.35, 2.53 90.81 M2.53 90.81 C1.93 91.13, 1.33 91.46, 0.96 91.66 M2.53 90.81 C2.15 91.01, 1.77 91.22, 0.96 91.66 M0.96 91.66 C0.52 91.88, 0.09 92.09, -0.65 92.46 M0.96 91.66 C0.59 91.84, 0.23 92.02, -0.65 92.46 M-0.65 92.46 C-1.27 92.74, -1.9 93.02, -2.28 93.19 M-0.65 92.46 C-1.26 92.73, -1.87 93.01, -2.28 93.19 M-2.28 93.19 C-2.92 93.45, -3.55 93.71, -3.95 93.87 M-2.28 93.19 C-2.88 93.43, -3.47 93.68, -3.95 93.87 M-3.95 93.87 C-4 93.9, -4.06 93.92, -4.16 93.97 M-3.95 93.87 C-4.02 93.9, -4.09 93.94, -4.16 93.97 M-4.16 93.97 C-4.22 94.01, -4.29 94.05, -4.41 94.13 M-4.16 93.97 C-4.24 94.02, -4.31 94.07, -4.41 94.13 M-4.41 94.13 C-4.54 94.24, -4.67 94.36, -4.92 94.57 M-4.41 94.13 C-4.52 94.23, -4.63 94.32, -4.92 94.57 M-4.92 94.57 C-5.05 94.74, -5.19 94.92, -5.35 95.13 M-4.92 94.57 C-5.02 94.69, -5.11 94.81, -5.35 95.13 M-5.35 95.13 C-5.39 95.23, -5.43 95.33, -5.47 95.42 M-5.35 95.13 C-5.39 95.22, -5.43 95.31, -5.47 95.42 M-5.47 95.42 C-5.49 95.52, -5.5 95.62, -5.52 95.72 M-5.47 95.42 C-5.49 95.54, -5.51 95.65, -5.52 95.72 M-5.52 95.72 C-5.52 117.1, -5.52 138.48, -5.52 174.69 M-5.52 95.72 C-5.52 120.33, -5.52 144.94, -5.52 174.69 M-5.52 174.69 C-0.21 174.69, 5.1 174.69, 15.49 174.69 M-5.52 174.69 C2.1 174.69, 9.72 174.69, 15.49 174.69 M15.49 174.69 C15.49 153.08, 15.49 131.47, 15.49 94.37 M15.49 174.69 C15.49 149.28, 15.49 123.86, 15.49 94.37 M15.49 94.37 C15.49 94.37, 15.49 94.37, 15.49 94.37 M15.49 94.37 C15.49 94.37, 15.49 94.37, 15.49 94.37 M15.49 94.37 C15.5 94.31, 15.51 94.25, 15.54 94.08 M15.49 94.37 C15.5 94.31, 15.51 94.24, 15.54 94.08 M15.54 94.08 C15.59 93.96, 15.63 93.85, 15.66 93.78 M15.54 94.08 C15.59 93.96, 15.63 93.85, 15.66 93.78 M15.66 93.78 C15.83 93.56, 15.99 93.34, 16.08 93.22 M15.66 93.78 C15.81 93.59, 15.95 93.39, 16.08 93.22 M16.08 93.22 C16.27 93.06, 16.46 92.89, 16.59 92.78 M16.08 93.22 C16.22 93.1, 16.36 92.98, 16.59 92.78 M16.59 92.78 C16.69 92.72, 16.79 92.66, 16.84 92.62 M16.59 92.78 C16.69 92.72, 16.78 92.66, 16.84 92.62 M16.84 92.62 C16.89 92.6, 16.94 92.58, 17.06 92.52 M16.84 92.62 C16.91 92.59, 16.98 92.56, 17.06 92.52 M17.06 92.52 C17.43 92.37, 17.79 92.23, 18.73 91.85 M17.06 92.52 C17.48 92.35, 17.91 92.18, 18.73 91.85 M18.73 91.85 C19.33 91.58, 19.92 91.31, 20.37 91.11 M18.73 91.85 C19.32 91.58, 19.91 91.32, 20.37 91.11 M20.37 91.11 C20.88 90.86, 21.4 90.6, 21.97 90.32 M20.37 91.11 C20.79 90.9, 21.21 90.7, 21.97 90.32 M21.97 90.32 C22.33 90.13, 22.68 89.94, 23.54 89.47 M21.97 90.32 C22.33 90.13, 22.69 89.93, 23.54 89.47 M23.54 89.47 C23.86 89.28, 24.18 89.09, 25.08 88.56 M23.54 89.47 C24.05 89.17, 24.55 88.87, 25.08 88.56 M25.08 88.56 C25.6 88.22, 26.12 87.89, 26.57 87.6 M25.08 88.56 C25.67 88.18, 26.27 87.79, 26.57 87.6 M26.57 87.6 C26.9 87.37, 27.22 87.14, 28.03 86.58 M26.57 87.6 C27.12 87.21, 27.67 86.83, 28.03 86.58 M28.03 86.58 C28.36 86.33, 28.7 86.08, 29.45 85.51 M28.03 86.58 C28.41 86.29, 28.8 86, 29.45 85.51 M29.45 85.51 C29.95 85.1, 30.46 84.69, 30.82 84.39 M29.45 85.51 C29.89 85.15, 30.34 84.79, 30.82 84.39 M30.82 84.39 C31.26 84.01, 31.69 83.63, 32.15 83.23 M30.82 84.39 C31.29 83.99, 31.75 83.58, 32.15 83.23 M32.15 83.23 C32.52 82.88, 32.88 82.54, 33.44 82.01 M32.15 83.23 C32.54 82.86, 32.93 82.49, 33.44 82.01 M33.44 82.01 C33.71 81.74, 33.98 81.46, 34.68 80.75 M33.44 82.01 C33.73 81.72, 34.01 81.43, 34.68 80.75 M34.68 80.75 C34.99 80.41, 35.3 80.07, 35.88 79.44 M34.68 80.75 C34.96 80.44, 35.24 80.13, 35.88 79.44 M35.88 79.44 C36.16 79.11, 36.43 78.79, 37.03 78.09 M35.88 79.44 C36.13 79.14, 36.39 78.84, 37.03 78.09 M37.03 78.09 C37.28 77.76, 37.54 77.44, 38.12 76.69 M37.03 78.09 C37.31 77.73, 37.59 77.37, 38.12 76.69 M38.12 76.69 C38.43 76.28, 38.73 75.86, 39.17 75.26 M38.12 76.69 C38.47 76.21, 38.82 75.74, 39.17 75.26 M39.17 75.26 C39.56 74.68, 39.94 74.11, 40.16 73.78 M39.17 75.26 C39.47 74.8, 39.78 74.35, 40.16 73.78 M40.16 73.78 C40.53 73.19, 40.89 72.6, 41.1 72.27 M40.16 73.78 C40.42 73.36, 40.68 72.94, 41.1 72.27 M41.1 72.27 C41.42 71.71, 41.74 71.16, 41.98 70.72 M41.1 72.27 C41.38 71.77, 41.67 71.27, 41.98 70.72 M41.98 70.72 C42.25 70.2, 42.52 69.69, 42.81 69.13 M41.98 70.72 C42.21 70.29, 42.43 69.87, 42.81 69.13 M42.81 69.13 C42.98 68.78, 43.15 68.42, 43.58 67.51 M42.81 69.13 C43 68.74, 43.18 68.35, 43.58 67.51 M43.58 67.51 C43.74 67.15, 43.89 66.79, 44.29 65.86 M43.58 67.51 C43.74 67.14, 43.9 66.77, 44.29 65.86 M44.29 65.86 C44.48 65.36, 44.67 64.87, 44.94 64.17 M44.29 65.86 C44.43 65.5, 44.56 65.15, 44.94 64.17 M44.94 64.17 C45.14 63.58, 45.34 62.99, 45.52 62.46 M44.94 64.17 C45.15 63.54, 45.37 62.91, 45.52 62.46 M45.52 62.46 C45.71 61.84, 45.89 61.22, 46.04 60.72 M45.52 62.46 C45.72 61.8, 45.92 61.13, 46.04 60.72 M46.04 60.72 C46.19 60.14, 46.34 59.57, 46.5 58.95 M46.04 60.72 C46.15 60.32, 46.25 59.93, 46.5 58.95 M46.5 58.95 C46.59 58.55, 46.67 58.15, 46.89 57.15 M46.5 58.95 C46.62 58.41, 46.74 57.86, 46.89 57.15 M46.89 57.15 C47 56.56, 47.1 55.97, 47.21 55.33 M46.89 57.15 C46.96 56.75, 47.03 56.36, 47.21 55.33 M47.21 55.33 C47.31 54.67, 47.4 54.01, 47.47 53.49 M47.21 55.33 C47.3 54.73, 47.38 54.13, 47.47 53.49 M47.47 53.49 C47.51 53.01, 47.56 52.54, 47.65 51.62 M47.47 53.49 C47.52 52.96, 47.57 52.43, 47.65 51.62 M47.65 51.62 C47.68 51.1, 47.71 50.57, 47.76 49.73 M47.65 51.62 C47.67 51.22, 47.7 50.81, 47.76 49.73 M47.76 49.73 C47.77 49.01, 47.79 48.29, 47.8 47.83 M47.76 49.73 C47.77 49.25, 47.78 48.76, 47.8 47.83 M47.8 47.83 C47.78 47, 47.76 46.17, 47.74 45.37 M47.8 47.83 C47.78 47.03, 47.76 46.24, 47.74 45.37 M47.74 45.37 C47.68 44.63, 47.63 43.89, 47.56 42.94 M47.74 45.37 C47.69 44.72, 47.64 44.07, 47.56 42.94 M47.56 42.94 C47.45 42.12, 47.35 41.29, 47.25 40.55 M47.56 42.94 C47.49 42.41, 47.42 41.89, 47.25 40.55 M47.25 40.55 C47.09 39.64, 46.93 38.74, 46.84 38.19 M47.25 40.55 C47.1 39.7, 46.95 38.85, 46.84 38.19 M46.84 38.19 C46.65 37.38, 46.46 36.57, 46.3 35.88 M46.84 38.19 C46.69 37.57, 46.55 36.94, 46.3 35.88 M46.3 35.88 C46.1 35.15, 45.89 34.43, 45.66 33.61 M46.3 35.88 C46.12 35.24, 45.94 34.6, 45.66 33.61 M45.66 33.61 C45.47 33.04, 45.28 32.47, 44.91 31.39 M45.66 33.61 C45.48 33.07, 45.3 32.53, 44.91 31.39 M44.91 31.39 C44.6 30.61, 44.3 29.82, 44.06 29.22 M44.91 31.39 C44.68 30.79, 44.44 30.2, 44.06 29.22 M44.06 29.22 C43.86 28.78, 43.66 28.34, 43.1 27.1 M44.06 29.22 C43.76 28.55, 43.46 27.89, 43.1 27.1 M43.1 27.1 C42.79 26.48, 42.47 25.87, 42.04 25.03 M43.1 27.1 C42.8 26.51, 42.5 25.92, 42.04 25.03 M42.04 25.03 C41.59 24.24, 41.13 23.44, 40.89 23.03 M42.04 25.03 C41.75 24.52, 41.46 24.01, 40.89 23.03 M40.89 23.03 C40.55 22.49, 40.2 21.95, 39.65 21.09 M40.89 23.03 C40.43 22.31, 39.96 21.58, 39.65 21.09 M39.65 21.09 C39.3 20.59, 38.94 20.09, 38.32 19.22 M39.65 21.09 C39.32 20.62, 38.99 20.16, 38.32 19.22 M38.32 19.22 C37.77 18.52, 37.22 17.82, 36.9 17.41 M38.32 19.22 C37.9 18.69, 37.49 18.16, 36.9 17.41 M36.9 17.41 C36.45 16.89, 35.99 16.36, 35.4 15.67 M36.9 17.41 C36.48 16.93, 36.06 16.44, 35.4 15.67 M35.4 15.67 C34.99 15.24, 34.57 14.81, 33.81 14.01 M35.4 15.67 C34.92 15.18, 34.45 14.68, 33.81 14.01 M33.81 14.01 C33.42 13.64, 33.03 13.26, 32.15 12.43 M33.81 14.01 C33.27 13.49, 32.73 12.98, 32.15 12.43 M32.15 12.43 C31.67 12.01, 31.18 11.58, 30.42 10.92 M32.15 12.43 C31.53 11.89, 30.91 11.35, 30.42 10.92 M30.42 10.92 C29.96 10.56, 29.5 10.21, 28.61 9.5 M30.42 10.92 C29.72 10.38, 29.03 9.83, 28.61 9.5 M28.61 9.5 C27.9 9, 27.2 8.5, 26.74 8.17 M28.61 9.5 C27.98 9.06, 27.36 8.61, 26.74 8.17 M26.74 8.17 C26 7.7, 25.27 7.23, 24.8 6.93 M26.74 8.17 C26.27 7.87, 25.8 7.57, 24.8 6.93 M24.8 6.93 C24.34 6.67, 23.89 6.4, 22.79 5.77 M24.8 6.93 C24 6.47, 23.21 6.02, 22.79 5.77 M22.79 5.77 C22.21 5.47, 21.62 5.17, 20.73 4.72 M22.79 5.77 C22.18 5.46, 21.57 5.15, 20.73 4.72 M20.73 4.72 C20.2 4.48, 19.67 4.24, 18.61 3.76 M20.73 4.72 C20.28 4.51, 19.83 4.31, 18.61 3.76 M18.61 3.76 C17.97 3.5, 17.32 3.25, 16.44 2.9 M18.61 3.76 C17.87 3.47, 17.12 3.17, 16.44 2.9 M16.44 2.9 C15.95 2.74, 15.46 2.57, 14.22 2.15 M16.44 2.9 C15.64 2.63, 14.83 2.36, 14.22 2.15 M14.22 2.15 C13.35 1.9, 12.48 1.66, 11.95 1.51 M14.22 2.15 C13.35 1.9, 12.47 1.65, 11.95 1.51 M11.95 1.51 C11.36 1.37, 10.78 1.23, 9.64 0.97 M11.95 1.51 C11.21 1.33, 10.47 1.16, 9.64 0.97 M9.64 0.97 C8.8 0.82, 7.96 0.67, 7.28 0.55 M9.64 0.97 C9.1 0.88, 8.57 0.78, 7.28 0.55 M7.28 0.55 C6.77 0.49, 6.27 0.42, 4.89 0.25 M7.28 0.55 C6.64 0.47, 5.99 0.39, 4.89 0.25 M4.89 0.25 C4.21 0.2, 3.53 0.14, 2.46 0.06 M4.89 0.25 C4.22 0.2, 3.55 0.15, 2.46 0.06 M2.46 0.06 C1.71 0.04, 0.95 0.02, 0 0 M2.46 0.06 C1.74 0.04, 1.02 0.03, 0 0 M0 0 C0 0, 0 0, 0 0 M0 0 C0 0, 0 0, 0 0 M0 0 C0 0, 0 0, 0 0 M0 0 C0 0, 0 0, 0 0" stroke="#000000" stroke-width="1" fill="none"></path></g></g><mask></mask><g stroke-linecap="round" transform="translate(42.178843869906814 42.90020204259099) rotate(0 15.93260509709853 15.93260509709836)"><path d="M31.87 15.93 C31.87 16.85, 31.78 17.79, 31.62 18.7 C31.46 19.61, 31.22 20.52, 30.9 21.38 C30.59 22.25, 30.19 23.1, 29.73 23.9 C29.27 24.7, 28.73 25.47, 28.14 26.17 C27.54 26.88, 26.88 27.54, 26.17 28.14 C25.47 28.73, 24.7 29.27, 23.9 29.73 C23.1 30.19, 22.25 30.59, 21.38 30.9 C20.52 31.22, 19.61 31.46, 18.7 31.62 C17.79 31.78, 16.85 31.87, 15.93 31.87 C15.01 31.87, 14.07 31.78, 13.17 31.62 C12.26 31.46, 11.35 31.22, 10.48 30.9 C9.62 30.59, 8.76 30.19, 7.97 29.73 C7.17 29.27, 6.4 28.73, 5.69 28.14 C4.98 27.54, 4.32 26.88, 3.73 26.17 C3.13 25.47, 2.6 24.7, 2.13 23.9 C1.67 23.1, 1.28 22.25, 0.96 21.38 C0.65 20.52, 0.4 19.61, 0.24 18.7 C0.08 17.79, 0 16.85, 0 15.93 C0 15.01, 0.08 14.07, 0.24 13.17 C0.4 12.26, 0.65 11.35, 0.96 10.48 C1.28 9.62, 1.67 8.76, 2.13 7.97 C2.6 7.17, 3.13 6.4, 3.73 5.69 C4.32 4.98, 4.98 4.32, 5.69 3.73 C6.4 3.13, 7.17 2.6, 7.97 2.13 C8.76 1.67, 9.62 1.28, 10.48 0.96 C11.35 0.65, 12.26 0.4, 13.17 0.24 C14.07 0.08, 15.01 0, 15.93 0 C16.85 0, 17.79 0.08, 18.7 0.24 C19.61 0.4, 20.52 0.65, 21.38 0.96 C22.25 1.28, 23.1 1.67, 23.9 2.13 C24.7 2.6, 25.47 3.13, 26.17 3.73 C26.88 4.32, 27.54 4.98, 28.14 5.69 C28.73 6.4, 29.27 7.17, 29.73 7.97 C30.19 8.76, 30.59 9.62, 30.9 10.48 C31.22 11.35, 31.46 12.26, 31.62 13.17 C31.78 14.07, 31.82 15.47, 31.87 15.93 C31.91 16.39, 31.91 15.47, 31.87 15.93" stroke="none" stroke-width="0" fill="#fff"></path><path d="M31.87 15.93 C31.87 16.85, 31.78 17.79, 31.62 18.7 C31.46 19.61, 31.22 20.52, 30.9 21.38 C30.59 22.25, 30.19 23.1, 29.73 23.9 C29.27 24.7, 28.73 25.47, 28.14 26.17 C27.54 26.88, 26.88 27.54, 26.17 28.14 C25.47 28.73, 24.7 29.27, 23.9 29.73 C23.1 30.19, 22.25 30.59, 21.38 30.9 C20.52 31.22, 19.61 31.46, 18.7 31.62 C17.79 31.78, 16.85 31.87, 15.93 31.87 C15.01 31.87, 14.07 31.78, 13.17 31.62 C12.26 31.46, 11.35 31.22, 10.48 30.9 C9.62 30.59, 8.76 30.19, 7.97 29.73 C7.17 29.27, 6.4 28.73, 5.69 28.14 C4.98 27.54, 4.32 26.88, 3.73 26.17 C3.13 25.47, 2.6 24.7, 2.13 23.9 C1.67 23.1, 1.28 22.25, 0.96 21.38 C0.65 20.52, 0.4 19.61, 0.24 18.7 C0.08 17.79, 0 16.85, 0 15.93 C0 15.01, 0.08 14.07, 0.24 13.17 C0.4 12.26, 0.65 11.35, 0.96 10.48 C1.28 9.62, 1.67 8.76, 2.13 7.97 C2.6 7.17, 3.13 6.4, 3.73 5.69 C4.32 4.98, 4.98 4.32, 5.69 3.73 C6.4 3.13, 7.17 2.6, 7.97 2.13 C8.76 1.67, 9.62 1.28, 10.48 0.96 C11.35 0.65, 12.26 0.4, 13.17 0.24 C14.07 0.08, 15.01 0, 15.93 0 C16.85 0, 17.79 0.08, 18.7 0.24 C19.61 0.4, 20.52 0.65, 21.38 0.96 C22.25 1.28, 23.1 1.67, 23.9 2.13 C24.7 2.6, 25.47 3.13, 26.17 3.73 C26.88 4.32, 27.54 4.98, 28.14 5.69 C28.73 6.4, 29.27 7.17, 29.73 7.97 C30.19 8.76, 30.59 9.62, 30.9 10.48 C31.22 11.35, 31.46 12.26, 31.62 13.17 C31.78 14.07, 31.82 15.47, 31.87 15.93 C31.91 16.39, 31.91 15.47, 31.87 15.93" stroke="#000000" stroke-width="1" fill="none"></path></g></svg>