<svg version="1.1" xmlns="http://www.w3.org/2000/svg" viewBox="0 0 214.49052732441615 208.17377309858534" width="214.49052732441615" height="208.17377309858534">
  <!-- svg-source:excalidraw -->
  
  <defs>
    <style class="style-fonts">
      
    </style>
    
  </defs>
  <rect x="0" y="0" width="214.49052732441615" height="208.17377309858534" fill="transparent"></rect><g stroke-linecap="round"><g transform="translate(25.781226299676746 156.73805975153618) rotate(0 44.40787763529123 -72.74939521650401)" fill-rule="evenodd"><path d="M10.46 -120.76 C10.46 -120.76, 10.46 -120.76, 10.46 -120.76 M10.46 -120.76 C10.46 -120.76, 10.46 -120.76, 10.46 -120.76 M-4.23 -97.76 C4.53 -104.86, 13.46 -116.06, 22.01 -127.95 M-4.23 -97.76 C1.34 -104.9, 5.98 -109.95, 22.01 -127.95 M-10.4 -84.57 C1.2 -101.19, 15.77 -112.69, 30.27 -131.36 M-10.4 -84.57 C0.37 -96.01, 9.58 -109.07, 30.27 -131.36 M-11.97 -76.66 C4.83 -93.21, 20.1 -113.39, 39.2 -135.53 M-11.97 -76.66 C4.4 -95.4, 21.27 -114.77, 39.2 -135.53 M-13.55 -68.75 C7.16 -91.8, 27.42 -118.89, 48.12 -139.7 M-13.55 -68.75 C4.13 -90.73, 22.6 -111.4, 48.12 -139.7 M-15.12 -60.85 C-0.5 -79.21, 16.47 -99.1, 55.08 -141.6 M-15.12 -60.85 C4.97 -84.96, 25.77 -108.76, 55.08 -141.6 M-14.73 -55.2 C12.04 -86.1, 42.31 -117.08, 61.38 -142.75 M-14.73 -55.2 C9.78 -83.25, 34.51 -111.65, 61.38 -142.75 M-14.99 -48.8 C11.45 -78.19, 36.75 -109.73, 67.02 -143.14 M-14.99 -48.8 C8.51 -74.54, 30.35 -100.99, 67.02 -143.14 M-14.59 -43.16 C0.13 -62.23, 15.75 -77.33, 24.11 -87.69 M-14.59 -43.16 C-4.9 -55.09, 4.03 -65.73, 24.11 -87.69 M24.11 -87.69 C34.34 -100.72, 44.37 -111.75, 73.32 -144.29 M24.11 -87.69 C40.1 -104.64, 56.34 -123.78, 73.32 -144.29 M-14.2 -37.52 C-2.4 -52.28, 11.13 -64.5, 17.95 -74.5 M-14.2 -37.52 C-6.42 -47.69, 1.73 -57.63, 17.95 -74.5 M46.16 -106.95 C58.09 -120.66, 67.88 -131.71, 78.96 -144.69 M46.16 -106.95 C56.09 -117.72, 63.68 -128.52, 78.96 -144.69 M-12.49 -33.38 C-5.9 -43.74, 2.06 -52.28, 16.37 -66.59 M-12.49 -33.38 C-2.42 -46.73, 9.88 -57.68, 16.37 -66.59 M57.71 -114.14 C65.14 -126.06, 75.7 -136.2, 84.6 -145.08 M57.71 -114.14 C65.05 -124.67, 74.44 -132.83, 84.6 -145.08 M-10.79 -29.25 C-3.74 -39.04, 3.94 -43.74, 15.46 -59.44 M-10.79 -29.25 C-3.75 -37.37, 4.12 -46.29, 15.46 -59.44 M64 -115.29 C71.42 -125.09, 77.19 -130.67, 89.59 -144.72 M64 -115.29 C72.62 -125.59, 81.47 -133.52, 89.59 -144.72 M-9.08 -25.12 C-0.09 -35.47, 8.89 -43.98, 15.19 -53.04 M-9.08 -25.12 C-1.67 -32.28, 4.07 -40.65, 15.19 -53.04 M70.3 -116.44 C73.68 -122.59, 82.36 -128.69, 94.58 -144.36 M70.3 -116.44 C76.1 -123.04, 80.71 -127.37, 94.58 -144.36 M-7.37 -20.98 C-2.4 -29.46, 5.26 -35.75, 16.25 -48.15 M-7.37 -20.98 C0.12 -29.64, 7.46 -38.43, 16.25 -48.15 M77.26 -118.34 C84.95 -126.09, 92.92 -134.8, 98.91 -143.25 M77.26 -118.34 C84.78 -127.51, 93.09 -136.22, 98.91 -143.25 M-6.32 -16.1 C-1.26 -20.66, 4.04 -28.57, 16.64 -42.51 M-6.32 -16.1 C-1.24 -22.6, 6.25 -29.14, 16.64 -42.51 M82.9 -118.74 C89.28 -123.04, 90.54 -127.81, 102.58 -141.38 M82.9 -118.74 C89.97 -126.8, 97.21 -135.89, 102.58 -141.38 M-4.62 -11.96 C1.14 -21.38, 11.99 -27.61, 17.03 -36.87 M-4.62 -11.96 C2.44 -18.72, 9.05 -27.89, 17.03 -36.87 M87.89 -118.38 C93.1 -123.93, 94.59 -128.11, 104.95 -138 M87.89 -118.38 C92.48 -124.7, 98.49 -129.44, 104.95 -138 M-2.91 -7.83 C2.49 -16.33, 11.52 -24.65, 18.74 -32.73 M-2.91 -7.83 C1.04 -12.43, 7.33 -18.04, 18.74 -32.73 M92.88 -118.02 C97.47 -121.59, 99.86 -125.13, 104.69 -131.6 M92.88 -118.02 C96.05 -121.64, 98.68 -123.77, 104.69 -131.6 M-1.2 -3.69 C6.02 -7.91, 10.94 -15.09, 20.45 -28.6 M-1.2 -3.69 C6.07 -12.31, 12.54 -19.44, 20.45 -28.6 M97.86 -117.66 C100.32 -119.53, 101.21 -121.67, 103.11 -123.69 M97.86 -117.66 C99.36 -119.6, 101.71 -122.28, 103.11 -123.69 M0.51 0.44 C9.06 -8.81, 17.61 -22.03, 23.47 -25.98 M0.51 0.44 C10.23 -10, 19.15 -21.2, 23.47 -25.98 M0 0 C0 0, 0 0, 0 0 M0 0 C0 0, 0 0, 0 0 M3.38 -2.36 C2.5 -4.04, 1.17 -4.4, -2.66 -7.61 M3.38 -2.36 C1.19 -4.22, -0.46 -5.64, -2.66 -7.61 M6 -5.38 C1.86 -7.89, 0.94 -9.25, -6.07 -15.88 M6 -5.38 C1.27 -9, -2.65 -12.3, -6.07 -15.88 M9.38 -7.74 C5.27 -10.27, 0.51 -14.31, -8.73 -23.49 M9.38 -7.74 C5.55 -10.66, 1.23 -14.05, -8.73 -23.49 M12.76 -10.11 C4.72 -17.03, -3.44 -23.22, -11.39 -31.1 M12.76 -10.11 C4.4 -17.28, -5.1 -25.52, -11.39 -31.1 M16.14 -12.47 C3.57 -24.75, -9.52 -33.22, -14.05 -38.71 M16.14 -12.47 C6.87 -19.34, -1.11 -26.88, -14.05 -38.71 M18.76 -15.49 C11.13 -23.15, 1.25 -33.17, -14.44 -44.36 M18.76 -15.49 C5.88 -26.55, -6.73 -36.71, -14.44 -44.36 M21.39 -18.51 C8.04 -30.52, -8.9 -43.71, -14.84 -50 M21.39 -18.51 C10.04 -28.37, -1.89 -40.16, -14.84 -50 M24.01 -21.53 C8.03 -35.85, -7.66 -48.24, -15.23 -55.64 M24.01 -21.53 C15.4 -29.68, 5.08 -37.61, -15.23 -55.64 M19.84 -30.45 C9.19 -41.16, -5.31 -50.44, -15.63 -61.28 M19.84 -30.45 C11.3 -37.99, 1.17 -46.76, -15.63 -61.28 M17.19 -38.06 C8.52 -45.86, -1.78 -53.14, -14.51 -65.62 M17.19 -38.06 C5.08 -48.64, -8.38 -60.45, -14.51 -65.62 M16.04 -44.36 C7.63 -52.4, -0.61 -60.18, -13.4 -69.95 M16.04 -44.36 C8.68 -51.35, 0.32 -58.6, -13.4 -69.95 M15.64 -50 C5.18 -59.92, -2.67 -64.95, -13.04 -74.93 M15.64 -50 C8.03 -57.31, 0.52 -63.39, -13.04 -74.93 M15.25 -55.65 C5.75 -66.12, -6.36 -72.66, -11.92 -79.26 M15.25 -55.65 C6.72 -61.62, 0.15 -68.98, -11.92 -79.26 M15.61 -60.63 C6.43 -67.02, -1.24 -72.37, -10.81 -83.6 M15.61 -60.63 C8.46 -66.87, 0.78 -74.21, -10.81 -83.6 M15.97 -65.62 C4.76 -74.67, -4.28 -81.22, -9.69 -87.93 M15.97 -65.62 C7.55 -72.34, 1.33 -78.94, -9.69 -87.93 M17.08 -69.95 C10.27 -75.68, 3.78 -79.1, -7.82 -91.6 M17.08 -69.95 C8.7 -76.24, 2.34 -83.88, -7.82 -91.6 M18.2 -74.28 C7.91 -81.23, 0.95 -89.65, -5.95 -95.28 M18.2 -74.28 C12.92 -79.25, 7.04 -85.14, -5.95 -95.28 M19.31 -78.61 C9.76 -87.34, 2.82 -95.64, -4.08 -98.95 M19.31 -78.61 C10.83 -85.58, 2.13 -92.67, -4.08 -98.95 M20.43 -82.94 C11.58 -89.88, 5.25 -95.33, -2.21 -102.63 M20.43 -82.94 C12.57 -89.05, 5.89 -96.76, -2.21 -102.63 M23.05 -85.96 C14.9 -93.05, 5.63 -101.33, -0.34 -106.3 M23.05 -85.96 C16.13 -91.63, 9.18 -96.96, -0.34 -106.3 M25.68 -88.98 C16.17 -97.46, 10.82 -102.19, 1.52 -109.98 M25.68 -88.98 C18.69 -94.39, 12.89 -100.4, 1.52 -109.98 M28.3 -92 C17.61 -102.02, 7.08 -108.57, 4.15 -112.99 M28.3 -92 C20.95 -99, 11.88 -105.65, 4.15 -112.99 M31.68 -94.36 C25.12 -98.59, 20.74 -102.59, 6.77 -116.01 M31.68 -94.36 C24.11 -102.07, 16.83 -108.37, 6.77 -116.01 M34.3 -97.38 C29.51 -102.73, 21.12 -107.37, 9.4 -119.03 M34.3 -97.38 C24.36 -105.62, 15.64 -113.84, 9.4 -119.03 M37.68 -99.75 C32.32 -104.92, 24.22 -112.89, 12.02 -122.05 M37.68 -99.75 C28.86 -107.18, 18.3 -115.43, 12.02 -122.05 M40.31 -102.76 C34.61 -108.11, 28.24 -115.96, 15.4 -124.41 M40.31 -102.76 C35.11 -107.43, 30.8 -111.43, 15.4 -124.41 M43.68 -105.13 C37.48 -110.61, 30.18 -115.64, 18.78 -126.78 M43.68 -105.13 C36.61 -111.14, 29.93 -116.7, 18.78 -126.78 M46.31 -108.15 C39.25 -115.04, 34.6 -118.97, 22.16 -129.14 M46.31 -108.15 C37.83 -116.23, 29.27 -122.49, 22.16 -129.14 M49.69 -110.51 C43.07 -113.9, 36.07 -119.13, 26.29 -130.85 M49.69 -110.51 C41.29 -116.54, 34.17 -125.15, 26.29 -130.85 M52.31 -113.53 C44.34 -119.11, 37.18 -126.67, 30.43 -132.55 M52.31 -113.53 C47.05 -118.49, 40.6 -123.23, 30.43 -132.55 M56.45 -115.23 C50.29 -121.43, 44.51 -125.16, 34.56 -134.26 M56.45 -115.23 C51.3 -118.86, 46.06 -124.77, 34.56 -134.26 M61.33 -116.28 C55.57 -123.29, 49.71 -129.06, 38.69 -135.97 M61.33 -116.28 C52.78 -123.55, 45.21 -130.02, 38.69 -135.97 M66.22 -117.34 C56.35 -125.82, 48.85 -134.86, 42.83 -137.67 M66.22 -117.34 C58.34 -123.65, 51.74 -129.57, 42.83 -137.67 M71.11 -118.39 C61.51 -125.96, 55.05 -132.78, 46.96 -139.38 M71.11 -118.39 C62.68 -126.32, 54.54 -134.1, 46.96 -139.38 M76 -119.44 C72.39 -123.42, 66.86 -128.26, 51.85 -140.43 M76 -119.44 C67.8 -127.67, 57.26 -134.25, 51.85 -140.43 M82.4 -119.18 C73.56 -126.62, 64.51 -136.97, 55.98 -142.14 M82.4 -119.18 C74.21 -126.58, 67.39 -132.75, 55.98 -142.14 M88.79 -118.91 C80.86 -127.55, 73.16 -133.62, 60.87 -143.19 M88.79 -118.91 C77.57 -129.15, 67.64 -137.95, 60.87 -143.19 M95.19 -118.65 C88.93 -125.72, 79.87 -132.34, 65.76 -144.24 M95.19 -118.65 C86.74 -124.66, 79.12 -131.14, 65.76 -144.24 M100.08 -119.7 C89.7 -125.97, 80.81 -135.64, 71.4 -144.63 M100.08 -119.7 C89.27 -128.95, 77.76 -138.45, 71.4 -144.63 M101.95 -123.38 C97.69 -128.14, 89.99 -135.89, 77.05 -145.03 M101.95 -123.38 C93.3 -129.91, 85.42 -136.99, 77.05 -145.03 M103.07 -127.71 C94.16 -133.9, 88.24 -139.48, 81.93 -146.08 M103.07 -127.71 C95.32 -134.6, 88.29 -139.46, 81.93 -146.08 M104.18 -132.04 C96.85 -136.86, 93.8 -143.2, 88.33 -145.82 M104.18 -132.04 C98.52 -136.58, 91.76 -141.17, 88.33 -145.82 M105.3 -136.37 C101.44 -140.25, 97.84 -140.95, 95.48 -144.9 M105.3 -136.37 C102.56 -139.14, 98.78 -141.44, 95.48 -144.9" stroke="#15aabf" stroke-width="0.5" fill="none"></path><path d="M0.64 -0.08 C-1.8 -6.82, -11.61 -28.27, -13.96 -40.82 C-16.3 -53.37, -14.93 -65.42, -13.42 -75.35 C-11.91 -85.29, -8.84 -92.99, -4.89 -100.44 C-0.94 -107.9, 4.38 -114.59, 10.29 -120.08 C16.2 -125.57, 22.26 -129.55, 30.56 -133.37 C38.87 -137.18, 49.87 -140.88, 60.12 -142.98 C70.37 -145.07, 84.96 -146.41, 92.08 -145.94 C99.19 -145.47, 100.75 -142.86, 102.8 -140.15 C104.84 -137.45, 104.86 -133.52, 104.35 -129.73 C103.85 -125.94, 103.98 -119.31, 99.75 -117.4 C95.52 -115.49, 86.48 -118.77, 78.98 -118.27 C71.49 -117.77, 60.91 -116.69, 54.78 -114.38 C48.66 -112.07, 47.59 -108.98, 42.24 -104.43 C36.9 -99.88, 26.89 -92.66, 22.72 -87.06 C18.55 -81.46, 18.63 -76.42, 17.22 -70.83 C15.81 -65.23, 14.38 -59.02, 14.29 -53.48 C14.19 -47.95, 15.61 -41.87, 16.66 -37.59 C17.72 -33.31, 19.16 -30.71, 20.61 -27.81 C22.06 -24.9, 28.61 -24.67, 25.37 -20.16 C22.12 -15.64, 5.19 -4.14, 1.16 -0.7 M-0.48 -1.16 C-3.04 -8.25, -12.02 -30.1, -14.32 -42.77 C-16.62 -55.45, -15.9 -67.68, -14.28 -77.2 C-12.67 -86.72, -8.48 -92.85, -4.64 -99.87 C-0.8 -106.89, 3.17 -114.15, 8.74 -119.34 C14.3 -124.54, 20.12 -126.88, 28.74 -131.03 C37.36 -135.18, 50.03 -141.65, 60.45 -144.23 C70.86 -146.81, 83.96 -147.02, 91.25 -146.52 C98.54 -146.01, 102.42 -143.98, 104.21 -141.19 C105.99 -138.41, 102.59 -133.39, 101.95 -129.79 C101.31 -126.2, 104.38 -121.55, 100.36 -119.62 C96.33 -117.68, 85.87 -118.9, 77.8 -118.2 C69.72 -117.49, 57.99 -117.57, 51.93 -115.37 C45.87 -113.17, 46.34 -109.68, 41.45 -104.99 C36.55 -100.3, 26.99 -92.62, 22.56 -87.24 C18.14 -81.86, 15.93 -78.51, 14.91 -72.71 C13.9 -66.92, 16.37 -58.43, 16.45 -52.47 C16.54 -46.52, 14.96 -41.17, 15.41 -36.99 C15.85 -32.8, 17.3 -29.91, 19.11 -27.35 C20.92 -24.8, 29.33 -26.46, 26.26 -21.67 C23.19 -16.87, 5.32 -2.1, 0.68 1.41" stroke="#000000" stroke-width="1" fill="none"></path></g></g><mask></mask><g stroke-linecap="round"><g transform="translate(132.0124108307166 35.86024194237325) rotate(0 35.75877384613844 35.31622721357769)" fill-rule="evenodd"><path d="M3.63 -19.37 C3.63 -19.37, 3.63 -19.37, 3.63 -19.37 M3.63 -19.37 C3.63 -19.37, 3.63 -19.37, 3.63 -19.37 M4.02 -13.73 C5.02 -16.19, 7.99 -17.08, 9.93 -20.52 M4.02 -13.73 C6.25 -15.85, 8.66 -19.22, 9.93 -20.52 M3.1 -6.58 C4.63 -10.53, 7.43 -14.87, 14.26 -19.41 M3.1 -6.58 C6.61 -9.65, 10.15 -13.5, 14.26 -19.41 M1.53 1.33 C4.81 -3.12, 10.77 -6.67, 17.93 -17.54 M1.53 1.33 C6.44 -4.24, 11.83 -10.4, 17.93 -17.54 M5.21 3.2 C11.29 -3.15, 17.56 -10.01, 22.26 -16.42 M5.21 3.2 C10.17 -1.96, 13.66 -7.71, 22.26 -16.42 M8.88 5.07 C14.84 -1.08, 15.57 -3.73, 26.59 -15.31 M8.88 5.07 C12.95 0.87, 16.67 -4.58, 26.59 -15.31 M12.56 6.94 C15.3 3.18, 18.92 -0.91, 30.93 -14.19 M12.56 6.94 C20.05 -1, 27.19 -9.23, 30.93 -14.19 M15.57 9.56 C21.75 3.01, 28 -3.59, 34.6 -12.32 M15.57 9.56 C18.75 5.46, 23.79 0.96, 34.6 -12.32 M19.25 11.43 C23.73 5.44, 30.37 -3.71, 37.62 -9.7 M19.25 11.43 C24.08 6.64, 28.86 -0.14, 37.62 -9.7 M22.92 13.3 C25.18 7.01, 30.38 2.59, 40.64 -7.07 M22.92 13.3 C26.25 7.41, 31 4.35, 40.64 -7.07 M26.6 15.17 C29.62 10.11, 36.17 2.57, 43.66 -4.45 M26.6 15.17 C33.24 8.35, 39.05 -0.06, 43.66 -4.45 M30.27 17.04 C33.75 11.17, 38.36 7.51, 46.02 -1.07 M30.27 17.04 C34.76 12.2, 39.9 6.73, 46.02 -1.07 M32.64 20.42 C34.88 13.89, 39.05 9.81, 49.04 1.55 M32.64 20.42 C36.14 15.92, 38.67 11.56, 49.04 1.55 M35 23.8 C41.07 16.07, 44.88 8.78, 51.4 4.93 M35 23.8 C40.26 19.59, 43.38 12.66, 51.4 4.93 M37.36 27.18 C44.04 20.3, 49.38 11.78, 53.76 8.31 M37.36 27.18 C43.45 21.02, 48.67 14.31, 53.76 8.31 M39.73 30.56 C46.08 24.62, 52.08 15.36, 56.13 11.69 M39.73 30.56 C44.01 25.41, 47.53 21, 56.13 11.69 M41.43 34.69 C47.93 27.64, 55.46 18.38, 58.49 15.07 M41.43 34.69 C46.73 27.12, 54.4 20.73, 58.49 15.07 M43.14 38.83 C49.59 31.11, 52.24 26.37, 60.85 18.45 M43.14 38.83 C50.29 30.14, 58.09 21.77, 60.85 18.45 M44.85 42.96 C50.29 35.94, 55.63 27.65, 63.22 21.83 M44.85 42.96 C52.14 36.18, 57.77 28.56, 63.22 21.83 M47.21 46.34 C53.58 39.12, 57.38 35.61, 65.58 25.21 M47.21 46.34 C52.87 40.16, 57.23 34.1, 65.58 25.21 M47.6 51.98 C52.89 44.81, 59.41 39.59, 66.63 30.09 M47.6 51.98 C53.56 45.37, 60.14 37.17, 66.63 30.09 M49.97 55.36 C56.86 49.1, 65.58 40.61, 68.34 34.23 M49.97 55.36 C54.65 50.83, 58.49 45.58, 68.34 34.23 M49.7 61.76 C54.35 52.81, 60.74 45.91, 70.04 38.36 M49.7 61.76 C57.9 52.47, 64.93 45.49, 70.04 38.36 M48.79 68.91 C58.32 59.05, 65.12 50.92, 71.75 42.5 M48.79 68.91 C54.11 63.28, 59.17 56.05, 71.75 42.5 M45.9 78.33 C54.76 68.55, 61.94 57.36, 72.14 48.14 M45.9 78.33 C54.99 68.16, 63.23 58.7, 72.14 48.14 M46.95 83.22 C56.92 72.22, 68.39 60.37, 73.19 53.03 M46.95 83.22 C56.23 73.76, 64.98 62.78, 73.19 53.03 M50.63 85.08 C56.76 76.06, 67.84 69.06, 73.59 58.67 M50.63 85.08 C57.92 75.94, 67.4 65.2, 73.59 58.67 M54.3 86.95 C60.83 79.9, 67.02 74.62, 73.33 65.07 M54.3 86.95 C59.01 82.84, 61.29 78.26, 73.33 65.07 M58.63 88.07 C62.84 83.03, 67.05 78.92, 72.41 72.22 M58.63 88.07 C62.66 83.73, 66.67 79.68, 72.41 72.22 M62.31 89.94 C65.13 85.04, 70.81 80.62, 72.8 77.86 M62.31 89.94 C65.16 87.8, 66.5 84.57, 72.8 77.86 M46.39 82.29 C46.39 82.29, 46.39 82.29, 46.39 82.29 M46.39 82.29 C46.39 82.29, 46.39 82.29, 46.39 82.29 M60.34 89.11 C54.71 83.51, 49.01 80.68, 46 76.65 M60.34 89.11 C54.85 85.58, 50.47 81.3, 46 76.65 M66.74 89.37 C59.65 82.28, 54.38 79.89, 46.36 71.66 M66.74 89.37 C60.18 83.16, 54.15 78.92, 46.36 71.66 M67.85 85.04 C60.52 80.13, 56.04 75.15, 46.72 66.67 M67.85 85.04 C60.31 79.26, 54.5 73.93, 46.72 66.67 M68.97 80.71 C65.57 78.09, 59.86 71.32, 47.08 61.68 M68.97 80.71 C63.99 76.31, 58.52 72.84, 47.08 61.68 M70.08 76.38 C61.61 70.59, 57.93 65.03, 47.44 56.7 M70.08 76.38 C62.87 69.3, 53.48 61.97, 47.44 56.7 M71.2 72.05 C65.78 68.96, 61.34 63.06, 47.05 51.05 M71.2 72.05 C65.87 67.16, 60.79 63.04, 47.05 51.05 M71.56 67.06 C63.68 58.97, 52.66 50.12, 46.65 45.41 M71.56 67.06 C63.61 60.11, 57.87 54.88, 46.65 45.41 M71.92 62.07 C64.35 56.38, 57.83 48.42, 42.48 36.49 M71.92 62.07 C62.98 55.53, 56.08 48.21, 42.48 36.49 M0.22 -0.25 C0.22 -0.25, 0.22 -0.25, 0.22 -0.25 M0.22 -0.25 C0.22 -0.25, 0.22 -0.25, 0.22 -0.25 M71.52 56.43 C64.77 50.87, 55.27 40.95, 37.56 26.91 M71.52 56.43 C62.77 46.74, 52.74 39.25, 37.56 26.91 M17.18 9.19 C9.78 5.7, 4.46 -2.69, 0.58 -5.24 M17.18 9.19 C11.73 3.69, 6.05 -1, 0.58 -5.24 M71.13 50.79 C46.64 30.12, 26.48 10.77, 1.69 -9.57 M71.13 50.79 C54.76 36.7, 36.57 22.04, 1.69 -9.57 M69.98 44.49 C47.62 24.77, 22.33 4.34, 2.05 -14.56 M69.98 44.49 C54.76 32.99, 41.75 20.1, 2.05 -14.56 M68.83 38.19 C45.76 18.8, 23.42 -0.04, 3.17 -18.89 M68.83 38.19 C50.28 23.33, 32.36 7.48, 3.17 -18.89 M66.92 31.23 C46.95 12.79, 22.46 -7.89, 7.3 -20.59 M66.92 31.23 C51.44 17.94, 36.11 5.93, 7.3 -20.59 M64.27 23.62 C45.79 9.87, 28.23 -5.58, 12.95 -20.99 M64.27 23.62 C47.08 8.5, 31.16 -5.68, 12.95 -20.99 M56.32 11.42 C44.33 0.33, 32.18 -9.7, 22.36 -18.1 M56.32 11.42 C44.02 -0.28, 30.04 -11.01, 22.36 -18.1 M40.08 -8 C38.9 -8.9, 35.73 -11.45, 31.78 -15.22 M40.08 -8 C37.38 -10.73, 33.62 -13.22, 31.78 -15.22" stroke="#fa5252" stroke-width="0.5" fill="none"></path><path d="M1.12 0.32 C1.64 -2.8, 0.24 -15.51, 3.76 -18.79 C7.28 -22.06, 16.38 -21.08, 22.25 -19.33 C28.12 -17.58, 33.22 -13.29, 38.98 -8.28 C44.75 -3.28, 52.77 5.31, 56.84 10.7 C60.91 16.09, 61.29 19.22, 63.41 24.09 C65.52 28.95, 68.38 34.34, 69.55 39.89 C70.72 45.44, 70.17 51.27, 70.42 57.41 C70.66 63.55, 71.71 71.11, 71.04 76.75 C70.36 82.39, 68.65 89.41, 66.38 91.24 C64.11 93.08, 60.58 89.32, 57.4 87.74 C54.21 86.16, 49.25 84.79, 47.27 81.78 C45.3 78.77, 45.63 74.35, 45.53 69.67 C45.43 65, 46.76 58.53, 46.66 53.72 C46.55 48.92, 46.55 45.28, 44.91 40.86 C43.27 36.45, 39.64 31.39, 36.81 27.23 C33.98 23.07, 31.72 19.22, 27.93 15.91 C24.13 12.6, 18.57 9.96, 14.04 7.39 C9.52 4.82, 2.92 1.86, 0.78 0.52 M0.25 -0.56 C0.54 -3.99, -0.82 -17.42, 2.72 -20.41 C6.26 -23.41, 15.42 -20.2, 21.49 -18.54 C27.57 -16.89, 33.43 -15.38, 39.15 -10.49 C44.87 -5.6, 51.57 5.2, 55.8 10.81 C60.02 16.41, 62.07 17.94, 64.5 23.14 C66.93 28.33, 69.06 36.26, 70.39 41.97 C71.72 47.68, 72.56 51.78, 72.47 57.41 C72.38 63.04, 70.69 70.12, 69.85 75.76 C69.01 81.4, 69.42 89.62, 67.43 91.25 C65.45 92.89, 61.44 87.24, 57.94 85.57 C54.44 83.89, 48.48 83.42, 46.44 81.19 C44.39 78.95, 45.22 76.69, 45.66 72.14 C46.11 67.6, 49.14 59.13, 49.12 53.91 C49.11 48.69, 47.47 45.63, 45.56 40.83 C43.64 36.02, 40.75 29.08, 37.61 25.09 C34.47 21.1, 30.86 19.75, 26.7 16.89 C22.54 14.04, 17.12 10.59, 12.64 7.95 C8.16 5.31, 2.14 2.23, -0.2 1.04" stroke="#000000" stroke-width="1" fill="none"></path></g></g><mask></mask><g stroke-linecap="round"><g transform="translate(51.43163516288109 137.91067417791373) rotate(0 9.103939798098196 27.910145334633626)" fill-rule="evenodd"><path d="M-20.34 16.77 C-20.34 16.77, -20.34 16.77, -20.34 16.77 M-20.34 16.77 C-20.34 16.77, -20.34 16.77, -20.34 16.77 M-19.94 22.41 C-16.6 18.4, -13.29 13.74, -8.79 9.58 M-19.94 22.41 C-16.54 17.76, -13.48 14.92, -8.79 9.58 M-16.93 25.04 C-11.35 16.01, 0.17 7.8, 2.76 2.4 M-16.93 25.04 C-12.36 19.25, -8.59 14.25, 2.76 2.4 M-14.56 28.42 C-11.3 24.15, -4.6 19.91, 5.77 5.02 M-14.56 28.42 C-6.83 19.32, 0.84 11.51, 5.77 5.02 M-11.54 31.04 C-3.43 21.59, 4.76 13.13, 8.79 7.64 M-11.54 31.04 C-5 23.76, 1.37 16.52, 8.79 7.64 M-8.53 33.66 C-1.12 26.09, 6.09 15.77, 11.81 10.27 M-8.53 33.66 C-4.2 29.16, 0.35 22.04, 11.81 10.27 M-5.51 36.29 C0.94 28.31, 9.04 19.65, 14.83 12.89 M-5.51 36.29 C2.19 27.84, 8.79 19.88, 14.83 12.89 M-1.83 38.16 C5.14 31.05, 12.31 23.07, 17.85 15.52 M-1.83 38.16 C5.37 29.88, 12.61 21.67, 17.85 15.52 M1.19 40.78 C8.85 30.46, 17.85 23.73, 21.52 17.39 M1.19 40.78 C8.42 32.82, 14.31 25.88, 21.52 17.39 M4.86 42.65 C8.66 37.35, 15.74 31.81, 24.54 20.01 M4.86 42.65 C9.02 36.12, 13.9 31.06, 24.54 20.01 M8.54 44.52 C13.49 37.62, 15.45 33.61, 27.56 22.63 M8.54 44.52 C16.56 35.11, 23.62 27.47, 27.56 22.63 M12.21 46.39 C15.79 41.45, 22.3 34.86, 31.24 24.5 M12.21 46.39 C17.75 40.66, 21.52 35.43, 31.24 24.5 M15.89 48.26 C19.81 43.53, 24.92 40.07, 34.26 27.13 M15.89 48.26 C20.75 41.72, 24.96 36.09, 34.26 27.13 M19.56 50.13 C25.4 45.59, 26.99 39.16, 37.28 29.75 M19.56 50.13 C23.53 45.98, 26.27 40.75, 37.28 29.75 M23.24 52 C27.35 48.96, 33.09 41.71, 40.29 32.38 M23.24 52 C26.37 48.2, 30.27 43.76, 40.29 32.38 M26.91 53.87 C29.05 51.64, 33.07 47.49, 40.03 38.77 M26.91 53.87 C30.91 49.14, 35.81 44.22, 40.03 38.77 M30.59 55.74 C33.03 54.24, 33.68 51.61, 39.12 45.93 M30.59 55.74 C32.57 53.57, 34.33 51.76, 39.12 45.93 M-4.43 37.11 C-4.43 37.11, -4.43 37.11, -4.43 37.11 M-4.43 37.11 C-4.43 37.11, -4.43 37.11, -4.43 37.11 M11.77 45.9 C-1.12 32.94, -12.66 21.21, -20.68 17.69 M11.77 45.9 C0.98 36.49, -9.76 26.66, -20.68 17.69 M27.23 54.04 C13.49 41.65, -3.55 27.42, -18.05 14.67 M27.23 54.04 C14.93 42.65, 1.39 32.74, -18.05 14.67 M33.63 54.3 C20.8 42.78, 5.37 30.94, -13.92 12.96 M33.63 54.3 C18.79 40.92, 4.7 29.08, -13.92 12.96 M37.01 51.93 C19.03 39.15, 2.32 23.6, -10.54 10.6 M37.01 51.93 C18.97 36.83, 2.01 21.01, -10.54 10.6 M38.88 48.26 C28.86 40.24, 17.13 30.26, -7.16 8.24 M38.88 48.26 C23.58 35.08, 8.98 22.66, -7.16 8.24 M39.24 43.27 C24.68 28.03, 7.73 17.28, -4.54 5.22 M39.24 43.27 C26.16 29.94, 11.62 17.81, -4.54 5.22 M40.35 38.94 C30.07 31.49, 19.32 20.83, -1.91 2.2 M40.35 38.94 C25.98 26.85, 10.94 13.98, -1.91 2.2 M40.71 33.95 C32.98 26.92, 23.8 21.9, 18.07 14.27 M40.71 33.95 C32 26.6, 24.07 18.92, 18.07 14.27" stroke="#be4bdb" stroke-width="0.5" fill="none"></path><path d="M-0.18 0.95 C-1.74 2.28, -4.53 5.28, -8.25 8.36 C-11.97 11.43, -21.37 16.51, -22.49 19.41 C-23.61 22.3, -17.85 22.75, -14.96 25.72 C-12.06 28.69, -9.34 34.08, -5.11 37.23 C-0.88 40.37, 6.2 42.16, 10.42 44.58 C14.64 47.01, 16.36 49.78, 20.2 51.78 C24.05 53.78, 30.33 57, 33.49 56.57 C36.66 56.14, 37.97 52.68, 39.21 49.19 C40.46 45.7, 41.35 39.37, 40.97 35.65 C40.6 31.93, 40.57 30.2, 36.95 26.87 C33.33 23.55, 24.36 18.89, 19.25 15.71 C14.14 12.52, 9.41 10.19, 6.3 7.74 C3.19 5.28, 1.73 2.2, 0.61 1 M-1.74 0.4 C-3.55 1.82, -5.59 6.53, -9.19 9.36 C-12.79 12.2, -22.49 14.55, -23.34 17.41 C-24.18 20.27, -17.63 23.15, -14.28 26.54 C-10.93 29.92, -7.01 34.91, -3.24 37.71 C0.54 40.5, 4.46 41.13, 8.37 43.31 C12.29 45.49, 16.17 48.56, 20.27 50.78 C24.36 53, 30.03 57.04, 32.95 56.62 C35.88 56.2, 36.33 51.75, 37.83 48.27 C39.33 44.78, 42.57 39.13, 41.96 35.7 C41.36 32.27, 38.22 31.15, 34.19 27.69 C30.15 24.23, 22.43 18.32, 17.74 14.92 C13.05 11.52, 8.96 9.55, 6.04 7.29 C3.12 5.02, 1.29 2.51, 0.22 1.33" stroke="#000000" stroke-width="1" fill="none"></path></g></g><mask></mask><g stroke-linecap="round"><g transform="translate(99.2977103899957 169.82139099599) rotate(0 45.003496218434 -9.40896870885922)" fill-rule="evenodd"><path d="M-4.81 -0.21 C-4.81 -0.21, -4.81 -0.21, -4.81 -0.21 M-4.81 -0.21 C-4.81 -0.21, -4.81 -0.21, -4.81 -0.21 M-6.39 7.7 C-3.52 5.8, -3.38 2.99, 0.17 0.15 M-6.39 7.7 C-4.46 4.89, -2.64 2.86, 0.17 0.15 M-6.65 14.1 C-0.74 10.11, 3.58 3.05, 5.16 0.51 M-6.65 14.1 C-3.54 11.11, -0.02 7.5, 5.16 0.51 M-6.91 20.49 C-1.24 14.81, 3.23 10.37, 10.8 0.12 M-6.91 20.49 C-2.31 15.54, 2.08 10.38, 10.8 0.12 M-5.2 24.63 C-1.03 18.37, 1.96 13.32, 15.79 0.48 M-5.2 24.63 C0.46 16.47, 7.79 9.28, 15.79 0.48 M-1.53 26.5 C6.96 16.73, 12.96 8.85, 22.75 -1.43 M-1.53 26.5 C7.14 16.32, 15.75 7.97, 22.75 -1.43 M2.8 27.61 C13.76 16.38, 24.12 5.04, 30.36 -4.09 M2.8 27.61 C12.68 16.5, 22.59 4.85, 30.36 -4.09 M7.79 27.97 C18.9 17.4, 29.25 4.31, 37.31 -5.99 M7.79 27.97 C14.82 19.87, 20.51 12.15, 37.31 -5.99 M13.43 27.58 C26.31 14.63, 35.25 0.08, 44.27 -7.89 M13.43 27.58 C22.03 16.96, 31.33 6.21, 44.27 -7.89 M70.51 -38.08 C71.27 -40.34, 74.58 -41.93, 76.41 -44.87 M70.51 -38.08 C72.41 -40.13, 73.76 -41.77, 76.41 -44.87 M18.42 27.94 C39.01 4.77, 56.25 -17.66, 82.06 -45.27 M18.42 27.94 C31.99 11.51, 46.92 -6.04, 82.06 -45.27 M24.72 26.79 C44.98 5.76, 63.91 -19.97, 86.39 -44.15 M24.72 26.79 C38.21 10.03, 52.8 -6.48, 86.39 -44.15 M31.02 25.64 C45.34 5.82, 60.21 -9.56, 90.06 -42.29 M31.02 25.64 C51.73 -0.03, 72.94 -24.08, 90.06 -42.29 M38.63 22.98 C54.84 4.81, 65.63 -9.33, 93.74 -40.42 M38.63 22.98 C57.31 1.58, 74.96 -19.34, 93.74 -40.42 M46.9 19.57 C66.14 -1.77, 84.22 -21.5, 96.1 -37.04 M46.9 19.57 C60.15 5.01, 71.67 -10.33, 96.1 -37.04 M55.16 16.15 C69.42 -1.57, 85.18 -18.94, 97.15 -32.15 M55.16 16.15 C71.14 -1.66, 86.19 -19.5, 97.15 -32.15 M64.09 11.99 C71.38 4.07, 81.07 -6.94, 89.67 -17.45 M64.09 11.99 C69.16 4.49, 75.53 -0.3, 89.67 -17.45 M-5.68 24.83 C-5.68 24.83, -5.68 24.83, -5.68 24.83 M-5.68 24.83 C-5.68 24.83, -5.68 24.83, -5.68 24.83 M2.98 27.06 C-0.12 24.66, -3.63 21.86, -6.83 18.53 M2.98 27.06 C-0.78 24.28, -4.44 21.29, -6.83 18.53 M9.38 27.32 C2.85 22.25, -2.3 18.1, -6.47 13.54 M9.38 27.32 C6.36 24.83, 3.45 20.75, -6.47 13.54 M15.78 27.58 C8.54 23.72, 6.43 19.16, -6.11 8.55 M15.78 27.58 C11.74 23.92, 5.15 19.78, -6.11 8.55 M20.66 26.53 C11.1 18.83, 1.74 8.74, -5.75 3.57 M20.66 26.53 C10.73 17.91, 3.24 11.15, -5.75 3.57 M25.55 25.48 C16.72 18.89, 6.78 7.99, -4.64 -0.76 M25.55 25.48 C18.73 18.49, 10.21 12.47, -4.64 -0.76 M30.44 24.43 C20.81 16.45, 14.06 11.25, 1.76 -0.5 M30.44 24.43 C20.69 16.33, 12.77 8.24, 1.76 -0.5 M35.33 23.38 C27.89 19.82, 25.17 14.3, 8.16 -0.24 M35.33 23.38 C28.75 17.13, 20.96 10.81, 8.16 -0.24 M39.46 21.67 C34.65 15.84, 28.59 13.08, 14.56 0.02 M39.46 21.67 C34.3 17.27, 27.91 11.4, 14.56 0.02 M43.6 19.96 C36.89 11.98, 28.83 6.7, 19.45 -1.03 M43.6 19.96 C34.71 12.37, 23.92 4.48, 19.45 -1.03 M47.73 18.26 C36.9 12.23, 30.27 2.17, 23.58 -2.74 M47.73 18.26 C38.17 10.63, 28.59 0.99, 23.58 -2.74 M51.86 16.55 C43.91 8.5, 34.26 -1, 28.47 -3.79 M51.86 16.55 C46.54 10.57, 38.83 5.66, 28.47 -3.79 M56 14.84 C49.71 8.94, 43.39 5.47, 32.6 -5.5 M56 14.84 C50.4 9.59, 42.09 3.76, 32.6 -5.5 M60.13 13.14 C51.59 5.46, 45.23 0.99, 37.49 -6.55 M60.13 13.14 C51.32 4.98, 43.77 -1.04, 37.49 -6.55 M64.27 11.43 C56.81 3.1, 48.11 -2.84, 41.62 -8.25 M64.27 11.43 C54.88 3.97, 47.7 -3.72, 41.62 -8.25 M67.64 9.07 C58.46 2.19, 52.74 -5.61, 45.76 -9.96 M67.64 9.07 C59.48 1.9, 51.41 -5.11, 45.76 -9.96 M71.02 6.7 C62.37 -0.69, 54.94 -9.83, 48.38 -12.98 M71.02 6.7 C65.82 1.8, 58.85 -3.52, 48.38 -12.98 M73.65 3.68 C66.9 -3.33, 61.93 -7.69, 51.76 -15.34 M73.65 3.68 C65.77 -2.62, 57.97 -9.76, 51.76 -15.34 M76.27 0.67 C70.85 -4.29, 65.36 -9.37, 55.14 -17.7 M76.27 0.67 C70.18 -4.53, 62.98 -11.53, 55.14 -17.7 M78.14 -3.01 C72.1 -6.54, 67.78 -11.4, 57.76 -20.72 M78.14 -3.01 C73.32 -6.95, 68.4 -11, 57.76 -20.72 M80.77 -6.03 C73.33 -10.55, 68.95 -17.75, 61.14 -23.09 M80.77 -6.03 C74.17 -11.23, 66.59 -18.43, 61.14 -23.09 M83.39 -9.05 C77.27 -14.83, 69.26 -23.15, 63.01 -26.76 M83.39 -9.05 C78.25 -13.3, 73.57 -18.43, 63.01 -26.76 M85.26 -12.72 C79.87 -17.03, 74.27 -23.81, 65.64 -29.78 M85.26 -12.72 C81.52 -16.62, 75.54 -20.64, 65.64 -29.78 M87.88 -15.74 C81.83 -17.48, 79.94 -21.88, 67.51 -33.45 M87.88 -15.74 C82.61 -21.62, 74.98 -25.93, 67.51 -33.45 M90.51 -18.76 C81.39 -25.43, 73.7 -32.05, 69.38 -37.13 M90.51 -18.76 C83 -24.36, 76.58 -30.95, 69.38 -37.13 M92.38 -22.43 C86.34 -30, 78.86 -34.17, 72 -40.15 M92.38 -22.43 C86.9 -28.18, 80.97 -33.26, 72 -40.15 M95 -25.45 C89.09 -31.48, 80.26 -38.1, 73.87 -43.82 M95 -25.45 C89.07 -31.02, 83.85 -35.3, 73.87 -43.82 M96.12 -29.78 C89.75 -37.77, 81.42 -41.07, 77.25 -46.19 M96.12 -29.78 C91.08 -34.77, 84.67 -39.88, 77.25 -46.19 M96.48 -34.77 C91.09 -40.29, 87.96 -42.19, 83.65 -45.92 M96.48 -34.77 C93.75 -38.15, 90.54 -39.98, 83.65 -45.92" stroke="#4c6ef5" stroke-width="0.5" fill="none"></path><path d="M0.01 -1.01 C-0.81 -1.06, -4.12 -0.93, -5.13 0.63 C-6.14 2.19, -5.57 5.23, -6.04 8.35 C-6.51 11.48, -8.48 16.48, -7.92 19.39 C-7.37 22.3, -7.01 24.32, -2.72 25.81 C1.58 27.3, 11.2 28.59, 17.86 28.32 C24.52 28.05, 31.5 25.95, 37.25 24.19 C43 22.43, 47.43 19.83, 52.35 17.75 C57.28 15.67, 62.39 14.89, 66.78 11.72 C71.18 8.55, 75.92 2.74, 78.72 -1.28 C81.51 -5.31, 81.3 -8.95, 83.54 -12.45 C85.78 -15.95, 89.78 -19.37, 92.18 -22.3 C94.57 -25.22, 97.7 -27.15, 97.94 -30 C98.17 -32.85, 96.74 -36.73, 93.59 -39.41 C90.45 -42.08, 83.03 -46.25, 79.08 -46.03 C75.13 -45.82, 72.89 -42.21, 69.89 -38.13 C66.88 -34.05, 64.32 -25.84, 61.03 -21.56 C57.74 -17.28, 54.07 -15.26, 50.15 -12.45 C46.23 -9.64, 43.3 -7.02, 37.49 -4.69 C31.69 -2.35, 21.56 0.62, 15.34 1.56 C9.12 2.49, 2.71 1.18, 0.19 0.93 M-1.44 1.08 C-2.42 0.6, -5.33 -2.53, -6.16 -1.14 C-6.98 0.24, -6.07 5.77, -6.38 9.39 C-6.69 13.01, -8.39 17.83, -7.99 20.59 C-7.6 23.35, -8.44 24.8, -3.99 25.97 C0.46 27.14, 12.24 28.07, 18.69 27.62 C25.14 27.16, 29.23 24.86, 34.72 23.24 C40.2 21.61, 46.51 19.93, 51.62 17.87 C56.72 15.8, 61.2 14.13, 65.34 10.83 C69.47 7.54, 73.33 1.87, 76.4 -1.91 C79.47 -5.68, 80.84 -8.43, 83.77 -11.83 C86.69 -15.24, 91.48 -19.27, 93.94 -22.34 C96.39 -25.42, 98.7 -27.47, 98.48 -30.3 C98.27 -33.13, 95.83 -36.66, 92.65 -39.33 C89.48 -42.01, 83.07 -46.8, 79.43 -46.36 C75.79 -45.92, 74.01 -40.98, 70.8 -36.68 C67.6 -32.38, 63.74 -24.58, 60.19 -20.54 C56.63 -16.51, 53.39 -15.18, 49.48 -12.45 C45.56 -9.72, 42.36 -6.31, 36.72 -4.17 C31.08 -2.04, 21.91 -0.38, 15.65 0.36 C9.4 1.09, 1.7 0.5, -0.8 0.23" stroke="#000000" stroke-width="1" fill="none"></path></g></g><mask></mask></svg>